<svg width="142" height="25" viewBox="0 0 142 25" fill="none" xmlns="http://www.w3.org/2000/svg">
<path d="M129.933 6.70354V5.98438H134.71V8.09049C135.755 6.51519 136.996 5.72754 138.435 5.72754C138.965 5.72754 139.479 5.89877 139.976 6.24122C140.472 6.56656 140.883 7.18298 141.208 8.09049L138.923 9.32333C138.683 8.62129 138.4 8.15041 138.075 7.9107C137.767 7.65385 137.433 7.52543 137.073 7.52543C136.697 7.52543 136.328 7.64529 135.969 7.88501C135.609 8.12473 135.241 8.56992 134.864 9.22059V16.8488C134.864 17.431 134.89 17.782 134.942 17.9018C134.993 18.0046 135.156 18.0731 135.43 18.1073L137.356 18.2871V19.0063H129.933V18.2871L131.346 18.1073C131.62 18.0731 131.782 18.0046 131.834 17.9018C131.885 17.782 131.911 17.431 131.911 16.8488V8.14185C131.911 7.55968 131.885 7.21722 131.834 7.11448C131.782 6.99463 131.62 6.91757 131.346 6.88333L129.933 6.70354Z" fill="white"/>
<path d="M128.953 12.2256V12.7393C128.953 14.7084 128.439 16.2923 127.412 17.4909C126.402 18.6724 124.955 19.2631 123.071 19.2631C121.188 19.2631 119.732 18.6724 118.705 17.4909C117.695 16.2923 117.189 14.7084 117.189 12.7393V12.2256C117.189 10.2565 117.695 8.68122 118.705 7.49975C119.732 6.31828 121.188 5.72754 123.071 5.72754C124.955 5.72754 126.402 6.31828 127.412 7.49975C128.439 8.68122 128.953 10.2565 128.953 12.2256ZM125.794 11.712C125.794 9.87982 125.562 8.57848 125.1 7.80796C124.638 7.02031 123.962 6.62649 123.071 6.62649C122.198 6.62649 121.522 7.02031 121.042 7.80796C120.58 8.57848 120.349 9.87982 120.349 11.712V13.253C120.349 15.068 120.58 16.3779 121.042 17.1827C121.522 17.9703 122.198 18.3642 123.071 18.3642C123.962 18.3642 124.638 17.9703 125.1 17.1827C125.562 16.3779 125.794 15.068 125.794 13.253V11.712Z" fill="white"/>
<path d="M110.831 6.62649C110.009 6.62649 109.393 7.02031 108.982 7.80796C108.588 8.57848 108.391 9.87982 108.391 11.712V13.253C108.391 15.068 108.622 16.3779 109.085 17.1827C109.547 17.9703 110.3 18.3642 111.345 18.3642C112.115 18.3642 112.74 18.1501 113.22 17.7221C113.716 17.2769 113.999 16.532 114.067 15.4875L115.711 15.9498C115.403 17.1484 114.838 18.0046 114.016 18.5183C113.211 19.0148 112.261 19.2631 111.165 19.2631C109.196 19.2631 107.715 18.6724 106.722 17.4909C105.728 16.2923 105.232 14.7084 105.232 12.7393V12.2256C105.232 10.2565 105.711 8.68122 106.67 7.49975C107.629 6.31828 109.016 5.72754 110.831 5.72754C112.03 5.72754 113.006 5.96726 113.759 6.4467C114.53 6.90901 115.069 7.52543 115.377 8.29596C115.703 9.04936 115.788 9.86269 115.634 10.736L112.809 11.1469C112.997 9.70859 112.92 8.59561 112.578 7.80796C112.235 7.02031 111.653 6.62649 110.831 6.62649Z" fill="white"/>
<path d="M103.384 15.9498C103.076 17.1484 102.503 18.0046 101.663 18.5183C100.824 19.0148 99.8485 19.2631 98.7355 19.2631C96.6808 19.2631 95.1397 18.6724 94.1123 17.4909C93.085 16.2923 92.5713 14.7084 92.5713 12.7393V12.2256C92.5713 10.2565 93.0507 8.68122 94.0096 7.49975C94.9856 6.31828 96.3897 5.72754 98.2218 5.72754C99.2492 5.72754 100.157 5.93301 100.944 6.34396C101.749 6.73778 102.374 7.3114 102.819 8.0648C103.282 8.8182 103.513 9.73427 103.513 10.813C103.513 11.0698 103.496 11.3438 103.461 11.6349C103.444 11.926 103.401 12.2171 103.333 12.5082H95.7305V13.253C95.7305 15.068 95.9873 16.3779 96.501 17.1827C97.0147 17.9703 97.8451 18.3642 98.9923 18.3642C99.7286 18.3642 100.354 18.1501 100.867 17.7221C101.381 17.2769 101.672 16.532 101.741 15.4875L103.384 15.9498ZM98.2218 6.62649C97.3828 6.62649 96.7578 7.01175 96.3469 7.78227C95.9359 8.5528 95.7305 9.82845 95.7305 11.6092H100.379C100.448 11.2668 100.491 10.95 100.508 10.6589C100.542 10.3507 100.559 10.0682 100.559 9.81132C100.559 8.71547 100.345 7.9107 99.917 7.39701C99.4889 6.88333 98.9238 6.62649 98.2218 6.62649Z" fill="white"/>
<path d="M91.7341 18.2871V19.0063H86.9568V16.8745C86.4774 17.6622 85.938 18.2615 85.3387 18.6724C84.7566 19.0662 84.0631 19.2631 83.2583 19.2631C81.82 19.2631 80.6728 18.6981 79.8166 17.568C78.9776 16.4208 78.5581 14.8198 78.5581 12.765V12.2514C78.5581 10.2651 79.0461 8.68126 80.0221 7.49978C81.0152 6.31831 82.3679 5.72757 84.0802 5.72757C85.1076 5.72757 86.0151 5.98442 86.8027 6.4981V2.15747C86.8027 1.5753 86.777 1.23284 86.7257 1.1301C86.6743 1.01024 86.5116 0.933192 86.2377 0.898946L84.825 0.719157V0H89.7564V16.8488C89.7564 17.431 89.7821 17.782 89.8335 17.9019C89.8848 18.0046 90.0475 18.0731 90.3215 18.1074L91.7341 18.2871ZM81.7173 13.5356C81.7173 15.128 81.9142 16.2923 82.308 17.0286C82.7018 17.7649 83.2412 18.133 83.9261 18.133C84.3542 18.133 84.7994 17.9618 85.2617 17.6194C85.7411 17.2598 86.2548 16.5406 86.8027 15.4619V7.70526C86.1521 7.05459 85.3559 6.72926 84.4141 6.72926C83.4723 6.72926 82.7874 7.15733 82.3594 8.01347C81.9313 8.85248 81.7173 10.0083 81.7173 11.4808V13.5356Z" fill="white"/>
<path d="M63.6157 0.719157V0H68.5471V12.4568L73.0675 8.14189C73.6668 7.57684 73.9836 7.23438 74.0178 7.11452C74.0692 6.99466 73.9493 6.91761 73.6582 6.88336L72.2456 6.70357V5.98442H77.5109V6.70357L76.0982 6.88336C75.9441 6.90049 75.8157 6.93473 75.713 6.9861C75.6102 7.03747 75.4647 7.14877 75.2763 7.31999C75.088 7.4741 74.7883 7.74806 74.3774 8.14189L71.9117 10.5048L75.5589 16.8488C75.7986 17.2427 75.9784 17.5252 76.0982 17.6964C76.2181 17.8505 76.3294 17.9532 76.4321 18.0046C76.552 18.0389 76.6975 18.0731 76.8688 18.1074L78.2814 18.2871V19.0063H73.3757L69.8056 12.5082L68.5471 13.7154V16.8488C68.5471 17.431 68.5728 17.782 68.6241 17.9019C68.6755 18.0046 68.8382 18.0731 69.1121 18.1074L70.5248 18.2871V19.0063H63.6157V18.2871L65.0284 18.1074C65.3023 18.0731 65.465 18.0046 65.5163 17.9019C65.5677 17.782 65.5934 17.431 65.5934 16.8488V2.15747C65.5934 1.5753 65.5677 1.23284 65.5163 1.1301C65.465 1.01024 65.3023 0.933192 65.0284 0.898946L63.6157 0.719157Z" fill="white"/>
<path d="M58.1822 6.62649C57.3603 6.62649 56.7438 7.02031 56.3329 7.80796C55.9391 8.57848 55.7422 9.87982 55.7422 11.712V13.253C55.7422 15.068 55.9733 16.3779 56.4356 17.1827C56.898 17.9703 57.6514 18.3642 58.6958 18.3642C59.4664 18.3642 60.0914 18.1501 60.5708 17.7221C61.0674 17.2769 61.3499 16.532 61.4184 15.4875L63.0622 15.9498C62.7539 17.1484 62.1889 18.0046 61.367 18.5183C60.5622 19.0148 59.6119 19.2631 58.5161 19.2631C56.5469 19.2631 55.0658 18.6724 54.0727 17.4909C53.0796 16.2923 52.583 14.7084 52.583 12.7393V12.2256C52.583 10.2565 53.0624 8.68122 54.0213 7.49975C54.9802 6.31828 56.3671 5.72754 58.1822 5.72754C59.3808 5.72754 60.3568 5.96726 61.1102 6.4467C61.8807 6.90901 62.4201 7.52543 62.7283 8.29596C63.0536 9.04936 63.1392 9.86269 62.9851 10.736L60.1598 11.1469C60.3482 9.70859 60.2711 8.59561 59.9287 7.80796C59.5862 7.02031 59.0041 6.62649 58.1822 6.62649Z" fill="white"/>
<path d="M48.2869 3.77567C47.7561 3.77567 47.328 3.613 47.0027 3.28767C46.6774 2.94521 46.5147 2.50858 46.5147 1.97778C46.5147 1.44697 46.6774 1.0189 47.0027 0.693566C47.328 0.368233 47.7561 0.205566 48.2869 0.205566C48.8006 0.205566 49.2287 0.368233 49.5711 0.693566C49.9136 1.0189 50.0848 1.44697 50.0848 1.97778C50.0848 2.50858 49.9136 2.94521 49.5711 3.28767C49.2287 3.613 48.8006 3.77567 48.2869 3.77567ZM44.8452 6.70367V5.98451H49.7766V16.8489C49.7766 17.4311 49.8023 17.7821 49.8536 17.902C49.905 18.0047 50.0677 18.0732 50.3416 18.1074L51.7543 18.2872V19.0064H44.8452V18.2872L46.2578 18.1074C46.5318 18.0732 46.6945 18.0047 46.7458 17.902C46.7972 17.7821 46.8229 17.4311 46.8229 16.8489V8.14198C46.8229 7.55981 46.7972 7.21735 46.7458 7.11461C46.6945 6.99475 46.5318 6.9177 46.2578 6.88346L44.8452 6.70367Z" fill="white"/>
<path d="M44.7662 18.2871V19.0063H39.9889V16.7461C39.5095 17.6193 38.893 18.2614 38.1396 18.6724C37.3862 19.0662 36.6243 19.2631 35.8538 19.2631C34.638 19.2631 33.6706 18.8607 32.9514 18.0559C32.2323 17.2341 31.8727 16.0954 31.8727 14.6399V8.14185C31.8727 7.55967 31.847 7.21722 31.7957 7.11448C31.7443 6.99462 31.5816 6.91757 31.3076 6.88332L29.895 6.70353V5.98438H34.8264V14.6143C34.8264 15.7957 34.989 16.6604 35.3144 17.2084C35.6568 17.7392 36.1448 18.0046 36.7784 18.0046C37.0523 18.0046 37.3691 17.9361 37.7287 17.7991C38.1054 17.645 38.4821 17.3796 38.8588 17.0029C39.2355 16.6091 39.5608 16.0526 39.8348 15.3334V8.14185C39.8348 7.55967 39.8091 7.20866 39.7577 7.0888C39.7064 6.96894 39.5437 6.90045 39.2697 6.88332L37.3434 6.70353V5.98438H42.7885V16.8488C42.7885 17.431 42.8142 17.782 42.8655 17.9018C42.9169 18.0046 43.0796 18.0731 43.3535 18.1073L44.7662 18.2871Z" fill="white"/>
<path d="M30.3371 23.7578V24.477H22.9144V23.7578L24.8407 23.5781C25.1147 23.5438 25.2773 23.4668 25.3287 23.3469C25.3801 23.2442 25.4058 22.9017 25.4058 22.3195V17.1056C24.9434 17.8248 24.4212 18.3642 23.839 18.7237C23.274 19.0833 22.6147 19.2631 21.8613 19.2631C20.423 19.2631 19.2758 18.6981 18.4197 17.568C17.5806 16.4207 17.1611 14.8197 17.1611 12.765V12.2513C17.1611 10.2651 17.6491 8.68122 18.6251 7.49975C19.6183 6.31828 20.971 5.72754 22.6832 5.72754C24.0017 5.72754 25.0804 6.12136 25.9194 6.90901C26.2277 6.78915 26.5273 6.64361 26.8184 6.47238C27.1095 6.28403 27.392 6.07856 27.666 5.85596H28.3594V22.3195C28.3594 22.9017 28.3851 23.2442 28.4365 23.3469C28.4879 23.4668 28.6505 23.5438 28.9245 23.5781L30.3371 23.7578ZM20.3203 13.5355C20.3203 15.128 20.5172 16.2923 20.911 17.0286C21.3048 17.7649 21.8442 18.133 22.5291 18.133C22.9572 18.133 23.4024 17.9618 23.8647 17.6193C24.3441 17.2597 24.8578 16.5406 25.4058 15.4618V7.70522C24.7551 7.05456 23.9589 6.72922 23.0171 6.72922C22.0754 6.72922 21.3905 7.15729 20.9624 8.01343C20.5343 8.85245 20.3203 10.0082 20.3203 11.4808V13.5355Z" fill="white"/>
<path d="M14.3789 13.6126H11.3225L9.57599 19.2631L8.65135 18.9806L10.2951 13.6126H4.59325L2.84673 19.2631L1.9221 18.9806L3.56588 13.6126H0.791992V12.7136H3.84841L5.36378 7.83365H2.5642V6.9347H5.62062L7.36715 1.28418L8.29178 1.56671L6.64799 6.9347H12.3499L14.0964 1.28418L15.021 1.56671L13.3772 6.9347H16.1511V7.83365H13.0947L11.5794 12.7136H14.3789V13.6126ZM4.85009 12.7136H10.5777L12.093 7.83365H6.36546L4.85009 12.7136Z" fill="white"/>
</svg>
