<svg width="16" height="17" viewBox="0 0 16 17" fill="none" xmlns="http://www.w3.org/2000/svg">
<path d="M8 1.91768C10.1375 1.91768 10.3906 1.92705 11.2313 1.96455C12.0125 1.99893 12.4344 2.13018 12.7156 2.23955C13.0875 2.3833 13.3563 2.5583 13.6344 2.83643C13.9156 3.11768 14.0875 3.3833 14.2313 3.75518C14.3406 4.03643 14.4719 4.46143 14.5063 5.23955C14.5438 6.0833 14.5531 6.33643 14.5531 8.4708C14.5531 10.6083 14.5438 10.8614 14.5063 11.7021C14.4719 12.4833 14.3406 12.9052 14.2313 13.1864C14.0875 13.5583 13.9125 13.8271 13.6344 14.1052C13.3531 14.3864 13.0875 14.5583 12.7156 14.7021C12.4344 14.8114 12.0094 14.9427 11.2313 14.9771C10.3875 15.0146 10.1344 15.0239 8 15.0239C5.8625 15.0239 5.60938 15.0146 4.76875 14.9771C3.9875 14.9427 3.56563 14.8114 3.28438 14.7021C2.9125 14.5583 2.64375 14.3833 2.36563 14.1052C2.08438 13.8239 1.9125 13.5583 1.76875 13.1864C1.65938 12.9052 1.52813 12.4802 1.49375 11.7021C1.45625 10.8583 1.44688 10.6052 1.44688 8.4708C1.44688 6.3333 1.45625 6.08018 1.49375 5.23955C1.52813 4.4583 1.65938 4.03643 1.76875 3.75518C1.9125 3.3833 2.0875 3.11455 2.36563 2.83643C2.64688 2.55518 2.9125 2.3833 3.28438 2.23955C3.56563 2.13018 3.99063 1.99893 4.76875 1.96455C5.60938 1.92705 5.8625 1.91768 8 1.91768ZM8 0.477051C5.82813 0.477051 5.55625 0.486426 4.70313 0.523926C3.85313 0.561426 3.26875 0.698926 2.7625 0.895801C2.23438 1.10205 1.7875 1.37393 1.34375 1.8208C0.896875 2.26455 0.625 2.71143 0.41875 3.23643C0.221875 3.7458 0.084375 4.32705 0.046875 5.17705C0.009375 6.0333 0 6.30518 0 8.47705C0 10.6489 0.009375 10.9208 0.046875 11.7739C0.084375 12.6239 0.221875 13.2083 0.41875 13.7146C0.625 14.2427 0.896875 14.6896 1.34375 15.1333C1.7875 15.5771 2.23438 15.8521 2.75938 16.0552C3.26875 16.2521 3.85 16.3896 4.7 16.4271C5.55313 16.4646 5.825 16.4739 7.99688 16.4739C10.1688 16.4739 10.4406 16.4646 11.2938 16.4271C12.1438 16.3896 12.7281 16.2521 13.2344 16.0552C13.7594 15.8521 14.2063 15.5771 14.65 15.1333C15.0938 14.6896 15.3688 14.2427 15.5719 13.7177C15.7688 13.2083 15.9063 12.6271 15.9438 11.7771C15.9813 10.9239 15.9906 10.6521 15.9906 8.48018C15.9906 6.3083 15.9813 6.03643 15.9438 5.1833C15.9063 4.3333 15.7688 3.74893 15.5719 3.24268C15.375 2.71143 15.1031 2.26455 14.6563 1.8208C14.2125 1.37705 13.7656 1.10205 13.2406 0.898926C12.7313 0.702051 12.15 0.564551 11.3 0.527051C10.4438 0.486426 10.1719 0.477051 8 0.477051Z" fill="white"/>
<path d="M8 4.36768C5.73125 4.36768 3.89062 6.2083 3.89062 8.47705C3.89062 10.7458 5.73125 12.5864 8 12.5864C10.2688 12.5864 12.1094 10.7458 12.1094 8.47705C12.1094 6.2083 10.2688 4.36768 8 4.36768ZM8 11.1427C6.52813 11.1427 5.33437 9.94893 5.33437 8.47705C5.33437 7.00518 6.52813 5.81143 8 5.81143C9.47188 5.81143 10.6656 7.00518 10.6656 8.47705C10.6656 9.94893 9.47188 11.1427 8 11.1427Z" fill="white"/>
<path d="M13.2312 4.20547C13.2312 4.73672 12.8 5.16485 12.2719 5.16485C11.7406 5.16485 11.3125 4.7336 11.3125 4.20547C11.3125 3.67422 11.7438 3.24609 12.2719 3.24609C12.8 3.24609 13.2312 3.67734 13.2312 4.20547Z" fill="white"/>
</svg>
