<svg width="183" height="32" viewBox="0 0 183 32" fill="none" xmlns="http://www.w3.org/2000/svg">
<path d="M167.999 8.7206V7.78505H174.213V10.5249C175.572 8.47558 177.187 7.45093 179.058 7.45093C179.749 7.45093 180.417 7.67368 181.063 8.11918C181.709 8.5424 182.244 9.3443 182.667 10.5249L179.693 12.1287C179.381 11.2154 179.014 10.6028 178.591 10.291C178.19 9.95686 177.755 9.7898 177.287 9.7898C176.797 9.7898 176.318 9.94572 175.851 10.2576C175.383 10.5694 174.904 11.1486 174.414 11.995V21.9185C174.414 22.6758 174.447 23.1325 174.514 23.2884C174.581 23.4221 174.793 23.5112 175.149 23.5557L177.655 23.7896V24.7251H167.999V23.7896L169.836 23.5557C170.193 23.5112 170.404 23.4221 170.471 23.2884C170.538 23.1325 170.572 22.6758 170.572 21.9185V10.5917C170.572 9.83435 170.538 9.38885 170.471 9.2552C170.404 9.09927 170.193 8.99904 169.836 8.95449L167.999 8.7206Z" fill="black"/>
<path d="M166.724 15.9043V16.5725C166.724 19.1341 166.056 21.1946 164.719 22.7538C163.405 24.2908 161.523 25.0593 159.072 25.0593C156.622 25.0593 154.729 24.2908 153.392 22.7538C152.078 21.1946 151.421 19.1341 151.421 16.5725V15.9043C151.421 13.3426 152.078 11.2934 153.392 9.75638C154.729 8.21941 156.622 7.45093 159.072 7.45093C161.523 7.45093 163.405 8.21941 164.719 9.75638C166.056 11.2934 166.724 13.3426 166.724 15.9043ZM162.614 15.236C162.614 12.8526 162.313 11.1597 161.712 10.1573C161.11 9.13268 160.231 8.62036 159.072 8.62036C157.936 8.62036 157.056 9.13268 156.433 10.1573C155.831 11.1597 155.531 12.8526 155.531 15.236V17.2408C155.531 19.6019 155.831 21.3059 156.433 22.3529C157.056 23.3775 157.936 23.8898 159.072 23.8898C160.231 23.8898 161.11 23.3775 161.712 22.3529C162.313 21.3059 162.614 19.6019 162.614 17.2408V15.236Z" fill="black"/>
<path d="M143.149 8.62036C142.08 8.62036 141.278 9.13268 140.743 10.1573C140.231 11.1597 139.975 12.8526 139.975 15.236V17.2408C139.975 19.6019 140.276 21.3059 140.877 22.3529C141.479 23.3775 142.459 23.8898 143.817 23.8898C144.82 23.8898 145.633 23.6114 146.256 23.0545C146.902 22.4754 147.27 21.5064 147.359 20.1476L149.497 20.7491C149.097 22.3083 148.361 23.4221 147.292 24.0903C146.245 24.7363 145.009 25.0593 143.583 25.0593C141.022 25.0593 139.095 24.2908 137.803 22.7538C136.511 21.1946 135.865 19.1341 135.865 16.5725V15.9043C135.865 13.3426 136.489 11.2934 137.736 9.75638C138.984 8.21941 140.788 7.45093 143.149 7.45093C144.708 7.45093 145.978 7.76278 146.958 8.38648C147.961 8.9879 148.662 9.7898 149.063 10.7922C149.486 11.7723 149.598 12.8303 149.397 13.9663L145.722 14.5009C145.967 12.6298 145.867 11.182 145.421 10.1573C144.976 9.13268 144.218 8.62036 143.149 8.62036Z" fill="black"/>
<path d="M133.462 20.7491C133.061 22.3083 132.314 23.4221 131.223 24.0903C130.132 24.7363 128.862 25.0593 127.414 25.0593C124.741 25.0593 122.736 24.2908 121.4 22.7538C120.063 21.1946 119.395 19.1341 119.395 16.5725V15.9043C119.395 13.3426 120.019 11.2934 121.266 9.75638C122.536 8.21941 124.362 7.45093 126.746 7.45093C128.082 7.45093 129.263 7.71823 130.287 8.25282C131.334 8.76515 132.147 9.51136 132.727 10.4915C133.328 11.4716 133.629 12.6633 133.629 14.0666C133.629 14.4007 133.606 14.7571 133.562 15.1358C133.54 15.5145 133.484 15.8931 133.395 16.2718H123.505V17.2408C123.505 19.6019 123.839 21.3059 124.507 22.3529C125.175 23.3775 126.256 23.8898 127.748 23.8898C128.706 23.8898 129.519 23.6114 130.187 23.0545C130.855 22.4754 131.234 21.5064 131.323 20.1476L133.462 20.7491ZM126.746 8.62036C125.654 8.62036 124.841 9.12155 124.307 10.1239C123.772 11.1263 123.505 12.7858 123.505 15.1024H129.552C129.641 14.6569 129.697 14.2448 129.719 13.8661C129.764 13.4652 129.786 13.0976 129.786 12.7635C129.786 11.3379 129.508 10.291 128.951 9.62273C128.394 8.95449 127.659 8.62036 126.746 8.62036Z" fill="black"/>
<path d="M118.306 23.7896V24.7252H112.091V21.9519C111.467 22.9766 110.766 23.7562 109.986 24.2908C109.229 24.8031 108.327 25.0593 107.28 25.0593C105.409 25.0593 103.916 24.3242 102.802 22.8541C101.711 21.3617 101.165 19.2789 101.165 16.606V15.9377C101.165 13.3538 101.8 11.2934 103.07 9.75642C104.362 8.21945 106.121 7.45096 108.349 7.45096C109.685 7.45096 110.866 7.78509 111.891 8.45333V2.80664C111.891 2.04929 111.857 1.60379 111.79 1.47014C111.724 1.31422 111.512 1.21398 111.156 1.16943L109.318 0.935547V0H115.733V21.9185C115.733 22.6759 115.767 23.1325 115.833 23.2884C115.9 23.4221 116.112 23.5112 116.468 23.5557L118.306 23.7896ZM105.275 17.6083C105.275 19.6799 105.531 21.1946 106.043 22.1524C106.556 23.1102 107.257 23.5891 108.148 23.5891C108.705 23.5891 109.284 23.3664 109.886 22.9209C110.51 22.4531 111.178 21.5176 111.891 20.1143V10.0237C111.044 9.17727 110.008 8.75405 108.783 8.75405C107.558 8.75405 106.667 9.31092 106.11 10.4247C105.553 11.5161 105.275 13.0197 105.275 14.9353V17.6083Z" fill="black"/>
<path d="M81.7273 0.935547V0H88.1425V16.205L94.023 10.5917C94.8027 9.85666 95.2148 9.41116 95.2593 9.25523C95.3261 9.09931 95.1702 8.99907 94.7915 8.95452L92.9539 8.72063V7.78509H99.8034V8.72063L97.9657 8.95452C97.7652 8.9768 97.5982 9.02135 97.4645 9.08817C97.3309 9.15499 97.1415 9.29978 96.8965 9.52253C96.6515 9.72301 96.2617 10.0794 95.7271 10.5917L92.5195 13.6657L97.2641 21.9185C97.5759 22.4309 97.8098 22.7984 97.9657 23.0211C98.1216 23.2216 98.2664 23.3553 98.4001 23.4221C98.556 23.4666 98.7453 23.5112 98.9681 23.5557L100.806 23.7896V24.7252H94.424L89.7797 16.2718L88.1425 17.8422V21.9185C88.1425 22.6759 88.1759 23.1325 88.2427 23.2884C88.3095 23.4221 88.5211 23.5112 88.8775 23.5557L90.7152 23.7896V24.7252H81.7273V23.7896L83.565 23.5557C83.9214 23.5112 84.133 23.4221 84.1998 23.2884C84.2666 23.1325 84.3 22.6759 84.3 21.9185V2.80664C84.3 2.04929 84.2666 1.60379 84.1998 1.47014C84.133 1.31422 83.9214 1.21398 83.565 1.16943L81.7273 0.935547Z" fill="black"/>
<path d="M74.6584 8.62036C73.5892 8.62036 72.7873 9.13268 72.2527 10.1573C71.7404 11.1597 71.4842 12.8526 71.4842 15.236V17.2408C71.4842 19.6019 71.7849 21.3059 72.3864 22.3529C72.9878 23.3775 73.9679 23.8898 75.3267 23.8898C76.329 23.8898 77.1421 23.6114 77.7658 23.0545C78.4117 22.4754 78.7793 21.5064 78.8684 20.1476L81.0068 20.7491C80.6058 22.3083 79.8708 23.4221 78.8016 24.0903C77.7546 24.7363 76.5184 25.0593 75.0928 25.0593C72.5312 25.0593 70.6044 24.2908 69.3124 22.7538C68.0205 21.1946 67.3745 19.1341 67.3745 16.5725V15.9043C67.3745 13.3426 67.9982 11.2934 69.2456 9.75638C70.493 8.21941 72.2973 7.45093 74.6584 7.45093C76.2177 7.45093 77.4873 7.76278 78.4674 8.38648C79.4698 8.9879 80.1715 9.7898 80.5724 10.7922C80.9956 11.7723 81.107 12.8303 80.9065 13.9663L77.2312 14.5009C77.4762 12.6298 77.376 11.182 76.9305 10.1573C76.485 9.13268 75.7276 8.62036 74.6584 8.62036Z" fill="black"/>
<path d="M61.7861 4.91166C61.0956 4.91166 60.5387 4.70005 60.1155 4.27682C59.6923 3.83132 59.4806 3.26331 59.4806 2.57279C59.4806 1.88227 59.6923 1.32539 60.1155 0.90217C60.5387 0.478946 61.0956 0.267334 61.7861 0.267334C62.4543 0.267334 63.0112 0.478946 63.4567 0.90217C63.9022 1.32539 64.125 1.88227 64.125 2.57279C64.125 3.26331 63.9022 3.83132 63.4567 4.27682C63.0112 4.70005 62.4543 4.91166 61.7861 4.91166ZM57.3088 8.72067V7.78512H63.724V21.9186C63.724 22.6759 63.7574 23.1326 63.8243 23.2885C63.8911 23.4221 64.1027 23.5112 64.4591 23.5558L66.2968 23.7897V24.7252H57.3088V23.7897L59.1465 23.5558C59.5029 23.5112 59.7145 23.4221 59.7814 23.2885C59.8482 23.1326 59.8816 22.6759 59.8816 21.9186V10.5918C59.8816 9.83442 59.8482 9.38892 59.7814 9.25527C59.7145 9.09934 59.5029 8.99911 59.1465 8.95456L57.3088 8.72067Z" fill="black"/>
<path d="M57.2059 23.7897V24.7252H50.9912V21.785C50.3675 22.921 49.5656 23.7563 48.5855 24.2909C47.6054 24.8032 46.6142 25.0594 45.6118 25.0594C44.0303 25.0594 42.7717 24.5359 41.8362 23.489C40.9006 22.4198 40.4329 20.9385 40.4329 19.0451V10.5918C40.4329 9.83445 40.3995 9.38895 40.3326 9.2553C40.2658 9.09938 40.0542 8.99914 39.6978 8.95459L37.8601 8.7207V7.78516H44.2753V19.0117C44.2753 20.5487 44.4869 21.6736 44.9101 22.3864C45.3556 23.0769 45.9905 23.4222 46.8146 23.4222C47.171 23.4222 47.5831 23.3331 48.0509 23.1549C48.5409 22.9544 49.031 22.6091 49.521 22.1191C50.0111 21.6068 50.4343 20.8828 50.7907 19.9473V10.5918C50.7907 9.83445 50.7573 9.37781 50.6905 9.22189C50.6236 9.06597 50.412 8.97687 50.0556 8.95459L47.5497 8.7207V7.78516H54.6331V21.9186C54.6331 22.6759 54.6665 23.1326 54.7334 23.2885C54.8002 23.4222 55.0118 23.5113 55.3682 23.5558L57.2059 23.7897Z" fill="black"/>
<path d="M38.4352 30.9064V31.842H28.7791V30.9064L31.285 30.6725C31.6414 30.628 31.853 30.5278 31.9198 30.3718C31.9866 30.2382 32.0201 29.7927 32.0201 29.0353V22.2526C31.4186 23.1882 30.7392 23.8898 29.9819 24.3576C29.2468 24.8254 28.3892 25.0593 27.4091 25.0593C25.5381 25.0593 24.0456 24.3242 22.9319 22.854C21.8404 21.3616 21.2947 19.2789 21.2947 16.6059V15.9377C21.2947 13.3538 21.9295 11.2934 23.1992 9.75638C24.4911 8.21941 26.2508 7.45093 28.4783 7.45093C30.1935 7.45093 31.5968 7.96325 32.6883 8.9879C33.0893 8.83197 33.4791 8.64264 33.8577 8.41989C34.2364 8.17486 34.6039 7.90756 34.9603 7.61799H35.8625V29.0353C35.8625 29.7927 35.8959 30.2382 35.9627 30.3718C36.0295 30.5278 36.2412 30.628 36.5976 30.6725L38.4352 30.9064ZM25.4044 17.6083C25.4044 19.6799 25.6606 21.1946 26.1729 22.1524C26.6852 23.1102 27.3869 23.5891 28.2779 23.5891C28.8347 23.5891 29.4139 23.3664 30.0153 22.9209C30.639 22.4531 31.3073 21.5175 32.0201 20.1142V10.0237C31.1736 9.17724 30.1378 8.75401 28.9127 8.75401C27.6876 8.75401 26.7966 9.31088 26.2397 10.4246C25.6828 11.5161 25.4044 13.0197 25.4044 14.9353V17.6083Z" fill="black"/>
<path d="M17.6752 17.7086H13.6991L11.427 25.0593L10.2242 24.6918L12.3626 17.7086H4.94503L2.67299 25.0593L1.47015 24.6918L3.60854 17.7086H0V16.5392H3.97608L5.94741 10.1908H2.30546V9.02138H6.28153L8.55357 1.67065L9.75642 2.03819L7.61803 9.02138H15.0356L17.3076 1.67065L18.5105 2.03819L16.3721 9.02138H19.9806V10.1908H16.0045L14.0332 16.5392H17.6752V17.7086ZM5.27916 16.5392H12.7301L14.7015 10.1908H7.25049L5.27916 16.5392Z" fill="black"/>
</svg>
