<svg width="18" height="18" viewBox="0 0 18 18" fill="none" xmlns="http://www.w3.org/2000/svg">
<path d="M7.1375 0C5.30821 0 3.47852 0.695067 2.08705 2.08653C-0.69575 4.86947 -0.695616 9.4044 2.08705 12.1873C4.86971 14.9704 9.40408 14.9704 12.1867 12.1873C14.9695 9.4044 14.9695 4.8696 12.1867 2.08653C10.7954 0.695067 8.96679 0 7.1375 0ZM7.1375 1.43493C8.59416 1.43493 10.0508 1.9928 11.1662 3.10827C13.3972 5.33933 13.3972 8.93533 11.1662 11.1664C8.93519 13.3976 5.33967 13.3976 3.10882 11.1664C0.877832 8.93533 0.877832 5.33933 3.10882 3.10827C4.22431 1.99267 5.68097 1.43493 7.1375 1.43493ZM13.5238 11.9883C13.3052 12.2784 13.0745 12.5599 12.8175 12.8167C12.5606 13.0737 12.2791 13.3045 11.9892 13.5232L16.1476 17.682C16.3511 17.8856 16.6271 17.9999 16.915 17.9999C17.2028 17.9999 17.4788 17.8856 17.6824 17.682C17.8859 17.4784 18.0002 17.2024 18.0002 16.9145C18.0002 16.6267 17.8859 16.3507 17.6824 16.1471L13.5239 11.9883H13.5238Z" fill="#858585"/>
</svg>
