<svg width="95" height="54" viewBox="0 0 95 54" fill="none" xmlns="http://www.w3.org/2000/svg">
<g clip-path="url(#clip0_311_322)">
<path d="M27.3618 48.3836C26.6923 46.8778 26.2254 45.3028 25.6793 43.7538C25.6264 43.4942 25.5824 43.2259 25.415 43.0095C25.2564 42.5249 25.1066 42.0317 24.9481 41.547C24.904 41.3826 24.8512 41.2182 24.8071 41.0538C24.7543 40.8893 24.7014 40.7336 24.6486 40.5692C24.5252 40.1797 24.4019 39.799 24.2874 39.4095C24.1993 39.1586 24.1024 38.9076 24.0319 38.648C23.2214 35.7749 22.2436 32.9451 21.5036 30.0461C21.4155 29.7172 21.2305 29.6307 20.9486 29.6567C20.6139 29.6826 20.2879 29.7778 20.006 29.9682C19.8651 30.0634 19.7858 30.1932 19.777 30.3663C19.777 30.6086 19.777 30.8595 19.7506 31.0932C19.5744 32.2268 19.3365 33.3518 19.0106 34.4509C18.9313 34.7192 18.8872 34.9874 18.8344 35.2643C18.7992 35.4201 18.8432 35.5413 19.0106 35.5932C19.4422 35.7317 20.5258 35.4807 20.6227 34.8143C20.6579 34.5893 20.6932 34.347 20.8341 34.1134C20.8782 34.2518 20.9134 34.3557 20.9398 34.4595C22.3141 39.3317 23.7676 44.1692 25.5471 48.9115C25.644 49.1624 25.7762 49.3095 26.0492 49.3268C26.4633 49.3528 26.8421 49.2403 27.1768 48.998C27.3883 48.8422 27.4676 48.6432 27.353 48.3836H27.3618Z" fill="#ED1C24"/>
<path d="M49.2266 46.7827C45.1831 41.5558 41.1308 36.3375 37.0521 31.1192C35.9509 29.7086 34.8498 28.2808 33.6693 26.9308C40.1354 26.6019 46.6014 26.2644 53.0763 25.9875C53.1027 25.9875 53.0763 25.9529 53.0763 25.9529C46.5398 26.2125 40.0121 26.4288 33.4931 26.6365C33.2465 26.6365 33.2905 26.9481 33.5284 26.9394H33.59C35.3607 29.5961 37.3957 32.0971 39.3337 34.6413C41.3423 37.2894 43.3684 39.9202 45.3858 42.5596C46.5486 44.0654 47.6938 45.5711 48.8566 47.0769C49.0328 47.3106 49.4204 47.0423 49.2266 46.7827Z" fill="#010101" stroke="#231F20" stroke-width="0.5" stroke-miterlimit="10"/>
<path d="M72.9678 43.7884C72.9238 43.7106 72.8709 43.6327 72.8357 43.5461C69.0301 44.0221 65.2244 44.5067 61.4188 45.0086C59.4543 45.2596 57.481 45.5192 55.5165 45.7875C53.4904 46.0644 51.4554 46.2808 49.4381 46.6529C49.2531 46.6875 49.3324 46.9125 49.4997 46.8952C51.5435 46.7394 53.5873 46.4365 55.6222 46.1856C57.5955 45.9433 59.5688 45.701 61.5333 45.45C65.3654 44.9654 69.1886 44.4721 73.0119 43.9702C72.9943 43.9096 72.9766 43.849 72.9678 43.7798V43.7884Z" fill="#010101" stroke="#231F20" stroke-width="0.5" stroke-miterlimit="10"/>
<path d="M64.1321 32.9279C63.8942 32.4779 60.0181 27.7962 59.7009 27.4067C59.3486 26.9654 58.9962 26.5327 58.5822 26.1433C58.5469 26.1087 58.4853 26.1433 58.5117 26.1865C58.7583 26.6798 59.0755 27.1298 59.4014 27.5798C59.7009 27.9952 63.489 32.7375 63.8413 33.0923C63.9735 33.2221 64.229 33.1096 64.1321 32.9192V32.9279Z" fill="#010101" stroke="#231F20" stroke-width="0.5" stroke-miterlimit="10"/>
<path d="M72.7828 43.7451C72.5362 43.1652 72.0076 42.6633 71.6112 42.1701C71.1795 41.6249 70.7479 41.0797 70.3162 40.5258C69.4441 39.4354 68.5808 38.3451 67.7175 37.2547C66.8453 36.1643 65.982 35.0652 65.0923 34.0008C64.6694 33.4902 64.2466 32.9883 63.8149 32.4777C63.3921 31.9845 62.978 31.3874 62.4407 31.0066C62.4407 31.0066 62.3878 31.0066 62.4054 31.0326C62.6168 31.5951 63.0837 32.1056 63.4361 32.5989C63.8413 33.1527 64.2554 33.7066 64.6694 34.2604C65.4975 35.3681 66.352 36.4585 67.1977 37.5489C68.061 38.6393 68.9243 39.747 69.7788 40.8374C70.2105 41.3826 70.6422 41.9277 71.0738 42.4816C71.4879 43.0095 71.8755 43.6326 72.404 44.0479C72.6243 44.221 72.8709 43.9787 72.7828 43.7537V43.7451Z" fill="#010101" stroke="#231F20" stroke-width="0.5" stroke-miterlimit="10"/>
<path d="M58.2122 25.6153C56.97 25.5807 54.8294 25.8316 53.6137 25.9961V26.022C54.847 26.0739 57.0229 26.1259 58.2562 25.9874C58.4941 25.9614 58.4324 25.6326 58.221 25.6239L58.2122 25.6153Z" fill="#010101" stroke="#231F20" stroke-width="0.5" stroke-miterlimit="10"/>
<path d="M43.9939 16.027H43.9763C43.9763 16.027 43.9763 16.0529 43.9851 16.0702C43.9322 16.1481 43.8882 16.226 43.8353 16.3039C43.7737 16.3991 43.9322 16.4943 44.0027 16.4077C44.0203 16.3818 44.0379 16.3472 44.0644 16.3212C44.3639 17.3164 44.6634 18.3808 45.1567 19.2895C45.2096 19.3847 45.3858 19.3501 45.3505 19.2376C45.1039 18.2164 44.5753 17.2126 44.1084 16.2606C47.315 11.6914 50.3807 6.99236 53.4199 2.31063L53.3847 2.28467C50.2045 6.82794 47.0243 11.3885 44.0115 16.0529C44.0115 16.0529 44.0115 16.0443 44.0115 16.0356L43.9939 16.027Z" fill="#010101" stroke="#231F20" stroke-width="0.5" stroke-miterlimit="10"/>
<path d="M50.2838 16.8317C49.905 17.3855 49.4381 17.9307 49.1121 18.5105C49.0945 18.4846 49.0681 18.4673 49.0329 18.4759C47.87 18.6576 46.7336 19.0125 45.606 19.3153V19.3413C46.7512 19.1336 47.9141 18.9692 49.0329 18.649C49.0329 18.649 49.0329 18.6576 49.024 18.6663C48.936 18.8394 49.2267 18.9173 49.3324 18.8048C49.8257 18.2596 50.2045 17.5413 50.6273 16.9355C51.059 16.3125 51.4907 15.6807 51.9135 15.0576C52.7504 13.8288 53.5873 12.5913 54.4242 11.3711C56.1156 8.88745 57.807 6.4038 59.4807 3.90284C59.4807 3.90284 59.4543 3.86822 59.4455 3.87688C57.6748 6.35188 55.9306 8.84418 54.1863 11.3192C53.3054 12.5567 52.4333 13.8028 51.5523 15.049C51.1383 15.6461 50.7154 16.2432 50.3014 16.8317H50.2838Z" fill="#010101" stroke="#231F20" stroke-width="0.5" stroke-miterlimit="10"/>
<path d="M34.9291 31.725C35.9069 30.3664 36.6733 28.8433 37.5454 27.4327C38.4264 26.0048 39.2985 24.577 40.1618 23.1404C40.1618 23.1404 40.1442 23.1145 40.1354 23.1231C39.228 24.5683 38.3295 26.0221 37.4309 27.476C36.5588 28.8693 35.5545 30.2279 34.8145 31.6818C34.8145 31.6818 34.885 31.7856 34.9203 31.7337L34.9291 31.725Z" fill="#010101" stroke="#231F20" stroke-width="0.5" stroke-miterlimit="10"/>
<path d="M34.4358 31.846C34.4358 31.846 34.471 31.9066 34.4798 31.8807C35.2638 30.5133 36.0126 29.1201 36.779 27.7268C35.995 29.0855 35.2022 30.4614 34.4446 31.846H34.4358Z" fill="#010101" stroke="#231F20" stroke-width="0.5" stroke-miterlimit="10"/>
<path d="M42.602 21.8508C40.6728 25.0008 38.8404 28.2028 36.9993 31.4047C36.9993 31.4047 37.0257 31.4479 37.0345 31.4306C38.9285 28.2547 40.8313 25.0874 42.6284 21.8595H42.602V21.8508Z" fill="#010101" stroke="#231F20" stroke-width="0.5" stroke-miterlimit="10"/>
<path d="M40.5318 23.7461C41.6418 21.8249 42.6637 19.8432 43.6768 17.8701L43.6415 17.8528C42.5668 19.7826 41.492 21.7384 40.523 23.7287L40.5406 23.7461H40.5318Z" fill="#010101" stroke="#231F20" stroke-width="0.5" stroke-miterlimit="10"/>
<path d="M43.2098 17.4202C42.6372 18.3029 42.0734 19.1856 41.5096 20.0682L41.5361 20.0856C42.1087 19.2115 42.6637 18.3202 43.2275 17.4288C43.2275 17.4288 43.2098 17.4115 43.2098 17.4288V17.4202Z" fill="#010101" stroke="#231F20" stroke-width="0.5" stroke-miterlimit="10"/>
<path d="M39.7038 19.7826C40.1354 19.1249 40.5406 18.4586 40.9723 17.7922L40.9459 17.7749C40.5142 18.4326 40.0649 19.0816 39.6421 19.748C39.6421 19.748 39.6773 19.8086 39.6949 19.7826H39.7038Z" fill="#010101" stroke="#231F20" stroke-width="0.5" stroke-miterlimit="10"/>
<path d="M40.0649 32.4085C40.0649 32.4085 40.0649 32.4345 40.0825 32.4085C42.188 30.1412 44.267 27.8393 46.3636 25.5547C44.267 27.8306 42.1527 30.1066 40.0737 32.3999L40.0649 32.4085Z" fill="#010101" stroke="#231F20" stroke-width="0.5" stroke-miterlimit="10"/>
<path d="M39.783 31.6124C41.1132 30.1326 42.4258 28.6614 43.7296 27.1816H43.712C42.3906 28.6355 41.0692 30.098 39.7654 31.5778C39.7478 31.5951 39.783 31.6124 39.783 31.6124Z" fill="#010101" stroke="#231F20" stroke-width="0.5" stroke-miterlimit="10"/>
<path d="M39.0342 31.4135C41.122 28.3068 43.1041 25.1655 45.1215 22.0674H45.1039C43.0689 25.1568 40.9899 28.2289 38.999 31.353C38.9726 31.3876 39.0342 31.4135 39.0342 31.4135Z" fill="#010101" stroke="#231F20" stroke-width="0.5" stroke-miterlimit="10"/>
<path d="M41.4568 25.65C41.8797 25.0962 42.3113 24.5337 42.7342 23.9712C42.3025 24.5337 41.8797 25.0962 41.448 25.6587C41.448 25.6587 41.448 25.6587 41.4656 25.6587L41.4568 25.65Z" fill="#010101" stroke="#231F20" stroke-width="0.5" stroke-miterlimit="10"/>
<path d="M37.5983 34.3125C37.9419 33.8019 38.2766 33.3173 38.6202 32.824C38.6202 32.824 38.6026 32.7981 38.5938 32.824C38.259 33.3087 37.9154 33.7933 37.5807 34.2865C37.5631 34.3038 37.5983 34.3212 37.5983 34.3212V34.3125Z" fill="#010101" stroke="#231F20" stroke-width="0.5" stroke-miterlimit="10"/>
<path d="M42.3113 31.725L42.3289 31.7769C42.9632 31.1625 43.571 30.5567 44.1701 29.9509C44.1701 29.9509 44.1701 29.9163 44.1525 29.925C43.5446 30.5221 42.9192 31.1105 42.3113 31.7163V31.725Z" fill="#010101" stroke="#231F20" stroke-width="0.5" stroke-miterlimit="10"/>
<path d="M49.0416 19.7393C47.3679 21.7816 45.7029 23.8239 44.0644 25.9009C44.0644 25.9009 44.0996 25.9787 44.1348 25.9441C45.8086 23.8932 47.4383 21.8249 49.0681 19.7566C49.0681 19.7566 49.0505 19.7307 49.0416 19.7393Z" fill="#010101" stroke="#231F20" stroke-width="0.5" stroke-miterlimit="10"/>
<path d="M47.2181 19.7393C46.8217 20.2759 46.4253 20.8124 46.0465 21.3489L46.0905 21.3835C46.4781 20.847 46.8569 20.3018 47.2357 19.7566C47.2357 19.7566 47.2357 19.7307 47.2181 19.7393Z" fill="#010101" stroke="#231F20" stroke-width="0.5" stroke-miterlimit="10"/>
<path d="M50.1604 24.7414C50.7683 24.1356 51.3673 23.5212 51.9399 22.8808L51.9135 22.8635C51.2704 23.4347 50.6626 24.0318 50.0547 24.6462C49.993 24.7068 50.09 24.802 50.1604 24.7501V24.7414Z" fill="#010101" stroke="#231F20" stroke-width="0.5" stroke-miterlimit="10"/>
<path d="M67.3651 6.44707C65.9732 8.0913 64.6078 9.75284 63.2511 11.423C64.4668 9.83938 65.6825 8.25572 66.863 6.64611C66.8806 6.6288 66.8453 6.61149 66.8277 6.6288C64.3259 9.56245 61.9033 12.548 59.4807 15.5336C58.2738 17.0134 57.0934 18.5019 55.8953 19.9903C55.2611 20.7778 54.6092 21.5653 53.9661 22.3528C53.8956 22.3528 53.8251 22.3528 53.7547 22.3528C53.737 22.3269 53.7106 22.3096 53.693 22.3269C53.693 22.3269 53.6754 22.3442 53.6666 22.3528C52.4244 22.3528 51.1647 22.3182 49.9578 22.4567C50.0195 21.9375 49.905 21.375 49.8521 20.8644C49.7904 20.2673 49.7112 19.6615 49.6055 19.073H49.5702C49.5702 19.6009 49.5878 20.1461 49.6143 20.6826C49.6319 20.9596 49.6407 21.2451 49.6583 21.5307C49.1562 22.0673 48.654 22.5951 48.1695 23.1403C48.1431 23.1663 48.1871 23.1923 48.2048 23.175C48.6981 22.6471 49.1738 22.1105 49.6583 21.5653C49.6759 21.8769 49.7112 22.1884 49.7993 22.4826C49.8257 22.5432 49.9138 22.5778 49.949 22.5173C50.09 22.5346 50.2397 22.5432 50.3807 22.5519C49.5878 23.4 48.8038 24.248 48.011 25.1048L48.0286 25.1307C48.8302 24.274 49.6143 23.4086 50.3983 22.5605C51.3937 22.6471 52.3892 22.6471 53.3935 22.6384C52.7328 23.2875 52.0809 23.9451 51.4466 24.6115C51.3761 24.6894 51.5347 24.8019 51.6052 24.7326C52.2747 24.0403 52.9266 23.3394 53.5785 22.6298C53.6401 22.6298 53.693 22.6298 53.7547 22.6298C53.3054 23.1923 52.8561 23.7548 52.4244 24.3259C48.055 28.2461 43.6856 32.1663 39.3249 36.0865C39.4923 35.8009 39.6597 35.5153 39.8271 35.2471C39.8799 35.1605 39.8095 35.074 39.7302 35.048C43.1394 31.8461 46.3812 28.4711 49.6671 25.1394H49.6495C46.205 28.4625 42.6989 31.7596 39.3866 35.2298C39.2721 35.325 39.1488 35.4115 39.0342 35.5067C38.9638 35.4894 38.8933 35.4894 38.8316 35.5413C38.4352 35.8528 38.0212 36.1644 37.6159 36.4846C37.704 36.3548 37.7833 36.2249 37.8714 36.0951C38.215 35.6538 38.5585 35.1865 38.8492 34.7105C38.8492 34.7105 38.8933 34.6673 38.9197 34.6413L38.9461 34.5375C38.9814 34.4855 39.0078 34.4336 39.043 34.373C39.043 34.373 39.0254 34.3384 39.0166 34.3471C38.9814 34.3903 38.9373 34.4336 38.9021 34.4769C38.9021 34.4769 38.8845 34.4769 38.8757 34.4769C39.3073 33.9923 39.7302 33.499 40.153 33.0144C40.153 32.9971 40.153 32.9884 40.1354 32.9971C39.6685 33.5076 39.1928 34.0096 38.7259 34.5201C37.9771 34.9442 37.2724 35.524 36.6029 36.1124C36.6998 35.9653 36.7967 35.8269 36.8848 35.6798C37.105 35.3942 37.3164 35.1 37.5014 34.7884C37.5543 34.7019 37.6071 34.624 37.6776 34.5461C37.6776 34.5461 37.6512 34.5115 37.6424 34.5288H37.6071C37.5366 34.5894 37.4662 34.65 37.3957 34.7105C37.4309 34.6586 37.475 34.6067 37.5102 34.5461C37.5102 34.5461 37.4926 34.5028 37.475 34.5115C36.9905 34.9701 36.5588 35.4634 36.1183 35.948C36.506 35.2384 36.8671 34.5028 37.1667 33.75C37.1667 33.7153 37.1138 33.6894 37.0962 33.7153C36.9552 33.9317 36.8319 34.1567 36.6998 34.373C36.7086 34.3471 36.7262 34.3125 36.735 34.2865C36.8407 34.1134 36.9288 33.949 37.0169 33.7673C37.0169 33.7673 37.0169 33.7586 36.9993 33.75C37.0345 33.7067 37.0697 33.6721 37.105 33.6288C37.1667 33.5509 37.0257 33.4644 36.964 33.5336C36.8936 33.6115 36.8319 33.698 36.7614 33.7759C37.3252 32.8932 37.8362 31.9932 38.3559 31.1192C38.3559 31.1192 38.3383 31.0846 38.3295 31.0932C37.6952 32.1144 37.0169 33.1182 36.4355 34.1653C36.3033 34.3298 36.18 34.4942 36.0567 34.6586C35.9333 34.8057 35.81 34.9615 35.6955 35.1086C35.9157 34.7105 36.1007 34.2951 36.2769 33.8711C36.3738 33.6721 36.4531 33.473 36.5236 33.2653C36.5852 33.1009 36.6557 32.9451 36.7262 32.7807C36.7438 32.7461 36.6733 32.7201 36.6733 32.7201C36.5676 32.9105 36.4531 33.1009 36.3386 33.2826C36.2417 33.4038 36.1448 33.5163 36.0655 33.6375H36.0479C36.2241 33.4038 36.3914 33.1528 36.4971 32.8932L36.4531 32.8586C36.1712 33.0317 35.9333 33.274 35.7043 33.525C35.6955 33.499 35.6514 33.4817 35.625 33.5076C35.5633 33.5855 35.5017 33.6721 35.4488 33.75C35.6162 33.5163 35.7748 33.2653 35.9422 33.023C35.9422 33.023 35.9245 32.9884 35.9157 33.0057C35.7572 33.1875 35.5986 33.3605 35.4488 33.5423C35.44 33.5423 35.4224 33.5423 35.4136 33.5596C35.396 33.5769 35.3872 33.6028 35.3695 33.6201C35.4224 33.4038 35.4664 33.1875 35.4753 32.9798C35.4841 32.9192 35.5105 32.8586 35.5105 32.798C35.5105 32.798 35.4753 32.7634 35.4576 32.7807C35.3519 32.9019 35.2462 33.049 35.1581 33.2048C35.1581 33.2048 35.1405 33.1701 35.1317 33.1701C35.3255 32.9278 35.5105 32.6855 35.6867 32.4346C35.6867 32.4259 35.7043 32.4086 35.7043 32.3999C35.7836 32.2874 35.8717 32.1663 35.9422 32.0538L35.9245 32.0365C36.3121 31.3961 36.6645 30.7211 37.0169 30.0721C37.4574 29.2759 37.8978 28.4884 38.3383 27.6923H38.3207C37.845 28.4884 37.3605 29.2932 36.8848 30.098C36.4355 30.8509 35.9245 31.5951 35.5545 32.374C35.1229 32.7894 34.7088 33.2307 34.3124 33.6721C34.2948 33.698 34.2684 33.724 34.2419 33.7413C34.1362 33.8365 34.0217 33.9317 33.9248 34.0355C33.9689 33.8798 34.0129 33.7153 34.057 33.5596C34.057 33.5336 34.0217 33.5249 34.0129 33.5423C34.0129 33.5423 34.0129 33.5509 34.0041 33.5596C34.0305 33.4384 34.057 33.3173 34.0922 33.1961H34.0746C34.0129 33.3432 33.9424 33.4817 33.8808 33.6288C33.9336 33.499 33.9953 33.3778 34.0393 33.2394C34.0393 33.2134 34.0041 33.2048 34.0041 33.2048C33.8103 33.4471 33.6429 33.6894 33.4843 33.9403H33.4667V33.9057H33.4403C33.6341 33.5855 33.8191 33.274 33.9953 32.9711L33.9689 32.9538C33.6253 33.3951 33.2641 33.8365 32.947 34.3125C32.991 34.1307 33.0174 33.9403 33.0527 33.7586C33.2553 33.3432 33.4403 32.9192 33.6429 32.5125C33.9953 31.7769 34.3212 31.024 34.6736 30.2798C34.9731 29.6134 35.2815 28.9384 35.581 28.2721C36.365 26.9826 37.0874 25.6846 37.8802 24.4211C38.9638 22.6817 40.0473 20.9423 41.0516 19.1509C41.0516 19.1509 41.034 19.1163 41.0163 19.1336C39.9064 20.8471 38.858 22.6211 37.8185 24.3865C37.2195 25.399 36.594 26.3855 35.9686 27.3894C36.2241 26.8269 36.4707 26.273 36.7262 25.7105C37.4045 24.1961 38.0916 22.673 38.77 21.15C39.1047 20.4057 39.4483 19.6615 39.783 18.9173C40.0914 18.2076 40.4437 17.5067 40.7256 16.7884C41.6858 16.598 42.6725 16.2259 43.571 15.8625C43.5975 15.8451 43.571 15.8192 43.5446 15.8192C42.6461 16.0355 41.6594 16.2951 40.7961 16.6759C42.6196 14.2442 44.3287 11.7086 46.0465 9.20765L48.8478 5.12303C49.3147 4.43938 49.7816 3.76438 50.2485 3.08072C50.3631 2.9163 50.4776 2.76053 50.5921 2.59611C50.6097 2.5788 50.6185 2.56149 50.6361 2.53553C50.7947 2.31053 50.9445 2.09418 51.0942 1.86918C51.429 1.39322 51.7637 0.925915 52.0809 0.4413C52.2218 0.233607 51.8783 0.034569 51.7285 0.2163C50.6802 1.57495 49.72 2.99418 48.7157 4.3788C47.7291 5.73745 46.76 7.12207 45.7822 8.48072C44.8044 9.84803 43.8265 11.224 42.8575 12.5913C42.3906 13.2576 41.8973 13.9413 41.4392 14.6163C41.1044 15.1182 40.7168 15.6375 40.4349 16.1913C40.4349 16.1913 40.3733 16.2346 40.3468 16.2778C39.5628 17.7144 38.999 19.3153 38.3295 20.8125C37.66 22.3355 36.9993 23.8586 36.3298 25.3903C35.766 26.6798 35.2022 27.9865 34.6384 29.2759C32.7972 33.2221 30.9649 37.1596 29.1237 41.1057C28.974 41.4346 28.7097 41.9798 28.5687 42.2913L28.1723 43.1394L28.1195 43.2519C28.1195 43.2519 28.0049 43.5115 27.9433 43.6499C27.9433 43.6499 27.908 43.6846 27.8992 43.7019C27.8552 43.7971 27.8111 43.8836 27.7671 43.9788V44.0134C27.3795 44.8701 26.983 45.7096 26.5954 46.549C26.5338 46.7653 26.4633 46.9817 26.3928 47.198C26.3576 47.2846 26.34 47.3711 26.3047 47.449C26.2783 47.5182 26.2695 47.5788 26.2431 47.6394C26.2166 47.7086 26.199 47.7692 26.1726 47.8384C26.1373 47.9249 26.1109 48.0115 26.0757 48.0807C26.1285 48.1153 26.1902 48.1326 26.2519 48.1326C26.2519 48.1326 26.3752 48.0374 26.4281 47.9942C26.4633 47.9682 26.4985 47.9423 26.4985 47.9423C26.5602 47.8471 26.5954 47.7865 26.6131 47.7259L26.6483 47.6913L26.7364 47.6394L26.754 47.6134C26.754 47.6134 26.7981 47.6134 26.8157 47.5961C26.8861 47.5355 26.9478 47.475 27.0183 47.4144C27.0271 47.4057 27.0447 47.4057 27.0535 47.3884C27.0799 47.3624 27.0976 47.3365 27.124 47.3192C27.309 47.1634 27.494 46.999 27.679 46.8346C28.4894 46.1596 29.2999 45.4673 30.0927 44.775L30.1368 44.7317C32.3391 42.8105 34.5062 40.8375 36.6998 38.899C39.228 36.6663 41.7475 34.4163 44.267 32.1749C45.5267 31.0586 46.7776 29.9509 48.0374 28.8346C49.5614 27.4846 51.0854 26.1346 52.6094 24.7759C52.6447 24.7586 52.6799 24.7413 52.7063 24.7067C52.7152 24.6894 52.7328 24.6721 52.7416 24.6634C53.1732 24.274 53.6137 23.8932 54.0454 23.5125C54.1335 23.4346 54.1511 23.3394 54.1158 23.2615C55.1906 22.1365 56.1596 20.873 57.1374 19.6701C58.3267 18.225 59.4983 16.7538 60.6524 15.2826C62.9516 12.3576 65.2861 9.45861 67.5237 6.50765C67.6294 6.38649 67.4003 6.25668 67.3034 6.36918L67.3651 6.44707ZM41.6594 15.2134C41.3951 15.6288 41.1309 16.0528 40.8666 16.4769C40.8578 16.4163 40.8313 16.3557 40.7873 16.3125C41.1044 15.9663 41.3863 15.5855 41.6594 15.2048V15.2134Z" fill="#010101" stroke="#231F20" stroke-width="0.5" stroke-miterlimit="10"/>
<path d="M34.4269 34.676C34.4622 34.6327 34.4798 34.5808 34.4798 34.5808C34.4798 34.5981 34.4534 34.6587 34.4357 34.7106C34.4357 34.7106 34.4357 34.6847 34.4357 34.676H34.4269Z" fill="#010101" stroke="#231F20" stroke-width="0.5" stroke-miterlimit="10"/>
<path d="M32.7444 34.771C32.762 34.7191 32.7708 34.6672 32.7972 34.6152C32.7884 34.6585 32.7708 34.7018 32.7708 34.7537C32.7708 34.7537 32.762 34.771 32.7532 34.7797L32.7444 34.771Z" fill="#010101" stroke="#231F20" stroke-width="0.5" stroke-miterlimit="10"/>
<path d="M35.1229 34.8664C35.1229 34.8664 35.1141 34.8664 35.1053 34.8664C35.2374 34.7106 35.3695 34.5462 35.4929 34.3818C35.5281 34.3385 35.5633 34.2952 35.5986 34.252C35.44 34.4596 35.2638 34.65 35.1141 34.8664H35.1229Z" fill="#010101" stroke="#231F20" stroke-width="0.5" stroke-miterlimit="10"/>
<path d="M35.4136 33.8453L35.4225 33.8364L35.4136 33.8453Z" fill="#010101" stroke="#231F20" stroke-width="0.5" stroke-miterlimit="10"/>
<path d="M33.8631 33.7585C33.8191 33.8624 33.775 33.9749 33.7398 34.0787C33.7839 33.9749 33.8279 33.8624 33.8719 33.7585H33.8631Z" fill="#010101" stroke="#231F20" stroke-width="0.5" stroke-miterlimit="10"/>
<path d="M94.3657 40.2663C91.6084 40.6211 85.8647 41.2788 83.0986 41.6336C81.7507 41.8066 80.4117 41.9797 79.0727 42.1614C78.3679 42.2653 77.6544 42.3432 76.9584 42.4557C76.333 42.5509 75.6547 42.5941 75.0732 42.8364L75.0909 42.8884C75.6987 42.9749 76.333 42.8624 76.9584 42.8191C77.6632 42.7586 78.3767 42.6634 79.0903 42.5941C80.4734 42.4384 81.8564 42.2826 83.2483 42.1355C86.0145 41.8239 91.767 41.1922 94.5331 40.8807C94.9912 40.8374 94.7886 40.2143 94.3745 40.2663H94.3657Z" fill="#010101" stroke="#231F20" stroke-width="0.5" stroke-miterlimit="10"/>
<path d="M82.5524 25.1827C82.3586 25.1567 82.156 25.1827 81.9622 25.1827C81.7596 25.1827 81.5658 25.1827 81.3719 25.1827C80.9667 25.1827 80.5527 25.1827 80.1474 25.1827C79.751 25.1827 79.3546 25.1827 78.9582 25.1827C78.5794 25.1827 78.1653 25.1654 77.7953 25.2433V25.2606C78.1653 25.3385 78.5706 25.3211 78.9494 25.3298C79.3546 25.3385 79.7598 25.3385 80.1651 25.3471C80.5615 25.3471 80.9579 25.3471 81.3543 25.3558C81.5658 25.3558 81.7772 25.3558 81.9798 25.3558C82.1736 25.3558 82.3762 25.3817 82.5612 25.3558C82.6757 25.3384 82.6405 25.1913 82.5436 25.1827H82.5524Z" fill="#010101" stroke="#231F20" stroke-width="0.5" stroke-miterlimit="10"/>
<path d="M90.1989 34.927C89.961 34.503 89.6175 34.1222 89.318 33.7241C89.0184 33.326 88.7189 32.928 88.4282 32.5299C87.8116 31.7078 87.2125 30.8857 86.5959 30.0722C85.9968 29.276 85.4154 28.4712 84.8076 27.6837C84.2262 26.9308 83.6624 26.0741 82.9488 25.4424L82.9136 25.4683C83.31 26.3337 83.9531 27.1126 84.4993 27.9001C85.0895 28.7308 85.6973 29.553 86.2964 30.3751C86.8778 31.1799 87.468 31.976 88.0582 32.7808C88.3666 33.2049 88.6837 33.6289 88.9832 34.053C89.2651 34.4424 89.5206 34.8751 89.8641 35.2212C90.0756 35.4376 90.3134 35.1347 90.1901 34.9183L90.1989 34.927Z" fill="#010101" stroke="#231F20" stroke-width="0.5" stroke-miterlimit="10"/>
<path d="M94.5507 40.2489C94.3569 39.8335 93.9957 39.47 93.7138 39.0979C93.3791 38.6739 93.0355 38.2498 92.7008 37.8345C92.0401 37.021 91.3705 36.2075 90.7275 35.3854C89.4413 33.7412 86.9042 30.4787 85.4859 28.9383C85.4595 28.9123 85.4066 28.9383 85.4066 28.9383C86.5166 30.7296 89.0801 33.9662 90.3134 35.6277C90.9213 36.4325 91.4939 37.2633 92.0841 38.0854C92.4012 38.5181 92.7096 38.9594 93.0355 39.3835C93.335 39.7729 93.6081 40.2575 93.9869 40.5777C94.2512 40.82 94.7357 40.621 94.5595 40.2402L94.5507 40.2489Z" fill="#010101" stroke="#231F20" stroke-width="0.5" stroke-miterlimit="10"/>
<path d="M45.007 48.5999C44.6722 47.8643 44.0908 47.2152 43.6239 46.5489C43.1482 45.8739 42.6637 45.1902 42.188 44.5239C41.2277 43.1739 40.2675 41.8239 39.3073 40.4739C37.3604 37.7479 35.4312 35.022 33.4579 32.3133C32.4008 30.8595 31.3437 29.4056 30.1896 28.021C30.2689 28.021 30.3394 28.021 30.4099 28.021C30.3658 27.9431 30.313 27.8652 30.2777 27.7787C30.1984 27.6575 30.128 27.5277 30.0663 27.3979C28.5951 27.3806 27.0975 27.4845 25.6264 27.5191C23.8205 27.5537 22.0322 27.6143 20.2263 27.6575C16.6937 27.7527 13.1524 27.8739 9.61981 27.995C7.65532 28.0556 2.23757 28.6181 0.27309 28.7393C0.193806 28.7393 0.220234 28.8604 0.290708 28.8604C7.38223 28.9816 17.9446 28.2633 25.0362 28.1248C26.0316 28.1075 27.0271 28.0902 28.0313 28.0556C28.7185 28.0383 29.4144 28.0556 30.1192 28.021C31.7489 30.8508 33.6693 33.5075 35.5193 36.2075C37.4045 38.9595 39.2897 41.7027 41.1749 44.446C41.7034 45.2075 42.2232 45.9604 42.7518 46.722C43.2715 47.4575 43.7384 48.3229 44.3815 48.972C44.6722 49.2662 45.2008 49.0066 45.0158 48.5912L45.007 48.5999Z" fill="#010101" stroke="#231F20" stroke-width="0.5" stroke-miterlimit="10"/>
<path d="M42.9456 49.3095C41.8708 49.2749 40.7521 49.5345 39.6861 49.6817C38.6114 49.8288 37.5278 49.9759 36.4531 50.1143C34.2596 50.4172 32.0748 50.7115 29.8813 51.0057C25.5031 51.5942 21.1248 52.2086 16.7554 52.8576C15.6014 53.0307 14.4385 53.1865 13.2757 53.3595C13.4519 53.498 13.6193 53.6365 13.7866 53.7836C14.5354 53.6884 15.293 53.6018 16.0418 53.5153C18.2442 53.2557 20.4377 52.9874 22.64 52.7105C27.0271 52.1653 31.423 51.5855 35.81 51.0057C37.0169 50.8499 38.2238 50.6942 39.4306 50.5384C40.6463 50.374 41.9589 50.3393 43.1306 49.9759C43.5182 49.8634 43.298 49.3182 42.9544 49.3095H42.9456Z" fill="#010101" stroke="#231F20" stroke-width="0.5" stroke-miterlimit="10"/>
<path d="M14.28 52.5806C10.9676 46.4277 7.61128 40.2835 4.13159 34.2172C3.13613 32.4864 2.19353 30.695 1.03951 29.0681C0.986654 28.9816 0.784039 28.9989 0.828086 29.1287C1.46236 30.7124 2.29044 32.2268 3.07447 33.7499C3.86731 35.2902 4.66896 36.8393 5.47942 38.371C7.14439 41.495 8.82697 44.6104 10.5096 47.7258C11.4522 49.4739 12.3948 51.2306 13.3638 52.9787C13.6545 53.5066 14.6059 53.1691 14.28 52.5893V52.5806Z" fill="#010101" stroke="#231F20" stroke-width="0.5" stroke-miterlimit="10"/>
<path d="M75.8397 43.1307C72.4304 38.5441 69.0036 33.9576 65.568 29.3797C64.6342 28.1422 63.7092 26.8874 62.7049 25.7018C68.3077 25.5201 73.9104 25.3384 79.5132 25.1999C79.5308 25.1999 79.5132 25.1653 79.5132 25.1653C73.8488 25.2864 68.1932 25.3643 62.5464 25.4422C62.3261 25.4422 62.3614 25.7105 62.5728 25.7018H62.6256C64.1144 28.0297 65.8322 30.2278 67.4708 32.4605C69.1622 34.7884 70.88 37.0989 72.5714 39.4095C73.5492 40.7336 74.5183 42.0489 75.5049 43.3816C75.6547 43.5807 75.9982 43.3557 75.8309 43.1307H75.8397Z" fill="#010101" stroke="#231F20" stroke-width="0.5" stroke-miterlimit="10"/>
</g>
<defs>
<clipPath id="clip0_311_322">
<rect width="95" height="54" fill="white"/>
</clipPath>
</defs>
</svg>
