<svg width="16" height="17" viewBox="0 0 16 17" fill="none" xmlns="http://www.w3.org/2000/svg">
<path fill-rule="evenodd" clip-rule="evenodd" d="M15.1571 3.56117C14.8629 2.86823 14.4421 2.24565 13.9071 1.71067C13.3721 1.17526 12.7491 0.754891 12.0566 0.460634C11.6296 0.279212 11.1866 0.15089 10.734 0.0765511C10.7233 0.0743386 10.7123 0.0730112 10.7021 0.0712412C10.4021 0.0234521 10.0986 0 9.79102 0H5.82673C5.04264 0 4.28067 0.154872 3.56118 0.460634C2.86779 0.754891 2.24565 1.17526 1.71067 1.71067C1.17526 2.2452 0.754891 2.86823 0.460634 3.56117C0.154872 4.28067 0 5.04308 0 5.82673V8.49584C0 9.68349 0.358418 10.8273 1.03587 11.8048C1.57439 12.5805 2.2806 13.2079 3.10408 13.6442C3.27046 13.7332 3.44259 13.8133 3.61826 13.8863C3.62091 13.8872 3.62268 13.8898 3.62268 13.8929C3.62224 13.896 3.62445 13.8987 3.62666 13.8996C3.66693 13.9173 3.70675 13.9332 3.74702 13.9491C3.74968 13.9504 3.75145 13.9535 3.75145 13.9558L3.72667 15.8664V15.8731L3.72622 15.8797C3.72888 16.1532 3.88464 16.3908 4.11163 16.5103C4.11208 16.5107 4.11296 16.5107 4.1134 16.5116C4.17358 16.5275 4.23553 16.5364 4.30058 16.5364C4.5028 16.5364 4.69749 16.4492 4.83378 16.2979L6.61216 14.3257C6.61216 14.3257 6.6157 14.323 6.61791 14.323H9.79058C10.5747 14.323 11.3366 14.1681 12.0561 13.8624C12.7491 13.5681 13.3717 13.1478 13.9066 12.6123C14.4421 12.0778 14.8624 11.4548 15.1567 10.7618C15.4624 10.0424 15.6173 9.28038 15.6173 8.49584V5.82673C15.6173 5.04308 15.4624 4.28067 15.1567 3.56117H15.1571ZM4.30102 15.9279C4.2435 15.9279 4.18819 15.8837 4.18819 15.816L4.2258 14.0978L4.25235 12.8703V12.8624C4.25235 12.8593 4.25102 12.8566 4.24792 12.8557C4.20633 12.8402 4.16473 12.8243 4.12314 12.8079C3.97402 12.7491 3.82888 12.6818 3.68729 12.6079C3.6749 12.6017 3.66251 12.5951 3.651 12.5885C2.18901 11.8057 1.18942 10.2618 1.18942 8.49584V5.83426C1.18942 3.27931 3.27931 1.18942 5.83426 1.18942H9.79146C10.0401 1.18942 10.284 1.20933 10.5225 1.24783C12.7292 1.60094 14.4292 3.52533 14.4292 5.82673V8.48921C14.4292 11.0437 12.3393 13.1336 9.78438 13.1336H6.87278C6.87278 13.1336 6.8688 13.1349 6.86703 13.1363L5.79753 14.3221L4.38377 15.8908C4.37182 15.9036 4.35899 15.9129 4.34483 15.9186C4.33111 15.9253 4.31607 15.9279 4.30191 15.9279H4.30102Z" fill="#858585"/>
<path fill-rule="evenodd" clip-rule="evenodd" d="M10.9862 9.11622C10.7999 9.014 9.8844 8.51974 9.71271 8.44983C9.54102 8.37991 9.4158 8.34363 9.28172 8.52947C9.14809 8.71399 8.76843 9.12772 8.65294 9.25029C8.43435 9.48216 8.00912 9.17684 7.77061 9.04498C7.49627 8.89188 7.13741 8.65691 6.74846 8.28345C6.20331 7.75865 5.84577 7.12324 5.74223 6.92987C5.58382 6.63295 6.13826 6.28693 6.30862 5.96966C6.31836 5.95196 6.32809 5.93337 6.33915 5.9139C6.40685 5.79001 6.37942 5.67761 6.33561 5.58115C6.29136 5.48469 5.9471 4.53643 5.80329 4.15013C5.6201 3.66029 4.81256 3.69923 4.50945 4.00632C4.32847 4.18996 3.82093 4.63024 3.78597 5.56478C3.75102 6.49844 4.39706 7.42634 4.48732 7.55643C4.57759 7.68653 5.72099 9.71137 7.62238 10.5437C8.74675 11.0362 9.64368 11.4924 10.7269 10.7561C10.9406 10.611 11.1234 10.4335 11.1973 10.2494C11.3721 9.8127 11.3858 9.4326 11.342 9.35162C11.2973 9.27065 11.1729 9.21755 10.9862 9.11622Z" fill="#858585"/>
<path fill-rule="evenodd" clip-rule="evenodd" d="M7.49357 3.98292C7.36702 3.98735 7.2595 3.88912 7.25463 3.76168C7.24976 3.63468 7.34799 3.5276 7.47499 3.52229C7.65508 3.51521 7.83164 3.51919 7.99802 3.53158C8.95867 3.60813 9.80029 4.00549 10.4118 4.61923C11.0238 5.23429 11.4052 6.06795 11.4437 7.01267C11.4499 7.17064 11.4468 7.3317 11.4349 7.49056C11.4251 7.61711 11.3136 7.7118 11.1866 7.70251C11.0596 7.69278 10.9645 7.58127 10.9747 7.45427C10.9857 7.30825 10.9888 7.16577 10.9831 7.03125C10.9499 6.206 10.618 5.47943 10.0857 4.94446C9.55116 4.40772 8.81087 4.05903 7.96262 3.99222C7.80774 3.97938 7.65022 3.97629 7.49402 3.98292H7.49357Z" fill="#858585"/>
<path fill-rule="evenodd" clip-rule="evenodd" d="M7.93697 4.88873C7.81086 4.87103 7.72369 4.75332 7.74183 4.62721C7.75953 4.5011 7.87767 4.41393 8.00378 4.43208C8.68611 4.53296 9.28391 4.83563 9.72641 5.27812C10.168 5.71928 10.4565 6.3016 10.526 6.96401C10.5384 7.09012 10.4463 7.20384 10.3202 7.21668C10.1941 7.22907 10.0804 7.13659 10.068 7.01136C10.01 6.45869 9.76888 5.97283 9.40073 5.60468C9.02815 5.23122 8.52017 4.97546 7.93653 4.88917L7.93697 4.88873Z" fill="#858585"/>
<path fill-rule="evenodd" clip-rule="evenodd" d="M7.99228 5.85591C7.8706 5.81697 7.80511 5.68644 7.84405 5.56519C7.88343 5.44395 8.01397 5.37802 8.13477 5.4174C8.50779 5.53864 8.77549 5.68511 8.98833 5.9006C9.19807 6.11344 9.34631 6.38513 9.48304 6.76169C9.5264 6.88116 9.46445 7.01347 9.34498 7.05639C9.22595 7.09931 9.0932 7.03781 9.05028 6.91833C8.93656 6.60505 8.81842 6.38425 8.65956 6.22362C8.50336 6.06609 8.29406 5.9537 7.99228 5.85591Z" fill="#858585"/>
</svg>
