<svg width="16" height="13" viewBox="0 0 16 13" fill="none" xmlns="http://www.w3.org/2000/svg">
<path d="M15.8406 3.27676C15.8406 3.27676 15.6844 2.17363 15.2031 1.68926C14.5938 1.05176 13.9125 1.04863 13.6 1.01113C11.3625 0.848633 8.00313 0.848633 8.00313 0.848633H7.99687C7.99687 0.848633 4.6375 0.848633 2.4 1.01113C2.0875 1.04863 1.40625 1.05176 0.796875 1.68926C0.315625 2.17363 0.1625 3.27676 0.1625 3.27676C0.1625 3.27676 0 4.57363 0 5.86738V7.07988C0 8.37363 0.159375 9.67051 0.159375 9.67051C0.159375 9.67051 0.315625 10.7736 0.79375 11.258C1.40313 11.8955 2.20313 11.8736 2.55938 11.9424C3.84063 12.0643 8 12.1018 8 12.1018C8 12.1018 11.3625 12.0955 13.6 11.9361C13.9125 11.8986 14.5938 11.8955 15.2031 11.258C15.6844 10.7736 15.8406 9.67051 15.8406 9.67051C15.8406 9.67051 16 8.37676 16 7.07988V5.86738C16 4.57363 15.8406 3.27676 15.8406 3.27676ZM6.34688 8.55176V4.05488L10.6687 6.31113L6.34688 8.55176Z" fill="white"/>
</svg>
