<svg width="28" height="33" viewBox="0 0 28 33" fill="#ff0000" xmlns="http://www.w3.org/2000/svg">
<g clip-path="url(#clip0_311_301)">
<path d="M13.9994 32.997C11.5083 32.997 9.0166 33.0059 6.52557 32.9926C5.53572 32.9875 4.63472 32.6667 3.8408 32.0628C2.706 31.1999 2.10946 30.0414 1.96306 28.6216C1.84579 27.4903 1.69502 26.3619 1.561 25.232C1.46486 24.4184 1.37308 23.6033 1.27694 22.7898C1.16987 21.885 1.05843 20.9802 0.952812 20.0754C0.852296 19.2184 0.759793 18.3614 0.65855 17.5044C0.531085 16.4297 0.396337 15.3557 0.2696 14.2803C0.190936 13.6124 0.121013 12.9437 0.0474476 12.275C0.0197695 12.0212 -0.0297596 11.7748 0.0241397 11.5115C0.13121 10.9943 0.628687 10.6 1.19682 10.6015C1.94849 10.603 2.70017 10.6015 3.45185 10.6015C4.54877 10.6015 5.6457 10.6015 6.74335 10.6015C6.99318 10.6015 6.99683 10.5978 6.99683 10.3455C6.99683 9.20681 6.98444 8.06809 7.0012 6.92938C7.02815 5.13597 7.66765 3.5809 8.86145 2.26049C9.6867 1.3476 10.6955 0.709832 11.8565 0.330259C12.7291 0.0463155 13.6272 -0.0471064 14.5464 0.0220406C15.6499 0.105164 16.6725 0.43398 17.6106 1.0129C18.9989 1.86988 19.9909 3.06818 20.5605 4.61369C20.8635 5.4361 21.0034 6.28499 20.9946 7.16403C20.9837 8.2417 20.9961 9.31862 20.9895 10.3963C20.9888 10.5633 21.0485 10.6052 21.2015 10.6052C23.0625 10.6008 24.9235 10.6023 26.7837 10.6008C27.5463 10.6008 28.0824 11.2246 27.9892 11.9911C27.8399 13.2173 27.7029 14.4451 27.5565 15.672C27.3977 17.002 27.2317 18.3313 27.0736 19.6612C26.9374 20.8095 26.8107 21.9585 26.6767 23.1068C26.5128 24.5103 26.3503 25.9139 26.1792 27.3167C26.102 27.9478 26.0714 28.5863 25.9366 29.2087C25.6001 30.7674 24.7224 31.8995 23.2825 32.5733C22.6335 32.8771 21.9495 32.9985 21.2357 32.9963C18.8234 32.9904 16.411 32.9941 13.9986 32.9941L13.9994 32.997ZM13.9921 10.603C15.4772 10.603 16.9617 10.6008 18.4468 10.6059C18.6063 10.6059 18.6566 10.5581 18.6558 10.3963C18.6493 9.30685 18.6493 8.21742 18.6522 7.12799C18.6537 6.6344 18.5954 6.14743 18.4424 5.68179C18.0345 4.43788 17.2705 3.47571 16.1014 2.8909C14.4641 2.07144 12.8551 2.18104 11.3518 3.21825C10.0844 4.09288 9.40482 5.34562 9.35383 6.90216C9.31596 8.05191 9.34145 9.20313 9.33781 10.3544C9.33781 10.6023 9.33635 10.603 9.5738 10.603C11.0466 10.603 12.5193 10.603 13.9921 10.603ZM19.8191 15.3094C20.452 15.3109 20.9815 14.7834 20.9844 14.1486C20.9874 13.5211 20.452 12.9496 19.8351 12.9672C19.1613 12.9871 18.6886 13.4785 18.6675 14.1332C18.6471 14.7687 19.1978 15.3079 19.8198 15.3094H19.8191ZM8.15275 15.3168C8.76968 15.3373 9.33125 14.8121 9.33781 14.1758C9.34509 13.5329 8.89277 12.9967 8.18771 12.9518C7.597 12.9143 7.02232 13.4733 6.99246 14.0758C6.96114 14.7106 7.48702 15.3293 8.15275 15.3168Z" fill="#ff0000"/>
</g>
<defs>
<clipPath id="clip0_311_301">
<rect width="28" height="33" fill="#ff0000"/>
</clipPath>
</defs>
</svg>
