<svg width="81" height="30" viewBox="0 0 81 30" fill="none" xmlns="http://www.w3.org/2000/svg">
<rect opacity="0.1" x="25" width="29.8876" height="29.8876" rx="14.9438" fill="#858585"/>
<path d="M73.8641 11.7487V11.3373H76.5966V12.542C77.194 11.6409 77.904 11.1904 78.7267 11.1904C79.0303 11.1904 79.3241 11.2884 79.6081 11.4842C79.8921 11.6703 80.1272 12.0229 80.3132 12.542L79.0058 13.2471C78.8687 12.8456 78.7071 12.5762 78.521 12.4391C78.3447 12.2922 78.1537 12.2188 77.9481 12.2188C77.7326 12.2188 77.5221 12.2873 77.3164 12.4244C77.1107 12.5615 76.9002 12.8162 76.6847 13.1883V17.5514C76.6847 17.8844 76.6994 18.0851 76.7288 18.1537C76.7581 18.2125 76.8512 18.2516 77.0079 18.2712L78.1097 18.3741V18.7854H73.8641V18.3741L74.6721 18.2712C74.8288 18.2516 74.9218 18.2125 74.9512 18.1537C74.9806 18.0851 74.9953 17.8844 74.9953 17.5514V12.5713C74.9953 12.2383 74.9806 12.0425 74.9512 11.9837C74.9218 11.9152 74.8288 11.8711 74.6721 11.8515L73.8641 11.7487Z" fill="black"/>
<path d="M73.3035 14.9071V15.2009C73.3035 16.3272 73.0097 17.2331 72.4221 17.9187C71.8443 18.5944 71.0167 18.9323 69.9394 18.9323C68.8621 18.9323 68.0297 18.5944 67.4421 17.9187C66.8642 17.2331 66.5753 16.3272 66.5753 15.2009V14.9071C66.5753 13.7808 66.8642 12.8798 67.4421 12.2041C68.0297 11.5283 68.8621 11.1904 69.9394 11.1904C71.0167 11.1904 71.8443 11.5283 72.4221 12.2041C73.0097 12.8798 73.3035 13.7808 73.3035 14.9071ZM71.4966 14.6133C71.4966 13.5654 71.3644 12.8211 71.1 12.3804C70.8355 11.9298 70.4487 11.7046 69.9394 11.7046C69.4399 11.7046 69.0531 11.9298 68.7789 12.3804C68.5145 12.8211 68.3822 13.5654 68.3822 14.6133V15.4947C68.3822 16.5329 68.5145 17.2821 68.7789 17.7424C69.0531 18.1929 69.4399 18.4181 69.9394 18.4181C70.4487 18.4181 70.8355 18.1929 71.1 17.7424C71.3644 17.2821 71.4966 16.5329 71.4966 15.4947V14.6133Z" fill="black"/>
<path d="M62.9384 11.7046C62.4683 11.7046 62.1157 11.9298 61.8806 12.3804C61.6554 12.8211 61.5428 13.5654 61.5428 14.6133V15.4947C61.5428 16.5329 61.675 17.2821 61.9394 17.7424C62.2038 18.1929 62.6348 18.4181 63.2322 18.4181C63.6729 18.4181 64.0303 18.2957 64.3046 18.0509C64.5886 17.7962 64.7502 17.3702 64.7894 16.7728L65.7295 17.0372C65.5533 17.7228 65.2301 18.2125 64.76 18.5063C64.2997 18.7903 63.7561 18.9323 63.1293 18.9323C62.0031 18.9323 61.1559 18.5944 60.5879 17.9187C60.0199 17.2331 59.7358 16.3272 59.7358 15.2009V14.9071C59.7358 13.7808 60.0101 12.8798 60.5585 12.2041C61.1069 11.5283 61.9002 11.1904 62.9384 11.1904C63.6239 11.1904 64.1821 11.3275 64.6131 11.6018C65.0538 11.8662 65.3623 12.2188 65.5386 12.6595C65.7246 13.0904 65.7736 13.5556 65.6855 14.0551L64.0695 14.2901C64.1773 13.4674 64.1332 12.8309 63.9373 12.3804C63.7414 11.9298 63.4085 11.7046 62.9384 11.7046Z" fill="black"/>
<path d="M58.6792 17.0372C58.5029 17.7228 58.1748 18.2125 57.6949 18.5063C57.215 18.7903 56.6568 18.9323 56.0202 18.9323C54.845 18.9323 53.9636 18.5944 53.3759 17.9187C52.7883 17.2331 52.4945 16.3272 52.4945 15.2009V14.9071C52.4945 13.7808 52.7687 12.8798 53.3172 12.2041C53.8754 11.5283 54.6785 11.1904 55.7264 11.1904C56.314 11.1904 56.8331 11.308 57.2836 11.543C57.7439 11.7683 58.1014 12.0963 58.356 12.5273C58.6204 12.9582 58.7526 13.4821 58.7526 14.0991C58.7526 14.246 58.7428 14.4027 58.7233 14.5692C58.7135 14.7357 58.689 14.9022 58.6498 15.0687H54.3014V15.4947C54.3014 16.5329 54.4483 17.2821 54.7421 17.7424C55.036 18.1929 55.5109 18.4181 56.1671 18.4181C56.5882 18.4181 56.9457 18.2957 57.2395 18.0509C57.5333 17.7962 57.6998 17.3702 57.739 16.7728L58.6792 17.0372ZM55.7264 11.7046C55.2465 11.7046 54.8891 11.925 54.654 12.3657C54.419 12.8064 54.3014 13.536 54.3014 14.5545H56.9604C56.9996 14.3587 57.0241 14.1775 57.0339 14.011C57.0534 13.8347 57.0632 13.6731 57.0632 13.5262C57.0632 12.8994 56.9408 12.4391 56.696 12.1453C56.4511 11.8515 56.1279 11.7046 55.7264 11.7046Z" fill="black"/>
<path d="M52.0157 18.3741V18.7855H49.2833V17.5662C49.009 18.0167 48.7005 18.3595 48.3578 18.5945C48.0248 18.8198 47.6281 18.9324 47.1678 18.9324C46.3452 18.9324 45.689 18.6092 45.1993 17.9628C44.7194 17.3066 44.4795 16.3909 44.4795 15.2157V14.9219C44.4795 13.7858 44.7586 12.8799 45.3168 12.2042C45.8849 11.5284 46.6586 11.1905 47.6379 11.1905C48.2256 11.1905 48.7446 11.3374 49.1951 11.6312V9.14855C49.1951 8.81556 49.1804 8.61969 49.1511 8.56093C49.1217 8.49237 49.0286 8.4483 48.8719 8.42872L48.064 8.32588V7.91455H50.8845V17.5515C50.8845 17.8845 50.8992 18.0852 50.9286 18.1538C50.958 18.2125 51.051 18.2517 51.2077 18.2713L52.0157 18.3741ZM46.2864 15.6564C46.2864 16.5672 46.399 17.2332 46.6243 17.6543C46.8495 18.0754 47.158 18.286 47.5498 18.286C47.7946 18.286 48.0493 18.1881 48.3137 17.9922C48.5879 17.7865 48.8817 17.3752 49.1951 16.7582V12.3217C48.823 11.9495 48.3676 11.7634 47.8289 11.7634C47.2903 11.7634 46.8985 12.0083 46.6537 12.498C46.4088 12.9779 46.2864 13.6389 46.2864 14.4812V15.6564Z" fill="black"/>
<path d="M35.9331 8.32588V7.91455H38.7537V15.0394L41.3392 12.5714C41.682 12.2482 41.8631 12.0524 41.8827 11.9838C41.9121 11.9152 41.8436 11.8712 41.6771 11.8516L40.8691 11.7488V11.3374H43.8806V11.7488L43.0727 11.8516C42.9845 11.8614 42.9111 11.881 42.8523 11.9104C42.7935 11.9397 42.7103 12.0034 42.6026 12.1013C42.4948 12.1895 42.3234 12.3462 42.0884 12.5714L40.6781 13.9229L42.7642 17.5515C42.9013 17.7767 43.0041 17.9383 43.0727 18.0363C43.1412 18.1244 43.2049 18.1832 43.2636 18.2125C43.3322 18.2321 43.4154 18.2517 43.5134 18.2713L44.3213 18.3741V18.7855H41.5155L39.4735 15.0688L38.7537 15.7592V17.5515C38.7537 17.8845 38.7684 18.0852 38.7977 18.1538C38.8271 18.2125 38.9202 18.2517 39.0769 18.2713L39.8848 18.3741V18.7855H35.9331V18.3741L36.7411 18.2713C36.8978 18.2517 36.9908 18.2125 37.0202 18.1538C37.0496 18.0852 37.0643 17.8845 37.0643 17.5515V9.14855C37.0643 8.81556 37.0496 8.61969 37.0202 8.56093C36.9908 8.49237 36.8978 8.4483 36.7411 8.42872L35.9331 8.32588Z" fill="black"/>
<path d="M32.8251 11.7046C32.355 11.7046 32.0024 11.9298 31.7674 12.3804C31.5421 12.8211 31.4295 13.5654 31.4295 14.6133V15.4947C31.4295 16.5329 31.5617 17.2821 31.8261 17.7424C32.0906 18.1929 32.5215 18.4181 33.1189 18.4181C33.5596 18.4181 33.9171 18.2957 34.1913 18.0509C34.4753 17.7962 34.6369 17.3702 34.6761 16.7728L35.6163 17.0372C35.44 17.7228 35.1168 18.2125 34.6467 18.5063C34.1864 18.7903 33.6428 18.9323 33.0161 18.9323C31.8898 18.9323 31.0426 18.5944 30.4746 17.9187C29.9066 17.2331 29.6226 16.3272 29.6226 15.2009V14.9071C29.6226 13.7808 29.8968 12.8798 30.4452 12.2041C30.9937 11.5283 31.7869 11.1904 32.8251 11.1904C33.5106 11.1904 34.0689 11.3275 34.4998 11.6018C34.9405 11.8662 35.249 12.2188 35.4253 12.6595C35.6114 13.0904 35.6603 13.5556 35.5722 14.0551L33.9562 14.2901C34.064 13.4674 34.0199 12.8309 33.824 12.3804C33.6282 11.9298 33.2952 11.7046 32.8251 11.7046Z" fill="black"/>
<path d="M27.1655 10.0742C26.8619 10.0742 26.6171 9.98116 26.431 9.79508C26.2449 9.59921 26.1519 9.34947 26.1519 9.04587C26.1519 8.74227 26.2449 8.49742 26.431 8.31134C26.6171 8.12527 26.8619 8.03223 27.1655 8.03223C27.4594 8.03223 27.7042 8.12527 27.9001 8.31134C28.0959 8.49742 28.1939 8.74227 28.1939 9.04587C28.1939 9.34947 28.0959 9.59921 27.9001 9.79508C27.7042 9.98116 27.4594 10.0742 27.1655 10.0742ZM25.197 11.7489V11.3376H28.0176V17.5516C28.0176 17.8846 28.0323 18.0854 28.0617 18.1539C28.091 18.2127 28.1841 18.2519 28.3408 18.2715L29.1488 18.3743V18.7856H25.197V18.3743L26.005 18.2715C26.1617 18.2519 26.2547 18.2127 26.2841 18.1539C26.3135 18.0854 26.3282 17.8846 26.3282 17.5516V12.5716C26.3282 12.2386 26.3135 12.0427 26.2841 11.984C26.2547 11.9154 26.1617 11.8713 26.005 11.8517L25.197 11.7489Z" fill="black"/>
<path d="M25.1518 18.3741V18.7855H22.4193V17.4927C22.1451 17.9922 21.7925 18.3594 21.3616 18.5945C20.9307 18.8197 20.4949 18.9324 20.0542 18.9324C19.3588 18.9324 18.8055 18.7022 18.3942 18.2419C17.9828 17.7718 17.7772 17.1205 17.7772 16.2881V12.5714C17.7772 12.2384 17.7625 12.0425 17.7331 11.9838C17.7037 11.9152 17.6107 11.8712 17.454 11.8516L16.646 11.7487V11.3374H19.4666V16.2734C19.4666 16.9492 19.5596 17.4437 19.7457 17.7571C19.9416 18.0607 20.2207 18.2125 20.583 18.2125C20.7397 18.2125 20.9209 18.1734 21.1266 18.095C21.342 18.0069 21.5575 17.8551 21.773 17.6396C21.9884 17.4143 22.1745 17.0961 22.3312 16.6847V12.5714C22.3312 12.2384 22.3165 12.0376 22.2871 11.9691C22.2577 11.9005 22.1647 11.8614 22.008 11.8516L20.9062 11.7487V11.3374H24.0206V17.5515C24.0206 17.8844 24.0353 18.0852 24.0647 18.1538C24.0941 18.2125 24.1871 18.2517 24.3438 18.2713L25.1518 18.3741Z" fill="black"/>
<path d="M16.8989 21.5031V21.9145H12.6533V21.5031L13.7551 21.4003C13.9118 21.3807 14.0048 21.3366 14.0342 21.2681C14.0636 21.2093 14.0783 21.0134 14.0783 20.6805V17.6983C13.8139 18.1096 13.5152 18.4181 13.1822 18.6238C12.859 18.8295 12.4819 18.9323 12.051 18.9323C11.2284 18.9323 10.5722 18.6091 10.0825 17.9627C9.60261 17.3065 9.36267 16.3908 9.36267 15.2156V14.9218C9.36267 13.7857 9.64179 12.8798 10.2 12.2041C10.7681 11.5283 11.5418 11.1904 12.5211 11.1904C13.2752 11.1904 13.8922 11.4157 14.3721 11.8662C14.5484 11.7976 14.7198 11.7144 14.8863 11.6165C15.0528 11.5087 15.2144 11.3912 15.3711 11.2639H15.7677V20.6805C15.7677 21.0134 15.7824 21.2093 15.8118 21.2681C15.8412 21.3366 15.9342 21.3807 16.0909 21.4003L16.8989 21.5031ZM11.1696 15.6563C11.1696 16.5671 11.2822 17.2331 11.5075 17.6542C11.7327 18.0753 12.0412 18.2859 12.433 18.2859C12.6778 18.2859 12.9324 18.188 13.1969 17.9921C13.4711 17.7864 13.7649 17.3751 14.0783 16.7581V12.3216C13.7061 11.9494 13.2507 11.7634 12.7121 11.7634C12.1734 11.7634 11.7817 12.0082 11.5369 12.4979C11.292 12.9778 11.1696 13.6388 11.1696 14.4811V15.6563Z" fill="black"/>
<path d="M7.77124 15.7006H6.02308L5.02413 18.9325L4.49528 18.7709L5.43546 15.7006H2.17419L1.17524 18.9325L0.646379 18.7709L1.58657 15.7006H0V15.1864H1.74816L2.6149 12.3952H1.01364V11.8811H2.7618L3.76075 8.64917L4.28961 8.81077L3.34942 11.8811H6.6107L7.60965 8.64917L8.1385 8.81077L7.19832 11.8811H8.78488V12.3952H7.03672L6.16999 15.1864H7.77124V15.7006ZM2.32109 15.1864H5.59706L6.46379 12.3952H3.18783L2.32109 15.1864Z" fill="black"/>
</svg>
