<svg width="16" height="17" viewBox="0 0 16 17" fill="none" xmlns="http://www.w3.org/2000/svg">
<g clip-path="url(#clip0_376_387)">
<path fill-rule="evenodd" clip-rule="evenodd" d="M8.54612 16.4771H0.883077C0.395224 16.4771 0 16.0816 0 15.5939V1.36012C0 0.872336 0.395286 0.477051 0.883077 0.477051H15.117C15.6047 0.477051 16 0.872336 16 1.36012V15.5939C16 16.0816 15.6046 16.4771 15.117 16.4771H11.0398V10.281H13.1195L13.4309 7.86625H11.0398V6.3246C11.0398 5.62548 11.2339 5.14905 12.2364 5.14905L13.5151 5.14849V2.98875C13.294 2.95932 12.5349 2.89358 11.6519 2.89358C9.80828 2.89358 8.54612 4.01889 8.54612 6.08545V7.86625H6.46104V10.281H8.54612V16.4771Z" fill="white"/>
</g>
<defs>
<clipPath id="clip0_376_387">
<rect width="16" height="16" fill="white" transform="translate(0 0.477051)"/>
</clipPath>
</defs>
</svg>
