<?xml version="1.0" encoding="UTF-8"?>
<svg id="_Шар_2" data-name="Шар 2" xmlns="http://www.w3.org/2000/svg" viewBox="0 0 842.26 430.26">
  <defs>
    <style>
      .cls-1, .cls-2 {
        fill: #fff;
      }

      .cls-3, .cls-4 {
        fill: none;
        stroke-miterlimit: 10;
      }

      .cls-3, .cls-4, .cls-5, .cls-6, .cls-2, .cls-7 {
        stroke: #000;
      }

      .cls-4 {
        stroke-linecap: round;
      }

      .cls-5, .cls-8 {
        fill: #ffc5c5;
      }

      .cls-5, .cls-6, .cls-2, .cls-7 {
        stroke-linejoin: round;
      }

      .cls-6, .cls-9 {
        fill: #d34f4f;
      }
    </style>
  </defs>
  <g id="_Шар_2-2" data-name="Шар 2">
    <g>
      <g>
        <polygon class="cls-2" points=".5 147.52 46.81 146.56 90.96 426.55 51.78 429.76 .5 147.52"/>
        <polygon class="cls-7" points=".5 147.52 68 17.48 638.76 .5 841.76 110.19 802.69 112 623.28 7.97 96.01 24.22 46.81 146.56 .5 147.52"/>
        <polygon class="cls-2" points="802.69 112 731.69 374.21 763.71 371.82 841.76 110.19 802.69 112"/>
        <path class="cls-6" d="m623.28,7.96l-32.55,205.54,140.97,160.72,71-262.22L623.28,7.96Zm87.53,251.05l-69.36-67.93,22.89-117.08,77.53,51.6-31.07,133.41Z"/>
        <polygon class="cls-2" points="590.73 213.5 623.28 7.97 96.01 24.22 121.3 239.99 215.22 234.21 204.14 58.42 289.39 55.53 292.28 229.88 590.73 213.5"/>
        <polygon class="cls-6" points="96.01 24.22 46.81 146.56 90.96 426.55 121.3 239.99 96.01 24.22"/>
        <polygon class="cls-5" points="90.96 426.55 121.3 239.99 215.22 234.21 214.41 221.36 292.08 217.72 292.28 229.88 590.73 213.5 731.69 374.21 90.96 426.55"/>
        <polygon class="cls-7" points="641.46 191.09 670.6 191.09 716.92 232.84 710.82 259.02 641.46 191.09"/>
        <polygon class="cls-7" points="670.6 191.09 689.56 90.79 664.34 74.01 641.46 191.09 670.6 191.09"/>
        <g>
          <line class="cls-3" x1="560.53" y1="17.96" x2="537.79" y2="208.3"/>
          <path d="m560.32,19.75l3.32,2.6.1-.11-1.62-6.11c-.2-2.09-.41-4.17-.61-6.26-.69,1.98-1.38,3.96-2.07,5.94l-3.01,5.56.05.13,3.86-1.75Z"/>
          <path d="m538.01,206.52l3.84-1.75.07.13-3.01,5.56c-.69,1.98-1.38,3.96-2.07,5.94-.2-2.09-.41-4.17-.61-6.26l-1.62-6.11.08-.11,3.34,2.61Z"/>
        </g>
        <g>
          <line class="cls-3" x1="177.43" y1="67.75" x2="188.95" y2="227.68"/>
          <path d="m177.56,69.54l3.75,1.93.07-.13-2.75-5.69c-.6-2.01-1.19-4.02-1.79-6.03-.3,2.07-.6,4.15-.91,6.22l-1.91,6.03.07.12,3.46-2.45Z"/>
          <path d="m188.82,225.89l3.44-2.44.09.12-1.91,6.03c-.3,2.07-.6,4.15-.91,6.22-.6-2.01-1.19-4.02-1.79-6.03l-2.75-5.69.05-.13,3.77,1.93Z"/>
        </g>
        <g>
          <line class="cls-3" x1="210.66" y1="31.09" x2="280.43" y2="29.41"/>
          <path d="m212.46,31.04l2.1-3.65-.12-.08-5.82,2.47c-2.04.5-4.07,1-6.11,1.5,2.06.4,4.11.8,6.17,1.2l5.93,2.19.12-.06-2.28-3.57Z"/>
          <path d="m278.64,29.45l-2.28-3.55.12-.08,5.93,2.19c2.06.4,4.11.8,6.17,1.2-2.04.5-4.07,1-6.11,1.5l-5.82,2.47-.12-.06,2.1-3.67Z"/>
        </g>
        <g>
          <line class="cls-3" x1="541.52" y1="223.43" x2="647.49" y2="374.04"/>
          <path d="m542.55,224.9l4.21-.28v-.15s-5.29-3.46-5.29-3.46c-1.55-1.41-3.09-2.83-4.64-4.24.81,1.93,1.62,3.87,2.43,5.8l1.47,6.15.12.07,1.7-3.88Z"/>
          <path d="m646.46,372.57l1.69-3.87.14.05,1.47,6.15c.81,1.93,1.62,3.87,2.43,5.8-1.55-1.41-3.09-2.83-4.64-4.24l-5.29-3.46-.02-.14,4.22-.29Z"/>
        </g>
        <g>
          <line class="cls-3" x1="122.8" y1="280.31" x2="615.15" y2="251.1"/>
          <path d="m124.59,280.21l1.97-3.73-.13-.07-5.73,2.68c-2.02.57-4.03,1.14-6.05,1.71,2.07.33,4.14.66,6.21.98l6,1.98.12-.07-2.4-3.49Z"/>
          <path d="m613.35,251.2l-2.4-3.47.12-.09,6,1.98c2.07.33,4.14.66,6.21.98-2.02.57-4.03,1.14-6.05,1.71l-5.73,2.68-.13-.05,1.97-3.75Z"/>
        </g>
        <line class="cls-4" x1="204.14" y1="58.42" x2="174.93" y2="59.62"/>
        <line class="cls-4" x1="664.3" y1="74.01" x2="643.39" y2="60.5"/>
        <line class="cls-4" x1="664.3" y1="74.01" x2="669.4" y2="47.34"/>
        <line class="cls-4" x1="741.88" y1="125.78" x2="748.07" y2="97.89"/>
        <line class="cls-4" x1="641.46" y1="191.09" x2="623.28" y2="174.04"/>
        <line class="cls-4" x1="204.14" y1="58.42" x2="202.51" y2="29.21"/>
        <line class="cls-4" x1="289.4" y1="55.6" x2="288.58" y2="26.99"/>
        <g>
          <line class="cls-3" x1="626.89" y1="168.06" x2="644.35" y2="70.07"/>
          <path d="m627.21,166.29l-3.16-2.79-.1.11,1.27,6.19c.08,2.09.17,4.19.25,6.28.8-1.94,1.6-3.87,2.41-5.81l3.33-5.37-.04-.13-3.95,1.52Z"/>
          <path d="m644.03,71.84l-3.93,1.53-.06-.14,3.33-5.37c.8-1.94,1.6-3.87,2.41-5.81.08,2.09.17,4.19.25,6.28l1.27,6.19-.08.11-3.18-2.79Z"/>
        </g>
        <g>
          <line class="cls-3" x1="675.82" y1="54.01" x2="740.69" y2="95.85"/>
          <path d="m677.33,54.98l3.79-1.84-.06-.14-6.2-1.22c-1.96-.73-3.93-1.46-5.89-2.19,1.48,1.49,2.95,2.98,4.43,4.46l3.67,5.15h.14s.12-4.22.12-4.22Z"/>
          <path d="m739.18,94.87l.11-4.22h.15s3.67,5.14,3.67,5.14c1.48,1.49,2.95,2.98,4.43,4.46-1.96-.73-3.93-1.46-5.89-2.19l-6.2-1.22-.07-.12,3.81-1.86Z"/>
        </g>
      </g>
      <g>
        <rect class="cls-8" x="332.97" y="253.94" width="59.4" height="23.52"/>
        <g>
          <path d="m342.28,271.77c-.79,0-1.49-.15-2.11-.45-.62-.3-1.11-.72-1.48-1.24-.37-.53-.56-1.13-.59-1.8h1.89c.03.36.15.68.36.96s.48.5.82.66.71.24,1.11.24c.48,0,.91-.11,1.29-.33.37-.22.67-.53.88-.92.21-.39.32-.84.32-1.35s-.11-.97-.33-1.38c-.22-.41-.53-.72-.91-.95-.39-.23-.83-.34-1.33-.34-.39,0-.77.07-1.16.2-.39.13-.7.31-.93.52l-1.79-.26.71-6.41h7.01v1.66h-5.38l-.4,3.54h.07c.25-.24.58-.45,1-.6.41-.16.86-.24,1.33-.24.58,0,1.11.1,1.6.31.49.21.91.5,1.27.88.36.38.64.83.84,1.34.2.51.3,1.08.3,1.69,0,.82-.19,1.56-.56,2.2-.38.64-.89,1.15-1.55,1.52s-1.42.55-2.27.55Z"/>
          <path d="m347.36,274.76l.75-4.98h2.02l-1.41,4.98h-1.36Z"/>
          <path d="m355.88,271.77c-.57,0-1.13-.1-1.68-.3-.55-.2-1.05-.53-1.5-1-.45-.46-.8-1.09-1.07-1.87s-.4-1.76-.4-2.92c0-1.1.11-2.08.33-2.94.22-.86.54-1.58.96-2.18.42-.6.93-1.05,1.52-1.36.59-.31,1.26-.46,2-.46s1.42.15,2.01.45c.59.3,1.07.71,1.44,1.23s.6,1.12.69,1.8h-1.91c-.13-.52-.38-.94-.76-1.27-.38-.33-.87-.5-1.47-.5s-1.15.18-1.59.55c-.44.36-.78.88-1.01,1.56s-.35,1.5-.35,2.46h.09c.22-.36.48-.67.8-.92.32-.26.68-.46,1.08-.59s.82-.2,1.27-.2c.74,0,1.41.18,2,.53.6.35,1.07.85,1.43,1.48.35.63.53,1.35.53,2.16s-.18,1.54-.55,2.2c-.37.65-.88,1.17-1.55,1.55-.66.38-1.44.57-2.32.57Zm0-1.64c.48,0,.91-.12,1.29-.36.38-.24.68-.56.91-.96.22-.4.34-.85.34-1.34s-.11-.93-.32-1.32c-.22-.39-.51-.71-.89-.94-.38-.23-.81-.35-1.29-.35-.36,0-.7.07-1.01.21-.31.14-.58.33-.81.58-.23.25-.41.53-.55.84-.13.32-.2.65-.2,1,0,.47.11.91.33,1.31.22.4.52.72.9.97s.82.37,1.3.37Z"/>
          <path d="m366.01,271.77c-.98,0-1.82-.26-2.51-.77-.69-.51-1.22-1.25-1.59-2.22s-.55-2.14-.55-3.52.19-2.55.56-3.52c.37-.97.9-1.71,1.6-2.23.69-.52,1.53-.78,2.51-.78s1.81.26,2.51.78c.7.52,1.23,1.26,1.6,2.23.37.97.55,2.14.55,3.52s-.18,2.55-.55,3.52c-.37.97-.9,1.71-1.59,2.22s-1.54.77-2.53.77Zm0-1.66c.58,0,1.08-.19,1.49-.58.41-.38.72-.94.93-1.66s.32-1.59.32-2.62-.11-1.9-.32-2.63-.52-1.28-.93-1.67c-.41-.38-.91-.57-1.49-.57s-1.08.19-1.49.58c-.41.39-.72.94-.94,1.67-.22.72-.32,1.6-.32,2.63s.11,1.89.32,2.62c.22.72.53,1.27.94,1.66.41.38.91.58,1.49.58Z"/>
          <path d="m375.81,271.6v-9.52h2.84l1.88,4.76c.12.32.24.65.34.98.1.33.19.65.27.98s.15.63.21.94c.07.31.13.6.18.89h-.28c.05-.27.11-.56.17-.86.07-.3.14-.62.21-.94s.17-.65.27-.98c.1-.33.21-.66.33-.99l1.87-4.76h2.86v9.52h-1.86v-4.57c0-.31,0-.63,0-.98,0-.34.01-.7.02-1.06,0-.36.01-.73.02-1.1,0-.37.01-.73.01-1.09h.17c-.12.53-.25,1.03-.38,1.49-.13.46-.27.91-.42,1.35-.15.44-.32.9-.52,1.38l-1.85,4.57h-1.61l-1.87-4.57c-.19-.48-.36-.95-.51-1.39-.15-.44-.3-.89-.43-1.35-.13-.46-.26-.95-.38-1.48h.2c0,.32.01.66.02,1.01,0,.36.02.72.03,1.1,0,.37.01.74.02,1.1,0,.36,0,.7,0,1.01v4.57h-1.84Z"/>
        </g>
      </g>
      <g>
        <rect class="cls-8" x="564.81" y="286.97" width="59.4" height="23.52"/>
        <g>
          <path d="m574.08,304.8c-.86,0-1.62-.15-2.29-.44-.67-.3-1.2-.7-1.58-1.23-.39-.52-.59-1.13-.62-1.82h1.97c.03.38.15.7.38.97s.52.48.89.63c.37.15.78.22,1.23.22.5,0,.94-.09,1.32-.26.38-.17.68-.41.9-.72.22-.31.33-.67.33-1.08s-.11-.8-.32-1.12-.53-.57-.94-.75c-.41-.18-.91-.27-1.49-.27h-1.08v-1.58h1.08c.47,0,.88-.08,1.24-.25.36-.17.64-.4.83-.7.2-.3.3-.65.3-1.06s-.09-.73-.26-1.02c-.18-.29-.42-.52-.74-.68-.32-.16-.69-.24-1.12-.24-.41,0-.79.08-1.15.23-.35.15-.64.36-.86.63-.22.27-.34.6-.36.99h-1.87c.02-.69.23-1.29.61-1.81.38-.52.89-.93,1.53-1.22.64-.29,1.35-.44,2.13-.44s1.52.16,2.12.48c.6.32,1.06.74,1.38,1.27.32.53.49,1.1.49,1.72,0,.72-.2,1.32-.6,1.81s-.93.83-1.59,1v.09c.56.08,1.04.27,1.44.54s.7.62.9,1.04c.21.42.31.9.31,1.43,0,.7-.19,1.32-.58,1.87-.39.55-.92.99-1.6,1.3s-1.45.48-2.32.48Z"/>
          <path d="m579.34,307.79l.75-4.98h2.02l-1.41,4.98h-1.36Z"/>
          <path d="m583.92,304.63v-1.41l4.31-4.46c.44-.47.81-.88,1.11-1.23.29-.36.52-.7.67-1.03.15-.33.23-.68.23-1.06,0-.43-.1-.79-.29-1.1-.2-.31-.46-.54-.8-.71-.34-.16-.72-.25-1.15-.25s-.84.09-1.18.28-.59.44-.78.78c-.18.34-.27.73-.27,1.18h-1.87c0-.77.18-1.45.54-2.03.36-.58.85-1.03,1.47-1.35.62-.32,1.33-.48,2.12-.48s1.52.16,2.13.48,1.09.75,1.44,1.29c.35.54.52,1.16.52,1.84,0,.47-.09.92-.26,1.36-.17.44-.48.94-.91,1.5s-1.05,1.23-1.83,2.03l-2.49,2.6v.1h5.69v1.66h-8.38Z"/>
          <path d="m598.19,304.8c-.98,0-1.82-.26-2.51-.77-.69-.51-1.22-1.25-1.59-2.22s-.55-2.14-.55-3.52.19-2.55.56-3.52c.37-.97.9-1.71,1.6-2.23.69-.52,1.53-.78,2.51-.78s1.81.26,2.51.78c.7.52,1.23,1.26,1.6,2.23.37.97.55,2.14.55,3.52s-.18,2.55-.55,3.52c-.37.97-.9,1.71-1.59,2.22s-1.54.77-2.53.77Zm0-1.66c.58,0,1.08-.19,1.49-.58.41-.38.72-.94.93-1.66.21-.72.32-1.59.32-2.62s-.11-1.9-.32-2.63c-.21-.73-.52-1.28-.93-1.67-.41-.38-.91-.57-1.49-.57s-1.08.19-1.49.58c-.41.39-.72.94-.94,1.67-.22.72-.32,1.6-.32,2.63s.11,1.89.32,2.62.53,1.27.94,1.66c.41.38.91.58,1.49.58Z"/>
          <path d="m608,304.63v-9.52h2.84l1.88,4.76c.12.32.24.65.34.98.1.33.19.65.27.98.08.32.15.63.21.94s.13.6.18.89h-.28c.05-.27.11-.56.17-.86.06-.3.14-.62.21-.94.08-.32.17-.65.27-.98.1-.33.21-.66.33-.99l1.87-4.76h2.86v9.52h-1.86v-4.57c0-.31,0-.63,0-.98,0-.34.01-.7.02-1.06,0-.36.01-.73.02-1.1,0-.37.01-.73.01-1.09h.17c-.12.53-.25,1.03-.38,1.49s-.27.91-.42,1.35-.32.9-.51,1.38l-1.85,4.57h-1.61l-1.87-4.57c-.19-.48-.36-.95-.51-1.39-.15-.44-.3-.89-.43-1.35-.13-.46-.26-.95-.38-1.48h.2c0,.32.01.66.02,1.01s.02.72.03,1.1c0,.37.01.74.02,1.1s0,.7,0,1.01v4.57h-1.84Z"/>
        </g>
      </g>
      <g>
        <rect class="cls-1" x="522.49" y="97.75" width="59.4" height="23.52"/>
        <g>
          <path d="m527.64,115.41v-1.41l4.31-4.46c.44-.47.81-.88,1.11-1.23.29-.36.52-.7.67-1.03.15-.33.23-.68.23-1.06,0-.43-.1-.79-.29-1.1-.2-.31-.46-.54-.8-.71-.34-.16-.72-.25-1.15-.25s-.84.09-1.18.28-.59.44-.78.78c-.18.34-.27.73-.27,1.18h-1.87c0-.77.18-1.45.54-2.03.36-.58.85-1.03,1.47-1.35.62-.32,1.33-.48,2.12-.48s1.52.16,2.13.48,1.09.75,1.44,1.29c.35.54.52,1.16.52,1.84,0,.47-.09.92-.26,1.36-.17.44-.48.94-.91,1.5s-1.05,1.23-1.83,2.03l-2.49,2.6v.1h5.69v1.66h-8.38Z"/>
          <path d="m537.36,118.57l.75-4.98h2.02l-1.41,4.98h-1.36Z"/>
          <path d="m545.64,115.58c-.79,0-1.49-.15-2.11-.45-.62-.3-1.11-.72-1.48-1.24-.37-.53-.56-1.13-.59-1.8h1.89c.03.36.15.68.36.96.21.28.48.5.82.66s.71.24,1.11.24c.48,0,.91-.11,1.29-.33s.67-.53.88-.92c.21-.39.32-.84.32-1.35s-.11-.97-.33-1.38c-.22-.41-.53-.72-.91-.95-.39-.23-.83-.34-1.33-.34-.39,0-.77.07-1.16.2-.39.13-.7.31-.93.52l-1.79-.26.71-6.41h7.01v1.66h-5.38l-.4,3.54h.07c.25-.24.58-.45,1-.6.42-.16.86-.24,1.33-.24.58,0,1.11.1,1.6.31s.91.5,1.27.88c.36.38.64.83.84,1.34.2.51.3,1.08.3,1.69,0,.82-.19,1.56-.56,2.2-.37.64-.89,1.15-1.55,1.52-.66.37-1.42.55-2.27.55Z"/>
          <path d="m555.73,115.58c-.98,0-1.82-.26-2.51-.77-.69-.51-1.22-1.25-1.59-2.22s-.55-2.14-.55-3.52.19-2.55.56-3.52c.37-.97.9-1.71,1.6-2.23.69-.52,1.53-.78,2.51-.78s1.81.26,2.51.78c.7.52,1.23,1.26,1.6,2.23.37.97.55,2.14.55,3.52s-.18,2.55-.55,3.52c-.37.97-.9,1.71-1.59,2.22s-1.54.77-2.53.77Zm0-1.66c.58,0,1.08-.19,1.49-.58.41-.38.72-.94.93-1.66.21-.72.32-1.59.32-2.62s-.11-1.9-.32-2.63c-.21-.73-.52-1.28-.93-1.67-.41-.38-.91-.57-1.49-.57s-1.08.19-1.49.58c-.41.39-.72.94-.94,1.67-.22.72-.32,1.6-.32,2.63s.11,1.89.32,2.62.53,1.27.94,1.66c.41.38.91.58,1.49.58Z"/>
          <path d="m565.54,115.41v-9.52h2.84l1.88,4.76c.12.32.24.65.34.98.1.33.19.65.27.98.08.32.15.63.21.94s.13.6.18.89h-.28c.05-.27.11-.56.17-.86.06-.3.14-.62.21-.94.08-.32.17-.65.27-.98.1-.33.21-.66.33-.99l1.87-4.76h2.86v9.52h-1.86v-4.57c0-.31,0-.63,0-.98,0-.34.01-.7.02-1.06,0-.36.01-.73.02-1.1,0-.37.01-.73.01-1.09h.17c-.12.53-.25,1.03-.38,1.49s-.27.91-.42,1.35-.32.9-.51,1.38l-1.85,4.57h-1.61l-1.87-4.57c-.19-.48-.36-.95-.51-1.39-.15-.44-.3-.89-.43-1.35-.13-.46-.26-.95-.38-1.48h.2c0,.32.01.66.02,1.01s.02.72.03,1.1c0,.37.01.74.02,1.1s0,.7,0,1.01v4.57h-1.84Z"/>
        </g>
      </g>
      <g>
        <path class="cls-9" d="m684.59,66.11h30.53c6.57,0,11.9,5.33,11.9,11.9v5.43c0,.17-.14.31-.31.31h-34.11c-5.58,0-10.11-4.53-10.11-10.11v-5.43c0-1.15.94-2.09,2.09-2.09Z"/>
        <g>
          <path d="m690.97,69.89v9.46h-1.44v-8.15h-.06l-2.25,1.64v-1.45l2.07-1.5h1.68Z"/>
          <path d="m692.16,81.71l.56-3.71h1.5l-1.05,3.71h-1.02Z"/>
          <path d="m695.38,77.51v-1.17l4.08-6.45h.93v1.72h-.59l-2.9,4.59v.08h5.6v1.23h-7.11Zm4.48,1.84v-2.73s.01-6.73.01-6.73h1.38v9.46h-1.39Z"/>
          <path d="m703.45,79.35v-1.05l3.21-3.32c.33-.35.61-.65.83-.92.22-.27.39-.52.5-.77s.17-.51.17-.79c0-.32-.07-.59-.22-.82-.15-.23-.35-.4-.6-.53-.25-.12-.54-.18-.86-.18s-.63.07-.88.21c-.25.14-.44.33-.58.58-.13.25-.2.54-.2.88h-1.39c0-.58.13-1.08.4-1.51.27-.43.63-.77,1.09-1.01.46-.24.99-.36,1.58-.36s1.13.12,1.58.36c.45.24.81.56,1.07.96.26.4.39.86.39,1.37,0,.35-.06.69-.19,1.02-.13.33-.36.7-.68,1.12-.32.42-.78.92-1.37,1.51l-1.85,1.94v.08h4.24v1.24h-6.25Z"/>
          <path d="m713.66,79.35v-7.1h2.11l1.4,3.55c.09.24.18.48.25.73s.14.49.2.73c.06.24.11.47.16.7s.09.45.14.66h-.21c.04-.2.08-.42.13-.64.05-.23.1-.46.16-.7.06-.24.12-.49.2-.73s.16-.49.25-.74l1.39-3.55h2.13v7.1h-1.38v-3.4c0-.23,0-.47,0-.73,0-.26,0-.52.01-.79s0-.54.02-.82c0-.27,0-.55,0-.81h.13c-.09.4-.19.77-.28,1.11-.1.34-.2.68-.31,1.01s-.24.67-.38,1.03l-1.38,3.4h-1.2l-1.4-3.4c-.14-.36-.27-.71-.38-1.04s-.22-.67-.32-1.01c-.1-.34-.19-.71-.29-1.1h.15c0,.24,0,.49.02.76,0,.27.01.54.02.82,0,.28,0,.55.01.82,0,.27,0,.52,0,.76v3.4h-1.37Z"/>
        </g>
      </g>
      <g>
        <path class="cls-9" d="m614.14,110.6h27.6c5.93,0,10.75,4.82,10.75,10.75v4.91c0,.15-.12.28-.28.28h-30.82c-5.04,0-9.14-4.09-9.14-9.14v-4.91c0-1.04.85-1.89,1.89-1.89Z"/>
        <g>
          <path d="m617.98,113.1v9.46h-1.44v-8.15h-.06l-2.25,1.64v-1.45l2.07-1.5h1.68Z"/>
          <path d="m619.18,124.92l.56-3.71h1.5l-1.05,3.71h-1.02Z"/>
          <path d="m625.41,122.69c-.64,0-1.21-.11-1.71-.33s-.89-.52-1.18-.91c-.29-.39-.44-.84-.46-1.36h1.47c.02.28.12.52.28.72.17.2.39.36.66.47.28.11.58.17.92.17.37,0,.7-.06.98-.19.28-.13.51-.31.67-.54.16-.23.24-.5.24-.8s-.08-.6-.24-.83c-.16-.24-.39-.43-.7-.56-.3-.14-.68-.2-1.11-.2h-.81v-1.18h.81c.35,0,.65-.06.92-.19.27-.12.47-.3.62-.52.15-.22.22-.49.22-.79s-.07-.55-.2-.76c-.13-.22-.32-.38-.55-.5s-.52-.18-.84-.18c-.3,0-.59.06-.85.17-.26.11-.48.27-.64.47s-.25.45-.27.74h-1.4c.02-.51.17-.96.45-1.35.29-.39.67-.69,1.14-.91.48-.22,1.01-.33,1.59-.33s1.13.12,1.58.36c.45.24.79.55,1.03.94s.36.82.36,1.28c0,.53-.15.98-.44,1.35-.3.37-.69.61-1.19.75v.07c.42.06.78.2,1.07.4.3.21.52.46.67.78.15.31.23.67.23,1.07,0,.52-.14.99-.43,1.4s-.68.73-1.19.97c-.51.24-1.08.36-1.73.36Z"/>
          <path d="m633.02,122.69c-.73,0-1.36-.19-1.87-.57-.52-.38-.91-.93-1.19-1.65-.27-.72-.41-1.6-.41-2.63s.14-1.9.42-2.62c.28-.72.67-1.28,1.19-1.66s1.14-.58,1.87-.58,1.35.19,1.87.58.92.94,1.19,1.66c.28.72.41,1.6.41,2.62s-.14,1.9-.41,2.62c-.27.72-.67,1.28-1.19,1.66-.52.38-1.15.57-1.89.57Zm0-1.24c.44,0,.81-.14,1.11-.43.3-.29.54-.7.7-1.23.16-.54.24-1.19.24-1.95s-.08-1.42-.24-1.96c-.16-.54-.39-.96-.7-1.24-.3-.29-.68-.43-1.11-.43s-.81.14-1.11.43c-.3.29-.54.7-.7,1.24-.16.54-.24,1.19-.24,1.96s.08,1.41.24,1.95c.16.54.39.95.7,1.23.3.29.67.43,1.11.43Z"/>
          <path d="m640.33,122.56v-7.1h2.11l1.4,3.55c.09.24.18.48.25.73s.14.49.2.73c.06.24.11.47.16.7s.09.45.14.66h-.21c.04-.2.08-.42.13-.64.05-.23.1-.46.16-.7.06-.24.12-.49.2-.73s.16-.49.25-.74l1.39-3.55h2.13v7.1h-1.38v-3.4c0-.23,0-.47,0-.73,0-.26,0-.52.01-.79s0-.54.02-.82c0-.27,0-.55,0-.81h.13c-.09.4-.19.77-.28,1.11-.1.34-.2.68-.31,1.01s-.24.67-.38,1.03l-1.38,3.4h-1.2l-1.4-3.4c-.14-.36-.27-.71-.38-1.04s-.22-.67-.32-1.01c-.1-.34-.19-.71-.29-1.1h.15c0,.24,0,.49.02.76,0,.27.01.54.02.82,0,.28,0,.55.01.82,0,.27,0,.52,0,.76v3.4h-1.37Z"/>
        </g>
      </g>
      <g>
        <rect class="cls-1" x="158.81" y="138.1" width="42.7" height="16.91"/>
        <g>
          <path d="m163.56,150.8v-1.05l3.21-3.32c.33-.35.6-.65.83-.92.22-.27.39-.52.5-.77.11-.25.17-.51.17-.79,0-.32-.07-.59-.22-.82s-.35-.4-.6-.53c-.25-.12-.54-.18-.86-.18s-.63.07-.88.21c-.25.14-.44.33-.58.58-.14.25-.2.54-.2.88h-1.39c0-.58.13-1.08.4-1.51.27-.43.63-.77,1.09-1.01.46-.24.99-.36,1.58-.36s1.13.12,1.58.36c.46.24.81.56,1.07.96s.39.86.39,1.37c0,.35-.06.69-.19,1.02-.13.33-.36.7-.68,1.12-.32.42-.78.92-1.37,1.51l-1.85,1.94v.08h4.24v1.24h-6.25Z"/>
          <path d="m170.81,153.15l.56-3.71h1.5l-1.05,3.71h-1.02Z"/>
          <path d="m176.53,141.34v9.46h-1.44v-8.15h-.06l-2.25,1.64v-1.45l2.07-1.5h1.68Z"/>
          <path d="m181.12,150.92c-.73,0-1.36-.19-1.87-.57-.52-.38-.91-.93-1.19-1.65-.28-.72-.41-1.6-.41-2.63s.14-1.9.42-2.62c.28-.72.67-1.28,1.19-1.66.52-.39,1.14-.58,1.87-.58s1.35.19,1.87.58.92.94,1.19,1.66c.27.72.41,1.6.41,2.62s-.14,1.9-.41,2.62c-.27.72-.67,1.28-1.19,1.66-.52.38-1.15.57-1.89.57Zm0-1.24c.44,0,.81-.14,1.11-.43.31-.29.54-.7.7-1.23.16-.54.24-1.19.24-1.95s-.08-1.42-.24-1.96c-.16-.54-.39-.96-.7-1.24-.3-.29-.67-.43-1.11-.43s-.81.14-1.11.43c-.3.29-.54.7-.7,1.24-.16.54-.24,1.19-.24,1.96s.08,1.41.24,1.95c.16.54.39.95.7,1.23.3.29.68.43,1.11.43Z"/>
          <path d="m188.43,150.8v-7.1h2.11l1.4,3.55c.09.24.18.48.25.73s.14.49.2.73.11.47.16.7c.05.23.09.45.14.66h-.21c.04-.2.08-.42.13-.64.05-.23.1-.46.16-.7.06-.24.12-.49.2-.73s.16-.49.25-.74l1.39-3.55h2.13v7.1h-1.38v-3.4c0-.23,0-.47,0-.73,0-.26,0-.52.01-.79s0-.54.02-.82c0-.27,0-.55,0-.81h.13c-.09.4-.19.77-.28,1.11-.1.34-.2.68-.31,1.01-.11.33-.24.67-.38,1.03l-1.38,3.4h-1.2l-1.4-3.4c-.14-.36-.27-.71-.38-1.04s-.22-.67-.32-1.01c-.1-.34-.19-.71-.29-1.1h.15c0,.24,0,.49.02.76s.01.54.02.82.01.55.01.82,0,.52,0,.76v3.4h-1.37Z"/>
        </g>
      </g>
      <g>
        <path d="m232.79,43.94c-.73,0-1.36-.19-1.87-.57-.52-.38-.91-.93-1.19-1.65-.28-.72-.41-1.6-.41-2.63s.14-1.9.42-2.62c.28-.72.67-1.28,1.19-1.66.52-.39,1.14-.58,1.87-.58s1.35.19,1.87.58.92.94,1.19,1.66c.27.72.41,1.6.41,2.62s-.14,1.9-.41,2.62c-.27.72-.67,1.28-1.19,1.66-.52.38-1.15.57-1.89.57Zm0-1.24c.44,0,.81-.14,1.11-.43.31-.29.54-.7.7-1.23.16-.54.24-1.19.24-1.95s-.08-1.42-.24-1.96c-.16-.54-.39-.96-.7-1.24-.3-.29-.67-.43-1.11-.43s-.81.14-1.11.43c-.3.29-.54.7-.7,1.24-.16.54-.24,1.19-.24,1.96s.08,1.41.24,1.95c.16.54.39.95.7,1.23.3.29.68.43,1.11.43Z"/>
        <path d="m236.8,46.17l.56-3.71h1.5l-1.05,3.71h-1.02Z"/>
        <path d="m243.11,43.95c-.57,0-1.07-.11-1.51-.33-.44-.22-.79-.53-1.07-.93-.28-.4-.45-.85-.52-1.36h1.43c.09.39.27.72.56.97.28.25.65.38,1.11.38s.85-.14,1.18-.41c.33-.27.58-.66.75-1.17.17-.51.26-1.12.26-1.84h-.07c-.16.26-.36.49-.6.68-.24.19-.5.34-.8.44s-.61.16-.95.16c-.55,0-1.05-.13-1.5-.4-.45-.27-.8-.64-1.07-1.1-.26-.47-.39-1-.39-1.6s.14-1.15.41-1.64c.27-.49.66-.88,1.16-1.16.5-.29,1.08-.42,1.74-.42.42,0,.83.08,1.24.23.41.15.78.4,1.11.74.33.34.6.8.8,1.38.2.58.3,1.31.3,2.18,0,.82-.08,1.55-.25,2.2-.17.64-.41,1.19-.72,1.63s-.69.78-1.13,1.01c-.44.23-.94.35-1.49.35Zm.09-4.58c.27,0,.52-.05.76-.16s.44-.25.61-.44c.17-.18.31-.39.41-.63s.15-.49.15-.75c0-.34-.08-.66-.25-.96s-.39-.54-.67-.72-.61-.27-.97-.27-.68.09-.96.26c-.29.18-.51.41-.68.71-.17.3-.25.63-.25.99s.08.69.24.99c.16.29.38.53.66.7.28.18.6.26.95.26Z"/>
        <path d="m250.95,43.94c-.73,0-1.36-.19-1.87-.57-.52-.38-.91-.93-1.19-1.65-.28-.72-.41-1.6-.41-2.63s.14-1.9.42-2.62c.28-.72.67-1.28,1.19-1.66.52-.39,1.14-.58,1.87-.58s1.35.19,1.87.58.92.94,1.19,1.66c.27.72.41,1.6.41,2.62s-.14,1.9-.41,2.62c-.27.72-.67,1.28-1.19,1.66-.52.38-1.15.57-1.89.57Zm0-1.24c.44,0,.81-.14,1.11-.43.31-.29.54-.7.7-1.23.16-.54.24-1.19.24-1.95s-.08-1.42-.24-1.96c-.16-.54-.39-.96-.7-1.24-.3-.29-.67-.43-1.11-.43s-.81.14-1.11.43c-.3.29-.54.7-.7,1.24-.16.54-.24,1.19-.24,1.96s.08,1.41.24,1.95c.16.54.39.95.7,1.23.3.29.68.43,1.11.43Z"/>
        <path d="m258.26,43.81v-7.1h2.11l1.4,3.55c.09.24.18.48.25.73s.14.49.2.73.11.47.16.7c.05.23.09.45.14.66h-.21c.04-.2.08-.42.13-.64.05-.23.1-.46.16-.7.06-.24.12-.49.2-.73s.16-.49.25-.74l1.39-3.55h2.13v7.1h-1.38v-3.4c0-.23,0-.47,0-.73,0-.26,0-.52.01-.79s0-.54.02-.82c0-.27,0-.55,0-.81h.13c-.09.4-.19.77-.28,1.11-.1.34-.2.68-.31,1.01-.11.33-.24.67-.38,1.03l-1.38,3.4h-1.2l-1.4-3.4c-.14-.36-.27-.71-.38-1.04s-.22-.67-.32-1.01c-.1-.34-.19-.71-.29-1.1h.15c0,.24,0,.49.02.76s.01.54.02.82.01.55.01.82,0,.52,0,.76v3.4h-1.37Z"/>
      </g>
    </g>
  </g>
</svg>