<?xml version="1.0" encoding="utf-8"?>
<!-- Generator: Adobe Illustrator 27.2.0, SVG Export Plug-In . SVG Version: 6.00 Build 0)  -->
<svg version="1.2" baseProfile="tiny" id="Шар_1"
	 xmlns="http://www.w3.org/2000/svg" xmlns:xlink="http://www.w3.org/1999/xlink" x="0px" y="0px" viewBox="0 0 95 64"
	 overflow="visible" xml:space="preserve">
<g display="none">
	<path display="inline" fill="#EC1C24" d="M67,32.2C67,32.2,67,32.2,67,32.2C67,32.2,66.9,32.2,67,32.2c-0.1,0-0.2,0.1-0.2,0.1
		c0,0,0,0,0,0c0,0,0.1,0,0.1,0C66.8,32.3,66.9,32.3,67,32.2c0,0.1-0.1,0.1-0.1,0.1c0.1,0,0.2-0.1,0.2-0.1c0.1,0,0.1,0,0.2,0
		c-0.1,0-0.1,0-0.2,0C67.1,32.2,67.1,32.2,67,32.2c0.1,0,0.1,0,0.2,0c0,0,0,0,0,0c0,0,0,0,0,0c0,0,0.1,0,0.1,0c0,0,0,0,0,0
		c0,0,0,0,0.1,0c0,0,0,0,0.1,0c0,0,0,0,0,0c0,0,0,0,0,0c0,0,0,0,0,0c0,0,0.1,0,0.1,0c0,0,0,0,0,0c-0.1,0-0.2,0.1-0.2,0.1
		c0,0,0,0,0,0c0.1,0,0.2,0,0.2-0.1c0.1,0,0.1-0.1,0.2-0.1c0,0,0,0,0,0c0.1,0,0.1,0,0.2-0.1c0,0,0,0,0.1,0c0,0,0,0,0,0c0,0,0,0,0,0
		c0,0,0,0,0,0c0.1,0,0.1-0.1,0.1-0.1c0,0,0,0,0,0c0,0,0.1-0.1,0.1-0.1c0,0,0,0,0.1,0c0,0,0.1-0.1,0.1-0.1c0,0,0,0,0,0
		c0,0,0.1,0,0.1-0.1c0,0,0-0.1,0.1-0.1c0,0,0,0,0,0c0,0,0,0.1-0.1,0c0,0,0,0,0,0c0,0,0,0,0,0c0,0,0,0,0,0c-0.1,0-0.1,0-0.2,0.1
		c0,0,0,0,0,0c0,0-0.1,0.1-0.1,0.1c0,0,0,0-0.1,0c0,0,0-0.1,0.1-0.1c0,0,0,0,0,0c0,0,0,0,0,0c0,0,0,0,0,0c0,0,0.1-0.1,0.1-0.1
		c0,0,0,0,0-0.1c0,0,0,0,0.1,0c0,0,0,0,0,0c0,0,0,0,0,0c0.1,0,0.1,0,0.1-0.1c0,0,0.1-0.1,0.1-0.1c0,0,0,0,0,0c0,0,0,0,0,0
		c0,0,0,0,0,0c0,0,0,0.1,0,0.1c0,0,0,0,0,0c0,0,0,0,0,0c0.1,0,0.1-0.1,0.1-0.2c0,0,0,0,0,0c0,0,0,0,0,0l0,0c0-0.1,0-0.1,0-0.2
		c0,0,0,0,0,0c0,0,0,0,0,0c0,0,0,0,0,0c0,0,0-0.1,0-0.1c0,0,0,0,0.1,0c0,0,0,0,0,0c0,0,0,0.1,0,0.1c0,0,0,0,0,0.1c0,0,0,0,0,0
		c0,0,0,0,0,0l0,0c0,0,0,0.1,0,0.1c0,0,0,0,0-0.1c0.1-0.1,0.1-0.1,0.1-0.2c0,0,0,0,0,0c0,0,0,0,0,0c0,0,0,0,0,0c0,0,0,0-0.1,0
		c0,0,0,0,0,0c0,0,0-0.1,0.1-0.1c0,0,0,0,0-0.1c0,0,0,0,0-0.1c0,0,0,0,0,0.1c0,0,0,0,0,0c0,0,0,0,0,0c0,0,0,0,0-0.1
		c-0.1,0,0,0,0-0.1c0,0,0,0,0,0c0,0,0,0,0,0c0.1-0.1,0.1-0.1,0.1-0.2c0-0.1,0-0.1,0.1-0.1c0,0,0,0,0,0c0,0,0,0,0-0.1c0,0,0,0,0-0.1
		c0,0,0,0,0-0.1c0,0,0,0,0,0c0,0,0,0,0,0c0,0,0,0,0,0c0,0,0,0,0,0c0,0,0,0,0-0.1c0,0,0,0,0,0c0.1,0,0,0,0.1-0.1c0,0,0,0,0,0
		c0,0,0,0,0,0c0,0,0,0,0-0.1c0,0,0,0,0,0c0,0,0-0.1,0-0.1c0,0,0,0,0-0.1c0,0,0-0.1,0-0.1c0,0,0,0,0,0c0,0,0,0,0,0c0,0,0,0,0,0
		c-0.1,0-0.1-0.1-0.1-0.1c0,0,0-0.1,0-0.1c0,0,0,0,0,0c0,0,0,0,0,0c0,0,0,0,0,0c0,0,0,0,0.1,0c0,0,0,0,0,0c0,0,0,0,0,0
		c-0.1,0,0,0,0,0c0,0,0,0.1,0,0.1c0,0,0,0,0-0.1c0-0.1,0-0.1-0.1-0.2c0,0,0,0,0-0.1c0,0,0-0.1,0-0.1l0,0c0-0.1,0-0.1,0-0.2
		c0,0,0,0,0,0c0,0,0,0,0,0c0-0.1,0-0.1-0.1-0.2c0,0,0,0,0,0c0,0,0-0.1-0.1-0.1c0,0-0.1,0-0.1-0.1c0,0,0,0,0,0c0,0-0.1,0,0-0.1
		c0,0,0-0.1-0.1,0l0,0c0,0,0,0,0,0l0,0c0,0,0,0,0,0l0,0c0,0,0,0,0-0.1c0,0,0,0,0,0c0,0-0.1,0-0.1,0c0,0,0,0,0,0
		c0-0.1-0.1-0.1-0.1-0.1c0,0,0,0,0.1,0c0,0-0.1,0-0.1,0c0,0,0,0,0,0c0,0-0.1,0-0.1,0c0,0,0,0,0,0c0,0,0.1,0,0.1,0c0,0,0,0,0,0
		c0,0,0,0,0,0c0,0,0,0,0,0c0,0,0,0,0,0c0,0,0,0-0.1,0c0,0-0.1,0-0.1,0c0,0,0.1,0,0.1,0c0,0,0,0,0,0c0,0-0.1,0-0.1,0
		c-0.1,0-0.1,0-0.2,0c0,0-0.1,0-0.1,0c0,0,0,0,0,0c0,0,0,0,0,0c0,0,0.1,0,0.1,0c0,0,0.1,0,0.1,0c0,0,0,0,0,0c0,0,0,0,0,0
		c0,0,0,0-0.1-0.1c0,0,0,0,0,0c0,0-0.1,0-0.1,0c0,0,0,0-0.1,0c0,0-0.1,0-0.1,0c0,0,0,0,0,0c0,0-0.1,0-0.1,0c0,0,0,0,0,0c0,0,0,0,0,0
		c0,0,0,0,0,0c0,0-0.1,0-0.1,0c0,0-0.1,0-0.1,0c0,0,0,0,0,0c0,0,0,0,0,0c0,0-0.1,0-0.1,0c0,0-0.1,0-0.1,0c0,0,0,0-0.1,0
		c0,0,0.1-0.1,0.1-0.1c0,0,0,0,0,0c0,0,0,0,0,0c0,0,0-0.1,0.1-0.1c0,0,0,0,0,0.1c0,0,0,0,0.1,0c0,0,0,0,0,0c0,0,0,0,0,0
		c0,0,0,0,0.1-0.1c-0.3,0-0.5,0.1-0.7,0.2c0,0,0,0,0.1,0c0,0-0.1,0,0,0l0,0c0,0,0,0-0.1,0c0,0,0,0,0,0c0,0,0,0,0,0c0,0,0,0,0,0
		c0,0-0.1,0,0,0c0,0,0,0,0,0c-0.1,0-0.1,0-0.1,0c0,0,0,0,0.1,0c0,0-0.1,0.1-0.1,0.1c0,0,0,0,0,0c0,0,0,0,0,0c0,0,0,0,0,0
		c0,0,0,0,0,0c0,0,0,0,0,0c0,0,0,0-0.1,0c0,0-0.1,0,0,0.1c-0.1,0-0.1,0.1-0.2,0.1c0,0,0,0,0,0c0,0,0,0,0,0c0,0,0,0,0,0
		c0,0,0,0-0.1,0c0,0,0,0,0,0.1c0,0-0.1,0-0.1,0.1c0,0,0,0,0.1,0c0,0,0,0.1-0.1,0.1c0,0,0-0.1,0-0.1c0,0-0.1,0-0.1,0.1c0,0,0,0,0,0
		c0,0,0,0,0.1,0c0,0,0,0,0.1,0c0,0,0,0.1-0.1,0.1c0,0,0,0,0,0c0,0,0,0-0.1,0c0,0,0,0,0,0c0,0,0,0,0,0c0,0,0,0,0,0c0,0,0,0,0.1,0l0,0
		c0,0,0,0,0,0c0,0-0.1,0-0.1,0c0,0-0.1,0-0.1,0l0,0c0,0,0,0,0,0c0,0,0,0,0,0l0,0c0,0,0,0-0.1,0c0,0,0,0,0,0c0,0-0.1,0-0.1,0
		c0,0,0,0-0.1,0c0,0,0,0.1,0,0.1c0,0,0,0,0,0c0,0,0,0,0,0c0,0,0,0,0,0c0,0,0,0-0.1,0c0,0,0,0,0,0c0,0,0,0,0,0c0,0,0,0,0-0.1
		c0,0,0,0,0,0c0,0,0,0,0,0c0,0,0,0,0,0c0,0,0,0-0.1,0.1c0,0,0,0,0,0c0,0,0,0,0,0c0,0,0,0,0,0c0,0,0,0,0,0c0,0,0,0,0,0c0,0,0,0,0,0
		c0,0,0,0-0.1,0c0,0,0,0,0,0c0,0,0,0,0,0c0,0,0,0,0,0c0,0,0,0,0,0c0,0,0,0,0.1,0c0,0,0,0,0.1,0c0,0,0,0,0-0.1c0,0,0,0,0,0
		c0,0,0,0,0,0c0,0-0.1,0-0.1,0.1c0,0,0,0,0,0c0,0,0,0,0,0.1c0,0,0,0,0,0c0,0-0.1,0-0.1-0.1c0,0,0,0,0,0c-0.1,0-0.1,0-0.1,0
		c0,0,0,0,0,0c0,0,0,0,0,0c0,0,0,0,0,0c0,0,0,0,0-0.1c0,0,0,0,0,0c0,0,0,0,0,0c0,0,0,0,0,0c0,0,0,0,0,0c0.1,0,0.1,0,0.1,0
		c0,0,0,0,0,0c0,0,0,0,0,0c0,0,0,0,0,0c0,0,0,0,0,0c0,0,0,0,0,0c0,0,0.1,0,0.1,0c0,0,0,0,0.1,0c0,0,0,0,0.1,0c0,0,0,0,0,0
		c0,0,0,0,0,0c-0.1,0-0.2-0.1-0.2-0.1c0,0,0,0,0,0c0,0,0,0,0,0c0,0-0.1-0.1-0.1,0c0,0,0,0,0,0c0,0,0-0.1,0-0.1c0,0,0,0,0,0
		c0,0,0,0,0,0c0,0,0,0,0-0.1c0,0,0,0,0,0c0.1-0.1,0.1-0.2,0.2-0.3c0-0.1,0.1-0.2,0.2-0.2c0,0,0-0.1,0.1-0.1c0,0,0,0,0,0c0,0,0,0,0,0
		c0.1-0.1,0.1-0.2,0.2-0.3c0,0,0.1-0.1,0.1-0.1c0.1,0,0.1-0.1,0.2-0.2c0,0,0.1-0.1,0.1-0.1c0,0,0.1-0.1,0.1-0.1
		c0.1-0.1,0.2-0.1,0.3-0.3c0,0,0,0,0,0c0,0,0,0,0.1,0c0,0,0,0,0,0c0,0,0,0,0,0c0,0,0,0,0,0c0,0,0,0,0,0c0,0,0,0,0,0c0,0,0,0,0,0
		c0,0,0.1,0,0.1-0.1c0,0-0.1,0-0.1,0c0,0,0,0,0,0c0,0,0,0,0,0c0,0,0,0,0.1,0c0,0,0.1,0,0.1,0c0,0,0.1,0,0.1,0c0,0,0.1-0.1,0.1-0.1
		c0.1,0,0.1-0.1,0.2-0.1c0,0,0-0.1,0.1-0.1c0,0,0.1,0,0.1-0.1c0,0-0.1,0-0.1,0c-0.1,0-0.1,0-0.1,0c0,0,0,0,0,0c0,0,0,0,0,0
		c0,0-0.1,0-0.1,0c0,0-0.1,0-0.1,0c0,0-0.1,0-0.1,0c0,0,0,0,0,0c0,0-0.1,0-0.1,0c0,0-0.1,0,0,0.1c0,0,0,0,0,0c0,0,0,0-0.1,0
		c0,0-0.1,0-0.1,0.1c0,0,0,0,0,0c0,0,0,0,0,0c0,0,0,0-0.1,0c0,0,0-0.1,0-0.1c0,0.1-0.1,0-0.1,0.1c0,0,0,0-0.1,0c0,0,0,0-0.1,0
		c0,0,0,0,0.1,0c0,0,0,0,0,0c0,0,0,0,0,0c0,0.1-0.1,0-0.1,0.1c0,0-0.1,0-0.1,0c0,0-0.1,0-0.1,0c0,0,0,0-0.1,0c0,0,0,0,0,0
		c0-0.1-0.1,0-0.1,0c-0.1,0.1-0.3,0.1-0.5,0.2c0,0-0.1,0-0.2,0c0,0-0.1,0-0.1,0c0,0-0.1,0-0.1,0c-0.1,0-0.1,0-0.2,0.1c0,0,0,0,0,0
		c0,0,0,0,0,0c0,0,0,0,0,0c0,0,0,0,0,0.1l0,0c0,0,0,0,0,0c0,0,0,0,0,0c0,0,0,0,0,0c0,0,0,0,0,0c0,0,0,0,0,0c0,0,0,0,0,0l0,0
		c0,0,0,0,0,0c0,0,0,0,0,0c0,0,0,0,0,0c0,0,0,0-0.1,0c0,0,0,0,0,0c0,0,0,0,0,0c0,0,0,0,0,0c0,0,0,0,0,0c0,0,0,0-0.1,0c0,0,0,0,0,0
		c0,0,0,0,0,0c0,0,0,0-0.1,0c0,0,0,0,0,0c0,0,0,0,0,0.1c0,0,0-0.1,0-0.1c0,0,0.1,0,0.1,0c0,0,0,0,0,0c0,0,0,0,0.1,0c0,0-0.1,0-0.1,0
		c0,0-0.1,0-0.1,0c0,0,0,0,0.1,0c0,0,0,0,0,0c0,0,0,0,0,0c0,0,0,0,0,0c0,0,0,0-0.1-0.1c0,0,0,0,0,0c0,0,0,0,0,0c0,0,0,0,0,0
		c0,0,0,0,0,0c0,0,0,0,0,0c0,0,0,0,0,0c0,0,0-0.1,0-0.1c0,0,0,0,0,0c0,0,0,0,0,0c0,0,0-0.1,0-0.1c0,0,0,0,0,0c0,0,0.1,0,0.1,0.1
		c0,0,0,0-0.1,0c0,0,0,0,0,0c0,0,0,0,0,0c0,0,0,0,0,0c0,0,0,0,0,0c0,0,0,0,0,0c0,0,0,0,0,0c0,0,0,0,0,0c0-0.1,0-0.1-0.1-0.2
		c0,0,0,0,0,0c0,0,0,0,0.1,0c0,0,0-0.1-0.1-0.1c0,0,0,0,0,0c0,0,0,0,0,0c0,0,0,0,0,0c0,0,0,0,0,0c0,0,0,0,0,0c0,0,0,0,0,0
		c0,0,0.1,0,0.1,0c0,0,0,0,0,0c0,0,0,0,0,0c0,0,0,0,0,0c0,0,0.1,0,0.1,0c0,0,0,0,0,0c0,0,0,0,0,0c0,0,0,0,0,0c0,0,0,0,0,0
		c0,0,0,0-0.1,0c0,0,0,0-0.1,0c0,0,0,0,0,0c0,0,0,0,0,0c0,0,0,0,0,0c0.1,0,0.1-0.1,0.2,0c0.1,0,0.2,0,0.2-0.1c0,0,0,0,0,0
		c0,0,0,0,0,0.1c0,0,0,0,0,0c0,0,0,0,0,0c0,0,0,0,0,0c0,0-0.1,0-0.1,0c0,0,0.1,0,0.1,0c0,0,0,0,0,0c0-0.1,0-0.1,0.1-0.1
		c0,0,0.1,0,0.1,0c0,0,0,0-0.1,0c0,0-0.1,0-0.1,0c0,0,0,0,0,0c0,0,0,0,0,0c0,0,0.1,0,0.1,0c0,0,0,0-0.1,0.1c0,0,0,0,0,0
		c0,0,0.1-0.1,0.1-0.1c0,0,0,0,0,0l0,0c0,0,0,0,0.1,0c0,0,0,0,0,0c0,0,0,0,0.1,0c0-0.1,0-0.1,0-0.1c0.1,0,0.1,0,0.2,0c0,0,0,0,0,0.1
		c0,0,0.1,0,0.1,0c0,0.1-0.1,0.1-0.2,0.1c0,0,0,0,0,0c0,0,0,0,0,0c-0.1,0-0.1,0-0.2,0c0,0,0,0,0,0c0,0,0.1,0,0.1,0
		c0.1,0,0.1,0,0.2,0c0,0,0.1,0,0.1-0.1c0,0,0,0,0,0c0,0,0,0,0,0c0,0,0,0,0,0c0-0.1,0-0.1,0.1-0.1c0,0,0,0,0,0.1c0,0,0,0,0,0
		c0,0,0,0,0,0c0,0,0.1-0.1,0.2-0.1c0.1,0,0.1,0,0.1,0c0,0,0,0,0,0l0,0c0,0,0.1-0.1,0.2,0c0,0,0,0,0,0c0.1,0,0.1,0,0.1-0.1
		c0,0,0,0,0,0c0,0,0-0.1,0.1-0.1c0,0,0,0,0,0c0,0,0,0,0,0c0,0,0,0.1-0.1,0.1c0,0,0,0.1,0.1,0c0,0,0,0,0,0c0,0,0,0,0,0c0,0,0,0,0.1,0
		c0.1,0,0.1,0,0.1-0.1c0,0,0.1,0,0.1-0.1c0,0,0,0,0.1,0c0,0,0,0.1-0.1,0.1c-0.1,0-0.1,0-0.1,0.1c0,0,0,0,0,0c0,0,0,0,0.1,0
		c0,0,0,0,0,0c0,0,0,0,0.1,0c0,0,0,0,0.1,0c0,0,0,0,0-0.1c0,0,0,0,0,0c0.1,0,0,0,0.1-0.1c0,0,0,0,0.1,0c0,0,0.1,0,0.1,0c0,0,0,0,0,0
		c0,0,0,0,0,0c0,0,0,0,0,0c0,0,0,0,0,0c0,0,0-0.1,0.1-0.1c0,0,0,0,0,0c0,0.1,0,0,0,0c0,0-0.1,0,0,0.1c0,0,0,0,0,0c0,0-0.1,0-0.1,0
		c0,0,0,0,0,0c0.2-0.1,0.5-0.1,0.8-0.1c0,0,0,0-0.1,0c0,0,0,0,0,0c0,0,0,0,0,0c0,0,0,0,0,0c0,0,0,0,0,0c0,0,0,0,0,0
		c0,0.1-0.1,0-0.1,0c0.1,0,0.2,0,0.3-0.1c0,0,0,0,0,0c0,0,0,0-0.1,0c0,0,0,0,0,0c0,0,0,0,0,0c0,0,0,0,0,0c0,0,0,0,0,0c0,0,0,0,0,0
		c0,0,0,0,0,0c0,0,0,0,0.1,0c0,0,0,0,0,0c0,0,0,0,0,0c0.1,0,0.1,0,0.2,0c0,0,0.1,0,0.1,0c0,0,0,0,0,0c0,0-0.1,0-0.1,0
		c0,0-0.1,0-0.1,0c0,0,0,0,0,0c0,0,0,0,0,0c0,0,0,0,0.1,0c0,0,0,0,0,0c0,0,0,0,0,0c0,0,0.1,0,0.1-0.1c0.1,0,0.1,0,0.2,0
		c0,0-0.1,0-0.1,0c0,0,0,0,0,0c0,0,0,0,0.1,0c0,0,0.1,0,0.1,0c0,0,0.1,0,0.1,0c0,0,0,0,0,0l0,0c0,0,0,0,0,0c0,0,0,0,0,0
		c0,0,0,0,0.1,0c0,0,0,0,0,0l0,0c0,0,0,0,0,0l0,0c0,0,0,0-0.1,0c0,0,0,0,0,0c0,0,0,0,0,0c0,0,0,0,0,0c0,0,0,0,0,0c0,0,0,0,0,0
		c0,0,0,0.1,0,0.1c0,0,0,0,0,0l0,0c0,0,0,0,0,0c0,0,0,0,0,0c0,0,0,0,0,0c0,0,0,0,0,0c0,0,0,0,0,0c0,0,0,0,0,0c0,0,0,0,0,0
		c0,0.1,0,0.1-0.1,0.1c0,0,0,0,0,0c0,0-0.1,0.1,0,0.1c0,0,0,0,0,0c0,0-0.1,0-0.1,0c0,0,0,0,0,0c0,0,0,0,0,0c0,0,0,0,0,0
		c0,0,0,0,0,0.1c0,0,0,0,0,0c0,0,0,0.1,0,0.1c0,0,0,0-0.1,0c0,0,0,0,0,0c0,0,0,0,0,0c0,0,0,0.1,0,0.1c0,0,0,0,0,0c0,0,0,0,0,0
		c0,0,0,0,0,0c0,0,0,0,0,0c0,0.1,0,0-0.1,0c0,0,0,0.1,0,0.1c0,0,0,0,0,0c0,0,0,0,0,0c0,0,0-0.1,0-0.1c0,0,0,0,0-0.1c0,0,0,0,0,0
		c0,0,0,0,0-0.1c0,0,0,0,0,0c0,0.1-0.1,0.1-0.1,0.2c0,0,0.1,0,0.1,0c0,0,0,0,0,0c0,0,0,0,0,0c0,0,0,0,0,0c0,0,0,0,0,0c0,0,0,0,0,0.1
		c0,0,0,0,0,0c0,0,0,0,0,0c0,0,0,0,0,0c0,0,0,0,0,0c0,0,0,0,0,0c0,0,0,0,0,0c0,0,0,0,0,0c0,0,0,0,0,0.1l0,0c0,0-0.1,0,0,0.1
		c0,0,0,0,0,0.1c0,0,0,0,0,0c0,0,0,0,0,0c0,0,0,0.1,0,0.1c0,0,0,0,0,0c0,0,0,0,0,0c0,0,0,0,0,0c0,0,0,0,0,0c0,0,0,0,0,0
		c0,0,0,0.1-0.1,0.1c0,0,0,0,0,0.1c0,0,0,0,0,0c0,0,0,0,0,0c0,0,0,0.1,0,0.1c0,0,0,0,0,0c0,0,0,0,0,0c0,0,0-0.1,0.1-0.1c0,0,0,0,0,0
		c0,0,0,0,0,0.1c0,0-0.1,0,0,0.1c0,0,0,0.1,0,0.1c0,0,0.1,0,0-0.1c0,0,0,0,0,0c0,0,0,0,0,0c0,0,0-0.1,0-0.1c0,0,0,0,0,0.1
		c0,0,0,0,0,0c0,0,0,0,0,0c0,0,0,0,0.1,0c0,0,0,0,0,0c0,0,0.1,0,0.1,0c0,0,0,0,0.1,0c0,0,0,0,0,0c0.1,0,0.2,0,0.4,0.1
		c0.1,0,0.2,0,0.2,0.1c0,0,0,0,0,0c0,0,0,0,0,0c0,0,0,0,0,0c0,0,0,0,0,0c0,0,0.1,0,0.1,0c0,0,0.1,0.1,0.1,0.1c0,0,0,0,0,0
		c0,0,0,0,0,0c0,0,0,0,0,0c0,0,0.1,0,0.1,0.1c0.1,0,0.1,0.1,0.2,0.1c0,0,0,0,0,0c0,0,0,0,0,0c0,0,0,0,0,0c0.1,0.1,0.2,0.2,0.3,0.3
		c0.1,0.1,0.1,0.2,0.2,0.2c0,0,0,0,0,0c0,0,0,0,0,0c0,0,0,0,0,0c0,0.1,0.1,0.1,0.1,0.2c0,0,0,0.1,0,0.1c0,0,0,0,0,0c0,0,0,0,0,0
		c0,0.1,0.1,0.1,0.1,0.1c0,0,0,0.1,0.1,0.1c0,0,0,0.1,0,0.1c0,0,0,0,0,0c0,0,0,0,0,0.1c0,0.1,0.1,0.3,0.1,0.4c0,0,0,0,0,0.1
		c0,0,0,0,0,0.1c0,0,0,0.1,0,0.1c0,0,0,0,0,0c0,0.1,0,0.2,0,0.2c0,0,0,0,0,0.1c0,0,0,0,0,0c0,0,0,0,0,0c0,0,0,0,0,0c0,0,0-0.1,0-0.1
		c0,0,0,0.1,0,0.1c0,0,0,0.1,0,0.1c0,0,0,0,0,0c0,0,0,0.1,0,0.2c0,0,0,0,0,0c0,0.2,0,0.4,0,0.5c0,0.2-0.1,0.3-0.1,0.5
		c0,0.1,0,0.1-0.1,0.1c0,0,0,0,0,0.1c0,0,0,0,0,0.1c0,0,0,0,0,0c0,0,0,0,0,0c0,0,0,0,0,0.1c0,0-0.1,0-0.1,0.1c0,0,0.1,0,0.1,0
		c0,0.1-0.1,0.1-0.1,0.2c0,0,0,0,0,0c0,0,0,0,0,0c0,0,0,0,0,0c0,0,0,0,0,0c0,0,0,0,0,0.1c0,0.1,0,0.1-0.1,0.1c0,0-0.1,0.1-0.1,0.1
		c0,0,0,0,0,0c0,0,0,0-0.1,0.1c0,0,0,0,0.1,0c0,0,0,0.1-0.1,0.1c0,0,0,0,0-0.1c0,0-0.1,0-0.1,0.1c0,0,0,0.1-0.1,0.1
		c-0.1,0-0.1,0.1-0.2,0.1c0,0,0,0,0,0c0,0-0.1,0-0.1,0.1c0,0,0,0,0,0c0,0-0.1,0-0.1,0c0,0,0,0,0,0c0,0,0,0,0,0l0,0c0,0,0,0,0,0l0,0
		c0,0,0,0,0,0c0,0,0,0,0,0c0,0,0,0,0.1,0c0,0,0,0,0,0c0,0-0.1,0-0.1,0.1c0,0,0,0,0,0c0,0,0,0-0.1,0c0,0-0.1,0.1-0.1,0.1c0,0,0,0,0,0
		c0,0,0,0-0.1,0c0,0,0,0,0,0c-0.1,0-0.1,0.1-0.1,0.1c0,0,0,0,0,0c0,0,0,0,0,0c0,0,0,0-0.1,0c0,0,0,0,0,0c0,0,0,0-0.1,0c0,0,0,0,0,0
		c0,0,0,0,0,0c0,0,0,0,0,0c0,0,0,0,0,0c0,0,0,0,0,0c0,0,0,0,0,0c0,0,0,0-0.1,0c0,0,0,0,0,0c0,0,0,0,0,0c0,0-0.1,0-0.1,0c0,0,0,0,0,0
		c0,0,0,0,0,0c0,0,0,0,0,0c-0.1,0-0.1,0.1-0.2,0.1c0,0-0.1,0-0.1,0c0,0-0.1,0.1-0.2,0.1c0,0,0,0,0,0c0,0,0,0,0,0c0,0,0,0,0,0
		c0,0,0,0-0.1,0c0,0-0.1,0-0.1,0c0,0-0.1,0-0.1,0c0,0,0,0-0.1,0c0,0,0.1,0,0.1,0l0,0c0,0,0,0,0,0c0,0,0.1,0,0.1,0c0,0,0,0,0.1,0
		c0,0,0,0,0,0c0,0,0,0,0,0c0,0,0,0,0.1,0c0,0-0.1,0-0.1,0.1c0,0,0,0,0,0c0,0,0,0,0,0c0,0-0.1,0-0.1,0c0,0,0,0,0,0c0,0-0.1,0-0.1,0
		c0,0,0,0,0,0c-0.1,0-0.1,0-0.1,0.1c0,0,0,0,0,0c0,0-0.1,0-0.1,0c0,0,0,0-0.1,0c0,0,0.1-0.1,0.1-0.1c0,0,0,0-0.1,0c0,0,0,0,0,0
		c0,0,0,0-0.1,0c-0.1,0-0.1,0-0.2,0c0.1,0,0.1,0,0.1,0c0,0,0,0,0,0c0,0-0.1,0-0.1,0.1c0,0,0,0-0.1,0c0,0,0,0-0.1,0
		c-0.1,0-0.1,0-0.2,0c0,0,0,0,0,0c0,0,0.1,0,0.1,0c0.1,0,0.1,0,0.1,0c0,0,0,0,0,0c0,0,0,0-0.1,0c0,0,0,0,0,0c0,0-0.1,0-0.1,0
		c0,0,0,0-0.1,0c0,0,0,0-0.1,0c0,0,0.1,0,0,0c0,0-0.1,0-0.1,0c0,0,0.1,0,0.1,0.1c0,0,0,0,0,0c-0.1,0-0.1,0-0.2,0c0,0,0,0,0,0
		c0,0,0,0,0,0c0,0,0,0,0,0c0,0,0,0,0,0c0,0,0,0-0.1,0c0,0,0,0-0.1,0c-0.1,0-0.2,0-0.3,0c0,0-0.1,0-0.1,0c0,0,0,0,0,0c0,0,0,0,0,0
		c0,0,0,0,0,0c0,0,0,0,0,0c0,0-0.1,0-0.1,0c0,0,0,0,0,0c0,0-0.1,0-0.1-0.1c0,0,0,0,0,0c0,0,0,0-0.1,0c0-0.1-0.1-0.1-0.2-0.1
		c-0.1,0-0.2,0-0.2-0.1c0,0-0.1-0.1-0.1-0.1c0,0,0,0-0.1,0c0,0,0,0,0,0c0,0,0,0,0,0c0,0,0,0,0,0c0,0,0.1,0,0.1,0
		c-0.1,0,0-0.1-0.1-0.1c0,0,0,0,0,0c0,0,0,0,0,0c0,0,0,0,0,0.1c0,0,0,0,0,0c0,0,0,0,0,0c0,0,0,0,0,0c0,0,0,0,0,0c0,0,0,0,0,0
		c0,0,0,0,0,0c0,0,0,0,0,0c0,0,0,0,0,0c0,0,0,0,0,0c0,0,0,0,0,0c0,0,0,0,0,0c0,0,0,0-0.1-0.1c0,0,0,0,0,0c0,0,0-0.1,0-0.1
		c0,0,0,0-0.1,0l0,0c-0.1,0,0,0,0-0.1c0,0,0,0,0,0c0,0,0,0,0,0c0,0,0,0-0.1,0c0,0,0,0,0,0c0,0,0,0,0,0c0,0,0,0,0,0c0,0,0,0-0.1,0
		c0,0,0,0,0,0c0,0,0,0,0,0c0,0,0,0,0,0c0,0,0,0,0,0c0,0,0,0,0,0c0,0,0,0,0,0c0,0,0,0,0,0c0,0,0,0,0,0c0,0,0,0-0.1,0c0,0,0,0,0,0
		c0,0,0,0,0,0c0,0,0,0,0,0c0,0,0,0,0,0c0,0,0,0,0,0c0,0,0,0,0-0.1c0,0,0,0,0,0c0,0,0,0,0,0c0,0,0,0,0,0c0,0,0.1,0,0.1,0
		c-0.1,0-0.1-0.1-0.2-0.2c0,0,0,0,0,0c0,0-0.1,0-0.1-0.1c0,0,0-0.1,0-0.1c0,0,0,0,0,0.1c0,0,0,0,0,0c0,0,0-0.1,0-0.1c0,0,0,0,0,0
		c0,0,0,0,0,0c0,0,0,0,0,0c0,0,0,0,0,0c0,0,0,0,0,0.1c0,0,0,0,0,0c0,0,0,0,0-0.1c0,0,0,0,0-0.1c0,0,0,0,0,0c0,0,0,0,0,0
		c0,0,0-0.1,0.1-0.1c0,0,0,0,0,0c0,0,0-0.1,0-0.1c0,0,0,0,0.1,0c0,0,0,0,0,0c0,0,0,0,0,0c0,0,0,0,0,0c0,0,0,0,0,0c0,0,0,0,0,0
		c0,0.1,0,0,0,0c0,0,0,0,0,0c0,0,0,0,0,0c0,0,0,0,0,0c0,0,0,0,0,0c0,0,0,0,0,0c0,0,0,0,0.1,0.1c0,0,0,0,0.1,0c0,0,0,0,0,0
		c0,0,0,0,0,0c0,0-0.1,0-0.1,0c0,0.1,0,0.1,0,0.1c0,0,0,0,0,0c0,0,0.1,0,0.1,0c0.1,0,0.1,0.1,0.2,0.1c0,0,0,0,0,0c0,0,0,0-0.1,0
		c0,0,0,0,0.1,0.1c0,0,0,0,0,0c0,0,0.1,0,0.1,0.1c0,0,0,0-0.1,0c0,0,0,0,0,0c0,0,0,0,0,0c0,0,0,0,0,0l0,0c0,0,0,0,0,0
		c0.1,0,0.1,0,0.1,0.1c0,0,0.1,0.1,0.1,0.1c0.1,0,0.2,0.1,0.2,0.1c0,0,0.1,0,0.1,0c0,0,0,0,0.1,0c0.1,0,0.1,0,0.2,0c0,0,0,0,0,0l0,0
		c0,0,0,0,0,0c0,0-0.1,0-0.1,0c0.1,0,0.1,0,0.2,0c0,0,0,0,0,0c0,0,0,0,0.1,0c0,0,0,0,0,0c0.1,0,0.1,0,0.1,0.1c0,0.1,0.1,0,0.1,0
		c0,0,0,0,0,0c0,0,0,0,0,0c0,0,0,0,0,0c0,0,0.1,0,0.1,0c0,0,0,0,0,0c0.1,0,0.1,0,0.2,0c0,0,0,0,0,0c0,0,0,0,0,0c0,0-0.1,0-0.1,0
		c0.1,0,0.2,0,0.3,0.1c0,0,0,0,0,0c0,0,0,0,0,0c0,0,0,0,0,0c0,0,0,0,0.1,0c0,0,0,0,0,0c0,0-0.1,0-0.1,0c-0.1,0-0.2,0-0.3,0
		c0,0,0,0,0,0c0,0,0.1,0,0.1,0c0,0,0,0,0,0c0,0,0.1,0,0.1,0c0,0,0,0,0,0c0.1,0,0.2,0,0.3,0c0.1,0,0.2,0,0.3,0c0,0,0,0,0,0
		c0,0,0.1,0,0.1,0c0,0,0,0,0,0c0,0,0,0-0.1,0c0,0-0.1,0-0.1,0c0,0-0.1,0-0.1,0c0,0,0,0,0,0c0.1,0,0.2,0,0.3,0c0,0,0.1,0,0.1-0.1
		c0,0,0-0.1,0-0.1c0,0,0.1,0,0.2,0C66.9,32.2,66.9,32.2,67,32.2C66.9,32.2,66.9,32.2,67,32.2C66.9,32.2,66.9,32.2,67,32.2
		C67,32.2,67,32.2,67,32.2z M69.4,31.3C69.4,31.3,69.4,31.3,69.4,31.3C69.4,31.3,69.4,31.3,69.4,31.3C69.4,31.3,69.4,31.3,69.4,31.3
		C69.4,31.3,69.4,31.3,69.4,31.3C69.4,31.3,69.4,31.3,69.4,31.3C69.4,31.3,69.4,31.3,69.4,31.3C69.4,31.3,69.4,31.3,69.4,31.3
		C69.3,31.3,69.3,31.4,69.4,31.3C69.3,31.4,69.4,31.3,69.4,31.3C69.4,31.3,69.4,31.3,69.4,31.3C69.4,31.3,69.4,31.3,69.4,31.3
		C69.4,31.3,69.4,31.3,69.4,31.3z M68.5,27.9L68.5,27.9L68.5,27.9C68.5,27.9,68.5,27.9,68.5,27.9C68.6,28,68.6,28,68.5,27.9
		C68.6,28,68.6,28,68.5,27.9C68.6,28,68.6,28,68.5,27.9C68.5,27.9,68.5,27.9,68.5,27.9z M69.3,30.8C69.2,30.8,69.2,30.8,69.3,30.8
		C69.2,30.8,69.2,30.8,69.3,30.8c-0.1,0.1-0.1,0.1-0.1,0.1c0,0,0,0,0,0C69.2,30.9,69.2,30.8,69.3,30.8
		C69.2,30.8,69.2,30.8,69.3,30.8C69.2,30.8,69.2,30.8,69.3,30.8C69.3,30.7,69.3,30.7,69.3,30.8C69.3,30.7,69.2,30.7,69.3,30.8z
		 M65.2,33L65.2,33L65.2,33C65.2,32.9,65.3,33,65.2,33C65.3,32.9,65.3,32.9,65.2,33C65.2,32.9,65.2,32.9,65.2,33
		C65.2,32.9,65.2,32.9,65.2,33c-0.1-0.1-0.2-0.1-0.2-0.1c0,0,0,0,0.1,0c0,0-0.1,0-0.1,0C65.1,32.9,65.1,33,65.2,33z M65.3,33
		C65.3,33,65.3,33,65.3,33C65.3,33,65.3,33,65.3,33C65.3,33,65.3,33,65.3,33C65.4,33,65.4,33,65.3,33C65.4,33,65.4,33,65.3,33
		c0.1,0.1,0.2,0.1,0.2,0.1c0.1,0,0.1,0,0.2,0c0,0,0,0,0,0c0,0,0,0,0,0c0,0,0.1,0,0.1,0c0,0,0,0,0.1,0c0,0,0,0,0,0c0,0,0,0,0,0
		c0,0,0,0,0,0c0,0,0,0,0,0c0,0,0,0,0.1,0c0,0,0,0,0,0c0,0,0,0,0,0c0,0,0.1,0,0.1,0c0,0-0.1,0-0.1,0c0,0-0.1,0-0.1,0
		c-0.1,0-0.3,0-0.4-0.1C65.4,33,65.4,32.9,65.3,33C65.3,32.9,65.3,33,65.3,33C65.4,33,65.4,33,65.3,33z M69.4,31.2
		C69.5,31.2,69.5,31.2,69.4,31.2c0.1,0,0.2-0.1,0.2-0.1c0,0,0-0.1,0-0.1c0,0,0,0,0,0c0,0,0,0,0,0c0,0,0,0,0,0c0,0,0,0,0,0
		c0,0,0,0,0,0C69.6,31,69.5,31,69.4,31.2C69.5,31.1,69.5,31.1,69.4,31.2C69.5,31.1,69.5,31.1,69.4,31.2
		C69.4,31.1,69.4,31.2,69.4,31.2z M65,32.8c-0.1,0-0.1,0-0.2-0.1c0,0,0,0,0,0c0,0,0,0,0.1,0.1C64.9,32.8,64.9,32.9,65,32.8
		C65,32.8,65,32.8,65,32.8z M65.2,32.2c0.1,0,0.1,0,0.2,0C65.3,32.1,65.3,32.1,65.2,32.2z M64,26.8C64,26.8,64.1,26.8,64,26.8
		C64.1,26.8,64.1,26.8,64,26.8c0.1,0.1,0.1,0.1,0.1,0.1c0,0,0,0,0,0c0,0,0,0,0,0C64.1,26.8,64.1,26.7,64,26.8z M64,31.4
		c0,0.1,0.1,0.1,0.1,0.1c0,0,0,0,0,0c0,0,0,0,0,0C64.1,31.5,64.1,31.4,64,31.4C64.1,31.4,64.1,31.4,64,31.4
		C64.1,31.4,64.1,31.4,64,31.4z M67.4,25.9c0,0,0.1,0,0.1,0c0,0,0,0,0,0C67.5,25.8,67.5,25.9,67.4,25.9z M66.6,26.3
		C66.5,26.3,66.5,26.3,66.6,26.3C66.5,26.3,66.5,26.3,66.6,26.3C66.5,26.3,66.6,26.3,66.6,26.3z M68.6,31.5
		C68.6,31.5,68.6,31.6,68.6,31.5C68.5,31.6,68.5,31.6,68.6,31.5C68.5,31.6,68.6,31.6,68.6,31.5C68.6,31.6,68.6,31.6,68.6,31.5z
		 M69.8,30.6C69.8,30.6,69.9,30.6,69.8,30.6C69.8,30.6,69.8,30.6,69.8,30.6C69.8,30.6,69.8,30.6,69.8,30.6z M66.2,26.6
		C66.2,26.5,66.2,26.5,66.2,26.6C66.2,26.5,66.2,26.5,66.2,26.6C66.2,26.5,66.1,26.5,66.2,26.6C66.1,26.6,66.2,26.5,66.2,26.6z
		 M68.1,27.8c0,0-0.1,0-0.1,0C68,27.8,68,27.9,68.1,27.8z M67,32.3c0,0,0.1,0,0.1,0C67.1,32.3,67,32.3,67,32.3z M69.6,30.9
		C69.7,30.9,69.7,30.8,69.6,30.9C69.7,30.8,69.6,30.8,69.6,30.9C69.6,30.8,69.6,30.9,69.6,30.9z M69.4,31C69.4,31,69.5,31,69.4,31
		C69.5,31,69.5,30.9,69.4,31C69.4,31,69.4,31,69.4,31z M69.9,30.3C69.9,30.3,69.9,30.3,69.9,30.3C69.9,30.3,69.9,30.3,69.9,30.3
		C69.9,30.3,69.9,30.3,69.9,30.3C69.9,30.3,69.9,30.3,69.9,30.3z M69.1,30.9C69.1,30.9,69.1,31,69.1,30.9
		C69.1,31,69.1,30.9,69.1,30.9C69.1,31,69.1,31,69.1,30.9C69.1,31,69.1,31,69.1,30.9C69.1,31,69.1,31,69.1,30.9z M63.9,31.2
		C63.9,31.3,63.9,31.3,63.9,31.2C63.9,31.3,63.9,31.3,63.9,31.2C63.9,31.3,63.9,31.3,63.9,31.2z M65.2,32.1
		C65.2,32.1,65.2,32.1,65.2,32.1C65.2,32.1,65.2,32.1,65.2,32.1z M66.3,28.7C66.3,28.7,66.3,28.7,66.3,28.7
		C66.2,28.7,66.2,28.7,66.3,28.7C66.2,28.7,66.2,28.7,66.3,28.7C66.3,28.7,66.3,28.7,66.3,28.7z M67.9,26.1
		C67.8,26.1,67.8,26.1,67.9,26.1C67.8,26.1,67.8,26.1,67.9,26.1C67.8,26.1,67.8,26.1,67.9,26.1C67.8,26.1,67.8,26.1,67.9,26.1z
		 M67.4,26.7C67.4,26.7,67.4,26.7,67.4,26.7C67.4,26.7,67.4,26.7,67.4,26.7C67.4,26.7,67.4,26.7,67.4,26.7
		C67.4,26.7,67.4,26.7,67.4,26.7z M67.4,32.1C67.4,32.1,67.4,32.1,67.4,32.1C67.4,32.1,67.4,32.1,67.4,32.1
		C67.4,32.1,67.4,32.1,67.4,32.1C67.4,32.1,67.4,32.1,67.4,32.1z"/>
	<g display="inline">
		<g>
			<path stroke="#231F20" stroke-width="0.5" stroke-miterlimit="10" d="M46.8,39.1c-2.8-3.6-5.5-7.2-8.3-10.8c-0.8-1-1.5-2-2.3-2.9
				c4.4-0.2,8.8-0.5,13.2-0.7c0,0,0,0,0,0c-4.4,0.2-8.9,0.3-13.3,0.5c-0.2,0-0.1,0.2,0,0.2c0,0,0,0,0,0c1.2,1.8,2.6,3.6,3.9,5.3
				c1.4,1.8,2.7,3.7,4.1,5.5c0.8,1,1.6,2.1,2.4,3.1C46.6,39.5,46.9,39.3,46.8,39.1z"/>
		</g>
		<g>
			<path stroke="#231F20" stroke-width="0.5" stroke-miterlimit="10" d="M65.1,36.3c-2.3-3.1-4.7-6.1-7-9.2c-0.6-0.8-1.3-1.7-2-2.5
				c3.7-0.2,7.5-0.4,11.2-0.6c0,0,0,0,0,0c-3.8,0.2-7.5,0.3-11.3,0.4c-0.1,0-0.1,0.2,0,0.2c0,0,0,0,0,0c1,1.6,2.2,3,3.3,4.5
				c1.2,1.6,2.3,3.1,3.5,4.6c0.7,0.9,1.3,1.8,2,2.7C65,36.6,65.2,36.5,65.1,36.3z"/>
		</g>
		<g>
			<path stroke="#231F20" stroke-width="0.5" stroke-miterlimit="10" d="M62.9,37.1c0-0.1-0.1-0.1-0.1-0.2c-2.6,0.3-5.2,0.7-7.8,1
				c-1.3,0.2-2.7,0.4-4,0.5c-1.4,0.2-2.8,0.3-4.1,0.6c-0.1,0-0.1,0.2,0,0.2c1.4-0.1,2.8-0.3,4.2-0.5c1.3-0.2,2.7-0.3,4-0.5
				c2.6-0.3,5.2-0.7,7.8-1C63,37.1,62.9,37.1,62.9,37.1z"/>
		</g>
		<g>
			<path stroke="#231F20" stroke-width="0.5" stroke-miterlimit="10" d="M56.9,29.5c-0.2-0.3-2.8-3.6-3-3.8
				c-0.2-0.3-0.5-0.6-0.8-0.9c0,0-0.1,0,0,0c0.2,0.3,0.4,0.7,0.6,1c0.2,0.3,2.8,3.6,3,3.8C56.8,29.7,57,29.7,56.9,29.5z"/>
		</g>
		<g>
			<path stroke="#231F20" stroke-width="0.5" stroke-miterlimit="10" d="M62.8,37c-0.2-0.4-0.5-0.8-0.8-1.1
				c-0.3-0.4-0.6-0.8-0.9-1.1c-0.6-0.8-1.2-1.5-1.8-2.3c-0.6-0.8-1.2-1.5-1.8-2.3c-0.3-0.4-0.6-0.7-0.9-1.1c-0.3-0.3-0.6-0.8-0.9-1
				c0,0,0,0,0,0c0.1,0.4,0.5,0.7,0.7,1.1c0.3,0.4,0.6,0.8,0.8,1.2c0.6,0.8,1.1,1.5,1.7,2.3c0.6,0.8,1.2,1.5,1.8,2.3
				c0.3,0.4,0.6,0.8,0.9,1.1c0.3,0.4,0.5,0.8,0.9,1.1C62.7,37.3,62.9,37.2,62.8,37z"/>
		</g>
		<g>
			<path stroke="#231F20" stroke-width="0.5" stroke-miterlimit="10" d="M52.9,24.5c-0.8,0-2.3,0.1-3.1,0.3v0c0.8,0,2.3,0.1,3.2,0
				C53.1,24.7,53,24.5,52.9,24.5z"/>
		</g>
		<g>
			<path stroke="#231F20" stroke-width="0.5" stroke-miterlimit="10" d="M78.6,12.5L78.6,12.5C78.6,12.5,78.6,12.5,78.6,12.5
				c0,0.1-0.1,0.1-0.1,0.2c0,0.1,0.1,0.1,0.1,0.1c0,0,0,0,0-0.1c0.2,0.7,0.4,1.4,0.7,2.1c0,0.1,0.2,0,0.1,0
				c-0.2-0.7-0.5-1.4-0.8-2.1C80.9,9.5,83,6.2,85.1,3l0,0C82.9,6.1,80.7,9.3,78.6,12.5C78.6,12.5,78.6,12.5,78.6,12.5z"/>
			<path stroke="#231F20" stroke-width="0.5" stroke-miterlimit="10" d="M82.9,13.1c-0.3,0.4-0.6,0.8-0.8,1.2c0,0,0,0-0.1,0
				c-0.8,0.1-1.6,0.4-2.3,0.6l0,0c0.8-0.1,1.6-0.3,2.3-0.5c0,0,0,0,0,0c-0.1,0.1,0.1,0.2,0.2,0.1c0.3-0.4,0.6-0.9,0.9-1.3
				c0.3-0.4,0.6-0.9,0.9-1.3c0.6-0.9,1.1-1.7,1.7-2.6c1.2-1.7,2.3-3.4,3.4-5.2c0,0,0,0,0,0c-1.2,1.7-2.4,3.4-3.6,5.2
				c-0.6,0.9-1.2,1.7-1.8,2.6C83.5,12.2,83.2,12.6,82.9,13.1z"/>
			<path stroke="#231F20" stroke-width="0.5" stroke-miterlimit="10" d="M72.5,23.4c0.7-0.9,1.2-2,1.8-3c0.6-1,1.2-2,1.8-3
				c0,0,0,0,0,0c-0.6,1-1.2,2-1.8,3C73.6,21.4,72.9,22.3,72.5,23.4C72.4,23.3,72.4,23.4,72.5,23.4z"/>
			<path stroke="#231F20" stroke-width="0.5" stroke-miterlimit="10" d="M72.1,23.5C72.1,23.5,72.2,23.5,72.1,23.5
				c0.6-0.9,1.1-1.9,1.6-2.9l0,0C73.2,21.6,72.7,22.5,72.1,23.5z"/>
			<path stroke="#231F20" stroke-width="0.5" stroke-miterlimit="10" d="M77.7,16.5c-1.3,2.2-2.6,4.4-3.8,6.6c0,0,0,0,0,0
				C75.2,21,76.5,18.8,77.7,16.5L77.7,16.5z"/>
			<path stroke="#231F20" stroke-width="0.5" stroke-miterlimit="10" d="M76.3,17.9c0.8-1.3,1.5-2.7,2.1-4.1l0,0
				C77.7,15.1,76.9,16.5,76.3,17.9L76.3,17.9z"/>
			<path stroke="#231F20" stroke-width="0.5" stroke-miterlimit="10" d="M78.1,13.5c-0.4,0.6-0.8,1.2-1.2,1.8l0,0
				C77.4,14.7,77.7,14.1,78.1,13.5C78.1,13.5,78.1,13.5,78.1,13.5z"/>
			<path stroke="#231F20" stroke-width="0.5" stroke-miterlimit="10" d="M75.7,15.1c0.3-0.5,0.6-0.9,0.9-1.4l0,0
				C76.3,14.2,76,14.6,75.7,15.1C75.7,15.1,75.7,15.1,75.7,15.1z"/>
			<path stroke="#231F20" stroke-width="0.5" stroke-miterlimit="10" d="M76,23.8C76,23.8,76,23.9,76,23.8c1.4-1.6,2.9-3.2,4.3-4.7
				C78.8,20.7,77.4,22.3,76,23.8z"/>
			<path stroke="#231F20" stroke-width="0.5" stroke-miterlimit="10" d="M75.8,23.3c0.9-1,1.8-2,2.7-3.1l0,0
				C77.6,21.2,76.7,22.3,75.8,23.3C75.8,23.3,75.8,23.3,75.8,23.3z"/>
			<path stroke="#231F20" stroke-width="0.5" stroke-miterlimit="10" d="M75.3,23.2c1.4-2.2,2.8-4.3,4.1-6.5l0,0
				C78,18.8,76.6,20.9,75.3,23.2C75.2,23.1,75.3,23.2,75.3,23.2z"/>
			<path stroke="#231F20" stroke-width="0.5" stroke-miterlimit="10" d="M76.9,19.2c0.3-0.4,0.6-0.8,0.9-1.2c0,0,0,0,0,0
				C77.5,18.4,77.2,18.8,76.9,19.2C76.9,19.2,76.9,19.2,76.9,19.2z"/>
			<path stroke="#231F20" stroke-width="0.5" stroke-miterlimit="10" d="M74.3,25.2c0.2-0.4,0.5-0.7,0.7-1c0,0,0,0,0,0
				C74.7,24.5,74.5,24.8,74.3,25.2C74.3,25.2,74.3,25.2,74.3,25.2z"/>
			<path stroke="#231F20" stroke-width="0.5" stroke-miterlimit="10" d="M77.5,23.4C77.5,23.4,77.5,23.4,77.5,23.4
				c0.4-0.4,0.9-0.8,1.3-1.2c0,0,0,0,0,0C78.3,22.5,77.9,23,77.5,23.4z"/>
			<path stroke="#231F20" stroke-width="0.5" stroke-miterlimit="10" d="M82.1,15.1c-1.1,1.4-2.3,2.8-3.4,4.3c0,0,0,0.1,0,0
				C79.9,18,81,16.5,82.1,15.1C82.1,15.1,82.1,15.1,82.1,15.1z"/>
			<path stroke="#231F20" stroke-width="0.5" stroke-miterlimit="10" d="M80.8,15.1c-0.3,0.4-0.5,0.7-0.8,1.1l0,0
				C80.3,15.8,80.6,15.5,80.8,15.1C80.8,15.1,80.8,15.1,80.8,15.1z"/>
			<path stroke="#231F20" stroke-width="0.5" stroke-miterlimit="10" d="M82.8,18.5c0.4-0.4,0.8-0.8,1.2-1.3l0,0
				C83.6,17.6,83.2,18,82.8,18.5C82.7,18.5,82.8,18.6,82.8,18.5z"/>
			<path stroke="#231F20" stroke-width="0.5" stroke-miterlimit="10" d="M94.5,5.9c-0.9,1.1-1.9,2.3-2.8,3.4
				c0.8-1.1,1.7-2.2,2.5-3.3c0,0,0,0,0,0c-1.7,2-3.3,4.1-5,6.2c-0.8,1-1.6,2.1-2.4,3.1c-0.4,0.5-0.9,1.1-1.3,1.6c0,0-0.1,0-0.1,0
				c0,0,0,0,0,0c0,0,0,0,0,0c-0.8,0-1.7,0-2.5,0.1c0-0.4,0-0.7-0.1-1.1c0-0.4-0.1-0.8-0.2-1.2h0c0,0.4,0,0.7,0,1.1
				c0,0.2,0,0.4,0,0.6c-0.3,0.4-0.7,0.7-1,1.1c0,0,0,0,0,0c0.3-0.4,0.7-0.7,1-1.1c0,0.2,0,0.4,0.1,0.6c0,0,0.1,0.1,0.1,0
				c0.1,0,0.2,0,0.3,0c-0.5,0.6-1.1,1.2-1.6,1.8c0,0,0,0,0,0c0.5-0.6,1.1-1.2,1.6-1.8c0.7,0.1,1.4,0.1,2,0.1
				c-0.4,0.5-0.9,0.9-1.3,1.4c0,0.1,0.1,0.1,0.1,0.1c0.5-0.5,0.9-1,1.3-1.5c0,0,0.1,0,0.1,0c-0.3,0.4-0.6,0.8-0.9,1.2
				c-3,2.7-5.9,5.4-8.9,8.1c0.1-0.2,0.2-0.4,0.3-0.6c0-0.1,0-0.1-0.1-0.1c2.3-2.2,4.5-4.6,6.8-6.9l0,0c-2.3,2.3-4.7,4.6-7,7
				c-0.1,0.1-0.2,0.1-0.2,0.2c0,0-0.1,0-0.1,0c-0.3,0.2-0.5,0.4-0.8,0.7c0.1-0.1,0.1-0.2,0.2-0.3c0.2-0.3,0.5-0.6,0.7-1c0,0,0,0,0,0
				l0-0.1c0,0,0-0.1,0.1-0.1c0,0,0,0,0,0c0,0-0.1,0.1-0.1,0.1c0,0,0,0,0,0c0.3-0.3,0.6-0.7,0.9-1c0,0,0,0,0,0
				c-0.3,0.4-0.6,0.7-1,1.1c-0.5,0.3-1,0.7-1.4,1.1c0.1-0.1,0.1-0.2,0.2-0.3c0.1-0.2,0.3-0.4,0.4-0.6c0-0.1,0.1-0.1,0.1-0.2
				c0,0,0,0,0,0l0,0l0,0c0,0-0.1,0.1-0.1,0.1c0,0,0.1-0.1,0.1-0.1c0,0,0,0,0,0c-0.3,0.3-0.6,0.7-0.9,1c0.3-0.5,0.5-1,0.7-1.5
				c0,0,0,0,0,0c-0.1,0.1-0.2,0.3-0.3,0.5c0,0,0,0,0-0.1c0.1-0.1,0.1-0.2,0.2-0.4c0,0,0,0,0,0c0,0,0-0.1,0.1-0.1
				c0-0.1-0.1-0.1-0.1-0.1c0,0.1-0.1,0.1-0.1,0.2c0.4-0.6,0.7-1.2,1.1-1.8c0,0,0,0,0,0c-0.4,0.7-0.9,1.4-1.3,2.1c0,0,0,0,0,0
				c-0.1,0.1-0.2,0.2-0.3,0.3c-0.1,0.1-0.2,0.2-0.2,0.3c0.1-0.3,0.3-0.6,0.4-0.9c0.1-0.1,0.1-0.3,0.2-0.4c0-0.1,0.1-0.2,0.1-0.3
				c0,0,0,0,0,0c-0.1,0.1-0.2,0.3-0.2,0.4c-0.1,0.1-0.1,0.2-0.2,0.2l0,0c0.1-0.2,0.2-0.3,0.3-0.5l0,0c-0.2,0.1-0.4,0.3-0.5,0.5
				c0,0,0,0-0.1,0c0,0.1-0.1,0.1-0.1,0.2c0.1-0.2,0.2-0.3,0.3-0.5c0,0,0,0,0,0c-0.1,0.1-0.2,0.2-0.3,0.4c0,0,0,0,0,0c0,0,0,0,0,0
				c0-0.1,0.1-0.3,0.1-0.4c0,0,0-0.1,0-0.1c0,0,0,0,0,0c-0.1,0.1-0.1,0.2-0.2,0.3c0,0,0,0,0,0c0.1-0.2,0.3-0.3,0.4-0.5c0,0,0,0,0,0
				c0,0,0,0,0,0c0.1-0.1,0.1-0.2,0.2-0.2l0,0c0.3-0.4,0.5-0.9,0.7-1.4c0.3-0.5,0.6-1.1,0.9-1.6l0,0c-0.3,0.6-0.7,1.1-1,1.7
				c-0.3,0.5-0.7,1-0.9,1.6c-0.3,0.3-0.6,0.6-0.8,0.9c0,0,0,0,0,0c-0.1,0.1-0.1,0.1-0.2,0.2c0-0.1,0.1-0.2,0.1-0.3c0,0,0,0,0,0
				c0,0,0,0,0,0c0-0.1,0-0.2,0.1-0.3h0c0,0.1-0.1,0.2-0.1,0.3c0-0.1,0.1-0.2,0.1-0.3c0,0,0,0,0,0c-0.1,0.2-0.2,0.3-0.4,0.5
				c0,0,0,0,0,0s0,0,0,0l0,0c0.1-0.2,0.3-0.4,0.4-0.6l0,0c-0.2,0.3-0.5,0.6-0.7,0.9c0-0.1,0-0.3,0.1-0.4c0.1-0.3,0.3-0.6,0.4-0.9
				c0.2-0.5,0.5-1,0.7-1.5c0.2-0.5,0.4-0.9,0.6-1.4c0.5-0.9,1-1.8,1.6-2.7c0.7-1.2,1.5-2.4,2.2-3.6c0,0,0,0,0,0
				c-0.8,1.2-1.5,2.4-2.2,3.6c-0.4,0.7-0.8,1.4-1.3,2.1c0.2-0.4,0.3-0.8,0.5-1.2c0.5-1.1,0.9-2.1,1.4-3.2c0.2-0.5,0.5-1,0.7-1.5
				c0.2-0.5,0.5-1,0.6-1.5c0.7-0.1,1.3-0.4,1.9-0.6c0,0,0,0,0,0c-0.6,0.1-1.3,0.3-1.9,0.6c1.2-1.7,2.4-3.4,3.6-5.2L82,5
				c0.3-0.5,0.6-0.9,1-1.4c0.1-0.1,0.2-0.2,0.2-0.3c0,0,0,0,0,0c0.1-0.2,0.2-0.3,0.3-0.5c0.2-0.3,0.5-0.7,0.7-1
				c0.1-0.1-0.1-0.3-0.2-0.2c-0.7,0.9-1.4,1.9-2,2.9c-0.7,0.9-1.3,1.9-2,2.8c-0.7,0.9-1.3,1.9-2,2.8c-0.3,0.5-0.7,0.9-1,1.4
				c-0.2,0.3-0.5,0.7-0.7,1.1c0,0,0,0-0.1,0.1c-0.5,1-0.9,2.1-1.4,3.1c-0.5,1.1-0.9,2.1-1.4,3.2c-0.4,0.9-0.8,1.8-1.1,2.7
				c-1.3,2.7-2.5,5.5-3.8,8.2c-0.1,0.2-0.3,0.6-0.4,0.8l-0.3,0.6l0,0.1c0,0-0.1,0.2-0.1,0.3c0,0,0,0,0,0c0,0.1-0.1,0.1-0.1,0.2
				c0,0,0,0,0,0c-0.3,0.6-0.5,1.2-0.8,1.8c0,0.1-0.1,0.3-0.1,0.4c0,0.1,0,0.1-0.1,0.2c0,0,0,0.1,0,0.1c0,0,0,0.1,0,0.1
				c0,0.1,0,0.1-0.1,0.2c0,0,0.1,0,0.1,0c0,0,0.1-0.1,0.1-0.1c0,0,0,0,0,0c0-0.1,0.1-0.1,0.1-0.1l0,0l0.1,0l0,0c0,0,0,0,0,0
				c0,0,0.1-0.1,0.1-0.1c0,0,0,0,0,0c0,0,0,0,0-0.1c0.1-0.1,0.3-0.2,0.4-0.3c0.6-0.5,1.1-0.9,1.6-1.4l0,0c1.5-1.3,3-2.7,4.5-4
				c1.7-1.5,3.4-3.1,5.1-4.7c0.9-0.8,1.7-1.5,2.6-2.3c1-0.9,2.1-1.9,3.1-2.8c0,0,0,0,0.1,0c0,0,0,0,0,0c0.3-0.3,0.6-0.5,0.9-0.8
				c0.1-0.1,0.1-0.1,0-0.2c0.7-0.8,1.4-1.7,2.1-2.5c0.8-1,1.6-2,2.4-3c1.6-2,3.2-4,4.7-6.1C94.8,5.9,94.6,5.8,94.5,5.9z M77.1,11.9
				c-0.2,0.3-0.4,0.6-0.5,0.9c0,0,0-0.1-0.1-0.1C76.7,12.5,76.9,12.2,77.1,11.9z"/>
			<path stroke="#231F20" stroke-width="0.5" stroke-miterlimit="10" d="M72.1,25.4C72.2,25.4,72.2,25.4,72.1,25.4
				C72.2,25.4,72.2,25.4,72.1,25.4C72.1,25.4,72.1,25.4,72.1,25.4z"/>
			<path stroke="#231F20" stroke-width="0.5" stroke-miterlimit="10" d="M71,25.5c0,0,0-0.1,0-0.1C71,25.4,71,25.4,71,25.5
				C71,25.5,71,25.5,71,25.5z"/>
			<path stroke="#231F20" stroke-width="0.5" stroke-miterlimit="10" d="M72.6,25.6C72.6,25.6,72.6,25.6,72.6,25.6
				c0.1-0.1,0.2-0.2,0.3-0.3c0,0,0-0.1,0.1-0.1C72.8,25.3,72.7,25.4,72.6,25.6z"/>
			<polygon stroke="#231F20" stroke-width="0.5" stroke-miterlimit="10" points="72.8,24.8 72.8,24.8 72.8,24.8 			"/>
			<path stroke="#231F20" stroke-width="0.5" stroke-miterlimit="10" d="M71.7,24.8c0,0.1-0.1,0.1-0.1,0.2c0,0,0,0,0,0
				C71.7,24.9,71.7,24.9,71.7,24.8z"/>
		</g>
		<g>
			<path stroke="#231F20" stroke-width="0.5" stroke-miterlimit="10" d="M77.5,34.6c-1.9,0.2-5.8,0.7-7.7,0.9
				c-0.9,0.1-1.8,0.2-2.7,0.4c-0.5,0.1-1,0.1-1.4,0.2c-0.4,0.1-0.9,0.1-1.3,0.3l0,0c0.4,0.1,0.8,0,1.3,0c0.5,0,1-0.1,1.5-0.2
				c0.9-0.1,1.9-0.2,2.8-0.3c1.9-0.2,5.8-0.7,7.7-0.9C77.9,35,77.8,34.6,77.5,34.6z"/>
		</g>
		<g>
			<path stroke="#231F20" stroke-width="0.5" stroke-miterlimit="10" d="M70.1,24.2c-0.3,0-0.7,0-1,0c-0.3,0-0.7,0-1,0
				c-0.7,0-1.4,0-2.1,0c-0.7,0-1.4,0-2.1,0c-0.7,0-1.4,0-2,0.1v0c0.6,0.1,1.3,0.1,2,0.1c0.7,0,1.4,0,2.1,0c0.7,0,1.4,0,2.1,0
				c0.4,0,0.7,0,1.1,0c0.3,0,0.7,0,1,0C70.4,24.4,70.3,24.2,70.1,24.2z"/>
		</g>
		<g>
			<path stroke="#231F20" stroke-width="0.5" stroke-miterlimit="10" d="M74.7,30.9c-0.2-0.3-0.4-0.6-0.6-0.8
				c-0.2-0.3-0.4-0.6-0.6-0.8c-0.4-0.6-0.8-1.1-1.2-1.7c-0.4-0.6-0.8-1.1-1.2-1.7c-0.4-0.5-0.8-1.1-1.3-1.6l0,0
				c0.3,0.6,0.7,1.1,1.1,1.7c0.4,0.6,0.8,1.1,1.2,1.7c0.4,0.6,0.8,1.1,1.2,1.7c0.2,0.3,0.4,0.6,0.6,0.9c0.2,0.3,0.4,0.6,0.6,0.8
				C74.6,31.3,74.7,31.1,74.7,30.9z"/>
		</g>
		<g>
			<path stroke="#231F20" stroke-width="0.5" stroke-miterlimit="10" d="M77.6,34.6c-0.1-0.3-0.4-0.5-0.6-0.8
				c-0.2-0.3-0.5-0.6-0.7-0.9c-0.4-0.6-0.9-1.1-1.3-1.7c-0.9-1.1-2.6-3.4-3.6-4.5c0,0-0.1,0-0.1,0c0.8,1.2,2.5,3.5,3.3,4.6
				c0.4,0.6,0.8,1.1,1.2,1.7c0.2,0.3,0.4,0.6,0.6,0.9c0.2,0.3,0.4,0.6,0.6,0.8C77.4,35,77.7,34.9,77.6,34.6z"/>
		</g>
		<g>
			<g>
				<path stroke="#231F20" stroke-width="0.5" stroke-miterlimit="10" d="M43.9,40.4c-0.2-0.5-0.6-1-0.9-1.4c-0.3-0.5-0.7-0.9-1-1.4
					c-0.7-0.9-1.3-1.9-2-2.8c-1.3-1.9-2.6-3.8-4-5.7c-0.7-1-1.4-2-2.2-3c0.1,0,0.1,0,0.1,0c0-0.1-0.1-0.1-0.1-0.2
					c-0.1-0.1-0.1-0.2-0.1-0.3c-1,0-2,0.1-3,0.1c-1.2,0-2.4,0.1-3.7,0.1c-2.4,0.1-4.8,0.1-7.2,0.2c-1.3,0-5,0.4-6.4,0.5
					c-0.1,0,0,0.1,0,0.1c4.8,0.1,12-0.4,16.8-0.5c0.7,0,1.4,0,2,0c0.5,0,0.9,0,1.4,0c1.1,2,2.4,3.8,3.7,5.7c1.3,1.9,2.6,3.8,3.9,5.7
					c0.4,0.5,0.7,1.1,1.1,1.6c0.4,0.5,0.7,1.1,1.1,1.6C43.7,40.9,44,40.7,43.9,40.4z"/>
			</g>
			<g>
				<path stroke="#231F20" stroke-width="0.5" stroke-miterlimit="10" d="M42.5,40.9c-0.7,0-1.5,0.2-2.2,0.3
					c-0.7,0.1-1.5,0.2-2.2,0.3c-1.5,0.2-3,0.4-4.5,0.6c-3,0.4-6,0.8-8.9,1.3c-0.8,0.1-1.6,0.2-2.4,0.3c0.1,0.1,0.2,0.2,0.3,0.3
					c0.5-0.1,1-0.1,1.5-0.2c1.5-0.2,3-0.4,4.5-0.6c3-0.4,6-0.8,9-1.2c0.8-0.1,1.6-0.2,2.5-0.3c0.8-0.1,1.7-0.1,2.5-0.4
					C42.9,41.3,42.7,40.9,42.5,40.9z"/>
			</g>
			<g>
				<path stroke="#231F20" stroke-width="0.5" stroke-miterlimit="10" d="M23,43.1c-2.3-4.3-4.5-8.5-6.9-12.7
					c-0.7-1.2-1.3-2.4-2.1-3.6c0-0.1-0.2,0-0.1,0c0.4,1.1,1,2.1,1.5,3.2c0.5,1.1,1.1,2.1,1.6,3.2c1.1,2.2,2.3,4.3,3.4,6.5
					c0.6,1.2,1.3,2.4,1.9,3.6C22.6,43.8,23.2,43.6,23,43.1z"/>
			</g>
		</g>
	</g>
</g>
<g>
	<path fill="#EC1C24" d="M31.9,40.3c-0.5-1-0.8-2.1-1.1-3.2c0-0.2-0.1-0.4-0.2-0.5c-0.1-0.3-0.2-0.7-0.3-1c0-0.1-0.1-0.2-0.1-0.3
		c0-0.1-0.1-0.2-0.1-0.3c-0.1-0.3-0.2-0.5-0.2-0.8c-0.1-0.2-0.1-0.3-0.2-0.5c-0.6-2-1.2-4-1.7-6c-0.1-0.2-0.2-0.3-0.4-0.3
		c-0.2,0-0.4,0.1-0.6,0.2c-0.1,0.1-0.2,0.2-0.2,0.3c0,0.2,0,0.3,0,0.5c-0.1,0.8-0.3,1.6-0.5,2.3c-0.1,0.2-0.1,0.4-0.1,0.6
		c0,0.1,0,0.2,0.1,0.2c0.3,0.1,1-0.1,1.1-0.5c0-0.2,0-0.3,0.1-0.5c0,0.1,0.1,0.2,0.1,0.2c0.9,3.4,1.9,6.7,3.1,10
		c0.1,0.2,0.2,0.3,0.3,0.3c0.3,0,0.5-0.1,0.8-0.2C31.9,40.6,31.9,40.5,31.9,40.3z"/>
	<g>
		<g>
			<path stroke="#231F20" stroke-width="0.5" stroke-miterlimit="10" d="M46.7,39.2c-2.8-3.6-5.5-7.2-8.3-10.8c-0.8-1-1.5-2-2.3-2.9
				c4.4-0.2,8.8-0.5,13.2-0.7c0,0,0,0,0,0c-4.4,0.2-8.9,0.3-13.3,0.5c-0.2,0-0.1,0.2,0,0.2c0,0,0,0,0,0c1.2,1.8,2.6,3.6,3.9,5.3
				c1.4,1.8,2.7,3.7,4.1,5.5c0.8,1,1.6,2.1,2.4,3.1C46.6,39.5,46.9,39.3,46.7,39.2z"/>
		</g>
		<g>
			<path stroke="#231F20" stroke-width="0.5" stroke-miterlimit="10" d="M62.9,37.1c0-0.1-0.1-0.1-0.1-0.2c-2.6,0.3-5.2,0.7-7.8,1
				c-1.3,0.2-2.7,0.4-4,0.5c-1.4,0.2-2.8,0.3-4.1,0.6c-0.1,0-0.1,0.2,0,0.2c1.4-0.1,2.8-0.3,4.2-0.5c1.3-0.2,2.7-0.3,4-0.5
				c2.6-0.3,5.2-0.7,7.8-1C62.9,37.2,62.9,37.1,62.9,37.1z"/>
		</g>
		<g>
			<path stroke="#231F20" stroke-width="0.5" stroke-miterlimit="10" d="M56.9,29.6c-0.2-0.3-2.8-3.6-3-3.8
				c-0.2-0.3-0.5-0.6-0.8-0.9c0,0-0.1,0,0,0c0.2,0.3,0.4,0.7,0.6,1c0.2,0.3,2.8,3.6,3,3.8C56.8,29.8,56.9,29.7,56.9,29.6z"/>
		</g>
		<g>
			<path stroke="#231F20" stroke-width="0.5" stroke-miterlimit="10" d="M62.8,37.1c-0.2-0.4-0.5-0.8-0.8-1.1
				c-0.3-0.4-0.6-0.8-0.9-1.1c-0.6-0.8-1.2-1.5-1.8-2.3c-0.6-0.8-1.2-1.5-1.8-2.3c-0.3-0.4-0.6-0.7-0.9-1.1c-0.3-0.3-0.6-0.8-0.9-1
				c0,0,0,0,0,0c0.1,0.4,0.5,0.7,0.7,1.1c0.3,0.4,0.6,0.8,0.8,1.2c0.6,0.8,1.1,1.5,1.7,2.3c0.6,0.8,1.2,1.5,1.8,2.3
				c0.3,0.4,0.6,0.8,0.9,1.1c0.3,0.4,0.5,0.8,0.9,1.1C62.7,37.4,62.8,37.2,62.8,37.1z"/>
		</g>
		<g>
			<path stroke="#231F20" stroke-width="0.5" stroke-miterlimit="10" d="M52.9,24.5c-0.8,0-2.3,0.1-3.1,0.3v0c0.8,0,2.3,0.1,3.2,0
				C53,24.7,53,24.5,52.9,24.5z"/>
		</g>
		<g>
			<path stroke="#231F20" stroke-width="0.5" stroke-miterlimit="10" d="M43.2,17.9L43.2,17.9C43.2,17.9,43.2,17.9,43.2,17.9
				c0,0.1-0.1,0.1-0.1,0.2c0,0.1,0.1,0.1,0.1,0.1c0,0,0,0,0-0.1c0.2,0.7,0.4,1.4,0.7,2.1c0,0.1,0.2,0,0.1,0
				c-0.2-0.7-0.5-1.4-0.8-2.1c2.2-3.2,4.3-6.4,6.3-9.7l0,0C47.4,11.5,45.2,14.6,43.2,17.9C43.2,17.9,43.2,17.9,43.2,17.9z"/>
			<path stroke="#231F20" stroke-width="0.5" stroke-miterlimit="10" d="M47.5,18.4c-0.3,0.4-0.6,0.8-0.8,1.2c0,0,0,0-0.1,0
				c-0.8,0.1-1.6,0.4-2.3,0.6l0,0c0.8-0.1,1.6-0.3,2.3-0.5c0,0,0,0,0,0c-0.1,0.1,0.1,0.2,0.2,0.1c0.3-0.4,0.6-0.9,0.9-1.3
				c0.3-0.4,0.6-0.9,0.9-1.3c0.6-0.9,1.1-1.7,1.7-2.6c1.2-1.7,2.3-3.4,3.4-5.2c0,0,0,0,0,0c-1.2,1.7-2.4,3.4-3.6,5.2
				c-0.6,0.9-1.2,1.7-1.8,2.6C48,17.6,47.7,18,47.5,18.4z"/>
			<path stroke="#231F20" stroke-width="0.5" stroke-miterlimit="10" d="M37,28.7c0.7-0.9,1.2-2,1.8-3c0.6-1,1.2-2,1.8-3
				c0,0,0,0,0,0c-0.6,1-1.2,2-1.8,3C38.1,26.8,37.4,27.7,37,28.7C36.9,28.7,37,28.8,37,28.7z"/>
			<path stroke="#231F20" stroke-width="0.5" stroke-miterlimit="10" d="M36.7,28.8C36.7,28.8,36.7,28.9,36.7,28.8
				c0.6-0.9,1.1-1.9,1.6-2.9l0,0C37.7,26.9,37.2,27.9,36.7,28.8z"/>
			<path stroke="#231F20" stroke-width="0.5" stroke-miterlimit="10" d="M42.2,21.9c-1.3,2.2-2.6,4.4-3.8,6.6c0,0,0,0,0,0
				C39.7,26.3,41,24.1,42.2,21.9L42.2,21.9z"/>
			<path stroke="#231F20" stroke-width="0.5" stroke-miterlimit="10" d="M40.8,23.2c0.8-1.3,1.5-2.7,2.1-4.1l0,0
				C42.2,20.5,41.5,21.8,40.8,23.2L40.8,23.2z"/>
			<path stroke="#231F20" stroke-width="0.5" stroke-miterlimit="10" d="M42.6,18.8c-0.4,0.6-0.8,1.2-1.2,1.8l0,0
				C41.9,20.1,42.3,19.5,42.6,18.8C42.7,18.8,42.6,18.8,42.6,18.8z"/>
			<path stroke="#231F20" stroke-width="0.5" stroke-miterlimit="10" d="M40.3,20.5c0.3-0.5,0.6-0.9,0.9-1.4l0,0
				C40.8,19.5,40.5,20,40.3,20.5C40.2,20.4,40.2,20.5,40.3,20.5z"/>
			<path stroke="#231F20" stroke-width="0.5" stroke-miterlimit="10" d="M40.5,29.2C40.5,29.2,40.5,29.2,40.5,29.2
				c1.4-1.6,2.9-3.2,4.3-4.7C43.4,26,41.9,27.6,40.5,29.2z"/>
			<path stroke="#231F20" stroke-width="0.5" stroke-miterlimit="10" d="M40.3,28.7c0.9-1,1.8-2,2.7-3.1l0,0
				C42.1,26.6,41.2,27.6,40.3,28.7C40.3,28.7,40.3,28.7,40.3,28.7z"/>
			<path stroke="#231F20" stroke-width="0.5" stroke-miterlimit="10" d="M39.8,28.5c1.4-2.2,2.8-4.3,4.1-6.5l0,0
				C42.5,24.2,41.1,26.3,39.8,28.5C39.8,28.5,39.8,28.5,39.8,28.5z"/>
			<path stroke="#231F20" stroke-width="0.5" stroke-miterlimit="10" d="M41.4,24.5c0.3-0.4,0.6-0.8,0.9-1.2c0,0,0,0,0,0
				C42,23.8,41.7,24.1,41.4,24.5C41.4,24.5,41.4,24.5,41.4,24.5z"/>
			<path stroke="#231F20" stroke-width="0.5" stroke-miterlimit="10" d="M38.8,30.5c0.2-0.4,0.5-0.7,0.7-1c0,0,0,0,0,0
				C39.3,29.8,39,30.2,38.8,30.5C38.8,30.5,38.8,30.5,38.8,30.5z"/>
			<path stroke="#231F20" stroke-width="0.5" stroke-miterlimit="10" d="M42,28.7C42,28.8,42,28.8,42,28.7c0.4-0.4,0.9-0.8,1.3-1.2
				c0,0,0,0,0,0C42.9,27.9,42.4,28.3,42,28.7z"/>
			<path stroke="#231F20" stroke-width="0.5" stroke-miterlimit="10" d="M46.6,20.4c-1.1,1.4-2.3,2.8-3.4,4.3c0,0,0,0.1,0,0
				C44.4,23.3,45.5,21.9,46.6,20.4C46.6,20.4,46.6,20.4,46.6,20.4z"/>
			<path stroke="#231F20" stroke-width="0.5" stroke-miterlimit="10" d="M45.4,20.4c-0.3,0.4-0.5,0.7-0.8,1.1l0,0
				C44.9,21.2,45.1,20.8,45.4,20.4C45.4,20.4,45.4,20.4,45.4,20.4z"/>
			<path stroke="#231F20" stroke-width="0.5" stroke-miterlimit="10" d="M47.4,23.9c0.4-0.4,0.8-0.8,1.2-1.3l0,0
				C48.1,23,47.7,23.4,47.4,23.9C47.3,23.9,47.3,23.9,47.4,23.9z"/>
			<path stroke="#231F20" stroke-width="0.5" stroke-miterlimit="10" d="M59.1,11.2c-0.9,1.1-1.9,2.3-2.8,3.4
				c0.8-1.1,1.7-2.2,2.5-3.3c0,0,0,0,0,0c-1.7,2-3.3,4.1-5,6.2c-0.8,1-1.6,2.1-2.4,3.1c-0.4,0.5-0.9,1.1-1.3,1.6c0,0-0.1,0-0.1,0
				c0,0,0,0,0,0c0,0,0,0,0,0c-0.8,0-1.7,0-2.5,0.1c0-0.4,0-0.7-0.1-1.1c0-0.4-0.1-0.8-0.2-1.2h0c0,0.4,0,0.7,0,1.1
				c0,0.2,0,0.4,0,0.6c-0.3,0.4-0.7,0.7-1,1.1c0,0,0,0,0,0c0.3-0.4,0.7-0.7,1-1.1c0,0.2,0,0.4,0.1,0.6c0,0,0.1,0.1,0.1,0
				c0.1,0,0.2,0,0.3,0c-0.5,0.6-1.1,1.2-1.6,1.8c0,0,0,0,0,0c0.5-0.6,1.1-1.2,1.6-1.8c0.7,0.1,1.4,0.1,2,0.1
				c-0.4,0.5-0.9,0.9-1.3,1.4c0,0.1,0.1,0.1,0.1,0.1c0.5-0.5,0.9-1,1.3-1.5c0,0,0.1,0,0.1,0c-0.3,0.4-0.6,0.8-0.9,1.2
				c-3,2.7-5.9,5.4-8.9,8.1c0.1-0.2,0.2-0.4,0.3-0.6c0-0.1,0-0.1-0.1-0.1c2.3-2.2,4.5-4.6,6.8-6.9l0,0c-2.3,2.3-4.7,4.6-7,7
				c-0.1,0.1-0.2,0.1-0.2,0.2c0,0-0.1,0-0.1,0c-0.3,0.2-0.5,0.4-0.8,0.7c0.1-0.1,0.1-0.2,0.2-0.3c0.2-0.3,0.5-0.6,0.7-1c0,0,0,0,0,0
				l0-0.1c0,0,0-0.1,0.1-0.1c0,0,0,0,0,0c0,0-0.1,0.1-0.1,0.1c0,0,0,0,0,0c0.3-0.3,0.6-0.7,0.9-1c0,0,0,0,0,0
				c-0.3,0.4-0.6,0.7-1,1.1c-0.5,0.3-1,0.7-1.4,1.1c0.1-0.1,0.1-0.2,0.2-0.3c0.1-0.2,0.3-0.4,0.4-0.6c0-0.1,0.1-0.1,0.1-0.2
				c0,0,0,0,0,0l0,0l0,0c0,0-0.1,0.1-0.1,0.1c0,0,0.1-0.1,0.1-0.1c0,0,0,0,0,0c-0.3,0.3-0.6,0.7-0.9,1c0.3-0.5,0.5-1,0.7-1.5
				c0,0,0,0,0,0c-0.1,0.1-0.2,0.3-0.3,0.5c0,0,0,0,0-0.1c0.1-0.1,0.1-0.2,0.2-0.4c0,0,0,0,0,0c0,0,0-0.1,0.1-0.1
				c0-0.1-0.1-0.1-0.1-0.1c0,0.1-0.1,0.1-0.1,0.2c0.4-0.6,0.7-1.2,1.1-1.8c0,0,0,0,0,0c-0.4,0.7-0.9,1.4-1.3,2.1c0,0,0,0,0,0
				c-0.1,0.1-0.2,0.2-0.3,0.3c-0.1,0.1-0.2,0.2-0.2,0.3c0.1-0.3,0.3-0.6,0.4-0.9c0.1-0.1,0.1-0.3,0.2-0.4c0-0.1,0.1-0.2,0.1-0.3
				c0,0,0,0,0,0c-0.1,0.1-0.2,0.3-0.2,0.4c-0.1,0.1-0.1,0.2-0.2,0.2l0,0c0.1-0.2,0.2-0.3,0.3-0.5l0,0c-0.2,0.1-0.4,0.3-0.5,0.5
				c0,0,0,0-0.1,0c0,0.1-0.1,0.1-0.1,0.2c0.1-0.2,0.2-0.3,0.3-0.5c0,0,0,0,0,0c-0.1,0.1-0.2,0.2-0.3,0.4c0,0,0,0,0,0c0,0,0,0,0,0
				c0-0.1,0.1-0.3,0.1-0.4c0,0,0-0.1,0-0.1c0,0,0,0,0,0c-0.1,0.1-0.1,0.2-0.2,0.3c0,0,0,0,0,0c0.1-0.2,0.3-0.3,0.4-0.5c0,0,0,0,0,0
				c0,0,0,0,0,0c0.1-0.1,0.1-0.2,0.2-0.2l0,0c0.3-0.4,0.5-0.9,0.7-1.4c0.3-0.5,0.6-1.1,0.9-1.6l0,0c-0.3,0.6-0.7,1.1-1,1.7
				c-0.3,0.5-0.7,1-0.9,1.6c-0.3,0.3-0.6,0.6-0.8,0.9c0,0,0,0,0,0c-0.1,0.1-0.1,0.1-0.2,0.2c0-0.1,0.1-0.2,0.1-0.3c0,0,0,0,0,0
				c0,0,0,0,0,0c0-0.1,0-0.2,0.1-0.3h0c0,0.1-0.1,0.2-0.1,0.3c0-0.1,0.1-0.2,0.1-0.3c0,0,0,0,0,0c-0.1,0.2-0.2,0.3-0.4,0.5
				c0,0,0,0,0,0s0,0,0,0l0,0c0.1-0.2,0.3-0.4,0.4-0.6l0,0c-0.2,0.3-0.5,0.6-0.7,0.9c0-0.1,0-0.3,0.1-0.4c0.1-0.3,0.3-0.6,0.4-0.9
				c0.2-0.5,0.5-1,0.7-1.5c0.2-0.5,0.4-0.9,0.6-1.4c0.5-0.9,1-1.8,1.6-2.7c0.7-1.2,1.5-2.4,2.2-3.6c0,0,0,0,0,0
				c-0.8,1.2-1.5,2.4-2.2,3.6c-0.4,0.7-0.8,1.4-1.3,2.1c0.2-0.4,0.3-0.8,0.5-1.2c0.5-1.1,0.9-2.1,1.4-3.2c0.2-0.5,0.5-1,0.7-1.5
				c0.2-0.5,0.5-1,0.6-1.5c0.7-0.1,1.3-0.4,1.9-0.6c0,0,0,0,0,0c-0.6,0.1-1.3,0.3-1.9,0.6c1.2-1.7,2.4-3.4,3.6-5.2l1.9-2.8
				c0.3-0.5,0.6-0.9,1-1.4c0.1-0.1,0.2-0.2,0.2-0.3c0,0,0,0,0,0c0.1-0.2,0.2-0.3,0.3-0.5c0.2-0.3,0.5-0.7,0.7-1
				C48.8,7,48.6,6.8,48.5,7c-0.7,0.9-1.4,1.9-2,2.9c-0.7,0.9-1.3,1.9-2,2.8c-0.7,0.9-1.3,1.9-2,2.8c-0.3,0.5-0.7,0.9-1,1.4
				c-0.2,0.3-0.5,0.7-0.7,1.1c0,0,0,0-0.1,0.1c-0.5,1-0.9,2.1-1.4,3.1c-0.5,1.1-0.9,2.1-1.4,3.2c-0.4,0.9-0.8,1.8-1.1,2.7
				c-1.3,2.7-2.5,5.5-3.8,8.2c-0.1,0.2-0.3,0.6-0.4,0.8l-0.3,0.6l0,0.1c0,0-0.1,0.2-0.1,0.3c0,0,0,0,0,0c0,0.1-0.1,0.1-0.1,0.2
				c0,0,0,0,0,0c-0.3,0.6-0.5,1.2-0.8,1.8c0,0.1-0.1,0.3-0.1,0.4c0,0.1,0,0.1-0.1,0.2c0,0,0,0.1,0,0.1c0,0,0,0.1,0,0.1
				c0,0.1,0,0.1-0.1,0.2c0,0,0.1,0,0.1,0c0,0,0.1-0.1,0.1-0.1c0,0,0,0,0,0c0-0.1,0.1-0.1,0.1-0.1l0,0l0.1,0l0,0c0,0,0,0,0,0
				c0,0,0.1-0.1,0.1-0.1c0,0,0,0,0,0c0,0,0,0,0-0.1c0.1-0.1,0.3-0.2,0.4-0.3c0.6-0.5,1.1-0.9,1.6-1.4l0,0c1.5-1.3,3-2.7,4.5-4
				c1.7-1.5,3.4-3.1,5.1-4.7c0.9-0.8,1.7-1.5,2.6-2.3c1-0.9,2.1-1.9,3.1-2.8c0,0,0,0,0.1,0c0,0,0,0,0,0c0.3-0.3,0.6-0.5,0.9-0.8
				c0.1-0.1,0.1-0.1,0-0.2c0.7-0.8,1.4-1.7,2.1-2.5c0.8-1,1.6-2,2.4-3c1.6-2,3.2-4,4.7-6.1C59.3,11.2,59.1,11.1,59.1,11.2z
				 M41.6,17.3c-0.2,0.3-0.4,0.6-0.5,0.9c0,0,0-0.1-0.1-0.1C41.2,17.8,41.4,17.6,41.6,17.3z"/>
			<path stroke="#231F20" stroke-width="0.5" stroke-miterlimit="10" d="M36.7,30.8C36.7,30.8,36.7,30.7,36.7,30.8
				C36.7,30.7,36.7,30.8,36.7,30.8C36.7,30.8,36.7,30.8,36.7,30.8z"/>
			<path stroke="#231F20" stroke-width="0.5" stroke-miterlimit="10" d="M35.5,30.8c0,0,0-0.1,0-0.1C35.5,30.8,35.5,30.8,35.5,30.8
				C35.5,30.8,35.5,30.8,35.5,30.8z"/>
			<path stroke="#231F20" stroke-width="0.5" stroke-miterlimit="10" d="M37.1,30.9C37.1,30.9,37.1,30.9,37.1,30.9
				c0.1-0.1,0.2-0.2,0.3-0.3c0,0,0-0.1,0.1-0.1C37.4,30.6,37.2,30.8,37.1,30.9z"/>
			<polygon stroke="#231F20" stroke-width="0.5" stroke-miterlimit="10" points="37.3,30.2 37.3,30.2 37.3,30.2 			"/>
			<path stroke="#231F20" stroke-width="0.5" stroke-miterlimit="10" d="M36.3,30.1c0,0.1-0.1,0.1-0.1,0.2c0,0,0,0,0,0
				C36.2,30.3,36.2,30.2,36.3,30.1z"/>
		</g>
		<g>
			<path stroke="#231F20" stroke-width="0.5" stroke-miterlimit="10" d="M77.5,34.7c-1.9,0.2-5.8,0.7-7.7,0.9
				C68.9,35.7,68,35.8,67,36c-0.5,0.1-1,0.1-1.4,0.2c-0.4,0.1-0.9,0.1-1.3,0.3l0,0c0.4,0.1,0.8,0,1.3,0c0.5,0,1-0.1,1.5-0.2
				c0.9-0.1,1.9-0.2,2.8-0.3c1.9-0.2,5.8-0.7,7.7-0.9C77.9,35.1,77.7,34.6,77.5,34.7z"/>
		</g>
		<g>
			<path stroke="#231F20" stroke-width="0.5" stroke-miterlimit="10" d="M69.4,24.2c-0.1,0-0.3,0-0.4,0c-0.1,0-0.3,0-0.4,0
				c-0.3,0-0.6,0-0.8,0c-0.3,0-0.5,0-0.8,0c-0.3,0-0.5,0-0.8,0v0c0.3,0.1,0.5,0,0.8,0c0.3,0,0.6,0,0.8,0c0.3,0,0.5,0,0.8,0
				c0.1,0,0.3,0,0.4,0c0.1,0,0.3,0,0.4,0C69.5,24.3,69.5,24.2,69.4,24.2z"/>
		</g>
		<g>
			<path stroke="#231F20" stroke-width="0.5" stroke-miterlimit="10" d="M74.6,31c-0.2-0.3-0.4-0.6-0.6-0.8
				c-0.2-0.3-0.4-0.6-0.6-0.8c-0.4-0.6-0.8-1.1-1.2-1.7c-0.4-0.6-0.8-1.1-1.2-1.7c-0.4-0.5-0.8-1.1-1.3-1.6l0,0
				c0.3,0.6,0.7,1.1,1.1,1.7c0.4,0.6,0.8,1.1,1.2,1.7c0.4,0.6,0.8,1.1,1.2,1.7c0.2,0.3,0.4,0.6,0.6,0.9c0.2,0.3,0.4,0.6,0.6,0.8
				C74.5,31.3,74.7,31.1,74.6,31z"/>
		</g>
		<g>
			<path stroke="#231F20" stroke-width="0.5" stroke-miterlimit="10" d="M77.6,34.6c-0.1-0.3-0.4-0.5-0.6-0.8
				c-0.2-0.3-0.5-0.6-0.7-0.9c-0.4-0.6-0.9-1.1-1.3-1.7c-0.9-1.1-2.6-3.4-3.6-4.5c0,0-0.1,0-0.1,0c0.8,1.2,2.5,3.5,3.3,4.6
				c0.4,0.6,0.8,1.1,1.2,1.7c0.2,0.3,0.4,0.6,0.6,0.9c0.2,0.3,0.4,0.6,0.6,0.8C77.4,35,77.7,34.9,77.6,34.6z"/>
		</g>
		<g>
			<g>
				<path stroke="#231F20" stroke-width="0.5" stroke-miterlimit="10" d="M43.9,40.4c-0.2-0.5-0.6-1-0.9-1.4c-0.3-0.5-0.7-0.9-1-1.4
					c-0.7-0.9-1.3-1.9-2-2.8c-1.3-1.9-2.6-3.8-4-5.7c-0.7-1-1.4-2-2.2-3c0.1,0,0.1,0,0.1,0c0-0.1-0.1-0.1-0.1-0.2
					c-0.1-0.1-0.1-0.2-0.1-0.3c-1,0-2,0.1-3,0.1c-1.2,0-2.4,0.1-3.7,0.1c-2.4,0.1-4.8,0.1-7.2,0.2c-1.3,0-5,0.4-6.4,0.5
					c-0.1,0,0,0.1,0,0.1c4.8,0.1,12-0.4,16.8-0.5c0.7,0,1.4,0,2,0c0.5,0,0.9,0,1.4,0c1.1,2,2.4,3.8,3.7,5.7c1.3,1.9,2.6,3.8,3.9,5.7
					c0.4,0.5,0.7,1.1,1.1,1.6c0.4,0.5,0.7,1.1,1.1,1.6C43.6,40.9,44,40.7,43.9,40.4z"/>
			</g>
			<g>
				<path stroke="#231F20" stroke-width="0.5" stroke-miterlimit="10" d="M42.5,40.9c-0.7,0-1.5,0.2-2.2,0.3
					c-0.7,0.1-1.5,0.2-2.2,0.3c-1.5,0.2-3,0.4-4.5,0.6c-3,0.4-6,0.8-8.9,1.3c-0.8,0.1-1.6,0.2-2.4,0.3c0.1,0.1,0.2,0.2,0.3,0.3
					c0.5-0.1,1-0.1,1.5-0.2c1.5-0.2,3-0.4,4.5-0.6c3-0.4,6-0.8,9-1.2c0.8-0.1,1.6-0.2,2.5-0.3c0.8-0.1,1.7-0.1,2.5-0.4
					C42.8,41.3,42.7,40.9,42.5,40.9z"/>
			</g>
			<g>
				<path stroke="#231F20" stroke-width="0.5" stroke-miterlimit="10" d="M22.9,43.2c-2.3-4.3-4.5-8.5-6.9-12.7
					c-0.7-1.2-1.3-2.4-2.1-3.6c0-0.1-0.2,0-0.1,0c0.4,1.1,1,2.1,1.5,3.2c0.5,1.1,1.1,2.1,1.6,3.2c1.1,2.2,2.3,4.3,3.4,6.5
					c0.6,1.2,1.3,2.4,1.9,3.6C22.5,43.8,23.2,43.6,22.9,43.2z"/>
			</g>
		</g>
		<path stroke="#231F20" stroke-width="0.5" stroke-miterlimit="10" d="M64.8,36.6c-2.3-3.2-4.6-6.4-7-9.5c-0.6-0.9-1.3-1.7-1.9-2.5
			c3.8-0.1,7.6-0.3,11.4-0.3c0,0,0,0,0,0c-3.9,0.1-7.7,0.1-11.5,0.2c-0.1,0-0.1,0.2,0,0.2c0,0,0,0,0,0c1,1.6,2.2,3.1,3.3,4.7
			c1.2,1.6,2.3,3.2,3.5,4.8c0.7,0.9,1.3,1.8,2,2.7C64.7,37,65,36.8,64.8,36.6z"/>
	</g>
</g>
<g display="none">
	<g display="inline">
		<g>
			<path fill="#EC1C24" d="M47.6,38c0-0.1,0.1-0.2,0.1-0.2c0.1-0.2,0.1-0.4,0.3-0.7c0.2-0.4,0.5-0.7,0.8-0.9
				c0.3-0.3,0.7-0.5,1.1-0.6c0.5-0.2,1-0.3,1.5-0.4c0.3-0.1,0.6-0.1,0.9-0.2c0.3-0.1,0.6-0.2,0.9-0.4c0.3-0.2,0.5-0.3,0.7-0.6
				c0.3-0.3,0.5-0.7,0.6-1.2c0-0.2,0-0.5-0.1-0.7c0,0,0-0.1,0-0.1c0,0,0.1,0,0.1,0.1c0.1,0.4,0.1,0.8,0.1,1.2
				c-0.1,0.8-0.5,1.4-1.1,1.9c-0.3,0.3-0.7,0.5-1.1,0.6c-0.5,0.2-0.9,0.3-1.4,0.3c-0.4,0-0.8,0.1-1.2,0.1c-0.3,0.1-0.7,0.2-1,0.4
				c-0.4,0.2-0.6,0.5-0.7,0.9c0,0.2-0.1,0.3-0.1,0.5c0,0.1-0.1,0.1-0.1,0.2c0,0.1-0.1,0.1-0.2,0.1c-0.1,0-0.1-0.1-0.1-0.1
				c0-0.1,0-0.3,0-0.4c0-0.3,0.1-0.7,0.3-1c0.2-0.7,0.5-1.4,0.8-2.1c0.4-1,0.8-1.9,1.2-2.9c0.4-1.1,0.8-2.3,0.9-3.4
				c0.1-0.4,0.1-0.8,0.1-1.2c0-0.3-0.1-0.5-0.2-0.8c-0.1-0.3-0.4-0.4-0.6-0.5c-0.4-0.2-0.8-0.2-1.2,0c-0.3,0.1-0.6,0.3-0.8,0.5
				c0,0,0,0,0,0c-0.7,1.1-1,2.3-0.9,3.7c0,0.2,0.1,0.5,0.2,0.7c0,0.1,0.1,0.1,0.1,0.2c0.2,0.2,0.4,0.2,0.6,0
				c0.2-0.2,0.4-0.4,0.5-0.7c0.2-0.4,0.3-0.9,0.3-1.3c0,0,0,0,0,0c0,0,0,0,0,0c0,0,0,0,0,0c0,0,0,0.1,0,0.1c0,0.5-0.2,0.9-0.4,1.4
				c-0.1,0.2-0.3,0.5-0.5,0.6c-0.3,0.2-0.5,0.3-0.8,0.1c-0.2-0.1-0.3-0.2-0.4-0.4c-0.2-0.4-0.3-0.8-0.3-1.2c0-0.5,0.1-0.9,0.3-1.3
				c0.2-0.6,0.5-1.1,0.9-1.6c0.2-0.3,0.5-0.5,0.7-0.7c0.4-0.3,0.9-0.4,1.4-0.3c0.2,0,0.5,0.1,0.7,0.2c0.4,0.2,0.6,0.5,0.8,0.9
				c0.2,0.6,0.2,1.1,0.1,1.7c-0.1,0.5-0.2,0.9-0.3,1.4c-0.3,1-0.7,2-1.1,2.9c-0.4,0.9-0.9,1.8-1.3,2.7c-0.3,0.5-0.5,1.1-0.7,1.7
				C47.7,37.4,47.6,37.6,47.6,38C47.6,37.9,47.6,38,47.6,38z"/>
		</g>
		<g>
			<path fill="#EC1C24" d="M47.6,39.1l-0.2-0.5c-0.2-0.1-0.3-0.2-0.4-0.5c-0.1-0.2,0-0.4,0-0.6c0.1-0.4,0.2-0.7,0.3-1.1
				c0.2-0.7,0.5-1.4,0.8-2.1l0.3-0.8c0.3-0.7,0.6-1.4,0.8-2.1c0.5-1.3,0.8-2.3,0.9-3.3c0-0.3,0.1-0.7,0.1-1.1c0-0.2-0.1-0.4-0.2-0.6
				c-0.1-0.2-0.2-0.3-0.4-0.3c-0.3-0.1-0.5-0.1-0.8,0c-0.2,0.1-0.4,0.2-0.7,0.4c-0.6,1-0.8,2.1-0.7,3.3c0,0.2,0.1,0.3,0.1,0.5
				c0.1,0,0.2-0.2,0.4-0.4c0.2-0.3,0.2-0.7,0.3-1.1l0-0.5l0.5-0.1c0.3,0,0.5,0.2,0.5,0.5l0,0.1c-0.1,0.6-0.2,1.1-0.4,1.5
				c-0.1,0.2-0.3,0.6-0.6,0.8c-0.5,0.4-1,0.3-1.3,0.2c-0.3-0.1-0.5-0.3-0.7-0.6c-0.3-0.5-0.4-1.1-0.4-1.5c0-0.5,0.1-1,0.3-1.5
				c0.3-0.7,0.6-1.3,0.9-1.7c0.3-0.3,0.6-0.6,0.9-0.8c0.6-0.3,1.2-0.4,1.8-0.3c0.3,0.1,0.6,0.1,0.9,0.3c0.5,0.3,0.8,0.6,1,1.1
				c0.3,0.7,0.2,1.5,0.2,2c-0.1,0.5-0.2,1-0.3,1.4c-0.3,0.9-0.6,1.9-1.2,3c-0.2,0.5-0.5,1-0.7,1.5l-0.5,1c0.2-0.1,0.4-0.2,0.6-0.3
				c0.5-0.2,1.1-0.3,1.6-0.4c0.3-0.1,0.5-0.1,0.8-0.2c0.3-0.1,0.5-0.2,0.8-0.3c0.3-0.2,0.5-0.3,0.6-0.5c0.3-0.3,0.4-0.6,0.5-0.9
				c0-0.2,0-0.3,0-0.5l-0.1-0.2l0.2-0.4l0.2-0.1c0.1,0,0.3,0,0.4,0l0.2,0.1l0.1,0.3c0.1,0.5,0.2,0.9,0.1,1.4
				c-0.2,0.9-0.6,1.6-1.3,2.2c-0.3,0.3-0.7,0.5-1.2,0.7c-0.4,0.2-0.9,0.3-1.5,0.3l-0.3,0c-0.3,0-0.6,0-0.9,0.1
				c-0.3,0.1-0.6,0.2-0.8,0.3c-0.3,0.2-0.4,0.4-0.5,0.7c0,0.2-0.1,0.3-0.2,0.5c0,0.1-0.1,0.2-0.2,0.3c-0.1,0.1-0.2,0.2-0.3,0.2
				L47.6,39.1z"/>
		</g>
	</g>
	<g display="inline">
		<g>
			<g>
				<path d="M46.7,39.1c-2.8-3.6-5.5-7.2-8.3-10.8c-0.8-1-1.5-2-2.3-2.9c4.4-0.2,8.8-0.5,13.2-0.7c0,0,0,0,0,0
					c-4.4,0.2-8.9,0.3-13.3,0.5c-0.2,0-0.1,0.2,0,0.2c0,0,0,0,0,0c1.2,1.8,2.6,3.6,3.9,5.3c1.4,1.8,2.7,3.7,4.1,5.5
					c0.8,1,1.6,2.1,2.4,3.1C46.6,39.5,46.9,39.3,46.7,39.1z"/>
				<path fill="#231F20" d="M46.6,39.7c-0.1,0-0.2-0.1-0.3-0.2l-3.7-4.9c-0.9-1.2-1.9-2.5-2.8-3.8c-0.3-0.4-0.7-0.9-1-1.3
					c-1-1.3-2-2.6-2.8-3.9c-0.1,0-0.2-0.1-0.2-0.2c-0.1-0.1-0.1-0.2-0.1-0.3l0-0.1l0.1,0c0,0,0,0,0,0c0.1-0.1,0.2-0.2,0.3-0.2
					c5-0.2,9.1-0.3,13.3-0.5l0.2,0l0.1,0.2l-0.1,0.2L49.4,25c-4.3,0.2-8.6,0.4-12.7,0.6c0.6,0.7,1.1,1.4,1.7,2.1l0.3,0.4
					c2.8,3.6,5.5,7.2,8.3,10.9l0,0c0.1,0.2,0.1,0.4-0.1,0.6C46.8,39.6,46.7,39.7,46.6,39.7z"/>
			</g>
		</g>
		<g>
			<g>
				<path d="M62.9,37.1c0-0.1-0.1-0.1-0.1-0.2c-2.6,0.3-5.2,0.7-7.8,1c-1.3,0.2-2.7,0.4-4,0.5c-1.4,0.2-2.8,0.3-4.1,0.6
					c-0.1,0-0.1,0.2,0,0.2c1.4-0.1,2.8-0.3,4.2-0.5c1.3-0.2,2.7-0.3,4-0.5c2.6-0.3,5.2-0.7,7.8-1C62.9,37.2,62.9,37.1,62.9,37.1z"/>
				<path fill="#231F20" d="M46.9,39.5c-0.2,0-0.3-0.1-0.4-0.3c0-0.2,0.1-0.3,0.3-0.4c1-0.2,2-0.3,2.9-0.4c0.4-0.1,0.8-0.1,1.2-0.2
					c1.3-0.2,2.7-0.4,4-0.5c2.6-0.3,5.2-0.7,7.8-1l0.2,0l0.1,0.2c0,0,0,0.1,0.1,0.1l0,0.1l0.1,0.4l-0.3,0c-2.6,0.3-5.2,0.7-7.8,1
					c-1.3,0.2-2.7,0.3-4,0.5c-0.4,0-0.8,0.1-1.2,0.2C49,39.3,48,39.4,46.9,39.5C46.9,39.5,46.9,39.5,46.9,39.5z M46.9,39.3
					C46.9,39.3,46.9,39.3,46.9,39.3C46.9,39.3,46.9,39.3,46.9,39.3z M46.9,39C46.9,39,46.9,39,46.9,39C46.9,39,46.9,39,46.9,39z"/>
			</g>
		</g>
		<g>
			<g>
				<path d="M56.9,29.6c-0.2-0.3-2.8-3.6-3-3.8c-0.2-0.3-0.5-0.6-0.8-0.9c0,0-0.1,0,0,0c0.2,0.3,0.4,0.7,0.6,1
					c0.2,0.3,2.8,3.6,3,3.8C56.8,29.8,57,29.7,56.9,29.6z"/>
				<path fill="#231F20" d="M56.8,30c-0.1,0-0.2,0-0.3-0.1c-0.3-0.3-2.9-3.6-3.1-3.9c-0.2-0.3-0.5-0.7-0.6-1l-0.1-0.2l0.4-0.3
					l0.2,0.2c0.3,0.3,0.5,0.6,0.8,0.9c0,0.1,0.2,0.2,0.4,0.5c1.5,1.8,2.5,3.1,2.6,3.4c0.1,0.2,0,0.3-0.1,0.5
					C57,29.9,56.9,30,56.8,30z"/>
			</g>
		</g>
		<g>
			<g>
				<path d="M62.8,37c-0.2-0.4-0.5-0.8-0.8-1.1c-0.3-0.4-0.6-0.8-0.9-1.1c-0.6-0.8-1.2-1.5-1.8-2.3c-0.6-0.8-1.2-1.5-1.8-2.3
					c-0.3-0.4-0.6-0.7-0.9-1.1c-0.3-0.3-0.6-0.8-0.9-1c0,0,0,0,0,0c0.1,0.4,0.5,0.7,0.7,1.1c0.3,0.4,0.6,0.8,0.8,1.2
					c0.6,0.8,1.1,1.5,1.7,2.3c0.6,0.8,1.2,1.5,1.8,2.3c0.3,0.4,0.6,0.8,0.9,1.1c0.3,0.4,0.5,0.8,0.9,1.1
					C62.7,37.4,62.8,37.2,62.8,37z"/>
				<path fill="#231F20" d="M62.6,37.5c-0.1,0-0.2,0-0.3-0.1c-0.3-0.2-0.5-0.5-0.7-0.8c-0.1-0.1-0.1-0.2-0.2-0.3
					c-0.3-0.4-0.6-0.8-0.9-1.1c-0.6-0.8-1.2-1.5-1.8-2.3l-0.1-0.1c-0.6-0.7-1.1-1.5-1.7-2.2l-0.8-1.2c-0.1-0.1-0.1-0.2-0.2-0.3
					c-0.2-0.3-0.4-0.6-0.5-0.9l0-0.1l0.1-0.2l0.3,0l0.1,0c0.3,0.2,0.5,0.5,0.8,0.8c0.1,0.1,0.1,0.2,0.2,0.3c0.3,0.4,0.6,0.7,0.9,1.1
					c0.5,0.6,1,1.3,1.6,2l0.2,0.3c0.6,0.8,1.2,1.5,1.8,2.3l0.9,1.1c0.1,0.1,0.1,0.2,0.2,0.3c0.2,0.3,0.5,0.6,0.6,0.9
					c0.1,0.2,0,0.4-0.1,0.5C62.8,37.5,62.7,37.5,62.6,37.5z M62.6,37.1L62.6,37.1L62.6,37.1z M62.7,37L62.7,37L62.7,37z"/>
			</g>
		</g>
		<g>
			<g>
				<path d="M52.9,24.5c-0.8,0-2.3,0.1-3.1,0.3v0c0.8,0,2.3,0.1,3.2,0C53.1,24.7,53,24.5,52.9,24.5z"/>
				<path fill="#231F20" d="M51.4,25c-0.7,0-1.4,0-1.6,0l-0.2,0v-0.5l0.2,0c0.6-0.1,2.2-0.3,3.2-0.3h0c0.2,0,0.4,0.2,0.4,0.4
					c0,0.2-0.1,0.4-0.3,0.4C52.5,25,51.9,25,51.4,25z M52.9,24.5C52.9,24.5,52.9,24.5,52.9,24.5C52.9,24.5,52.9,24.5,52.9,24.5z"/>
			</g>
		</g>
		<g>
			<g>
				<path d="M62.1,13.5L62.1,13.5C62.1,13.5,62.1,13.5,62.1,13.5c0,0.1-0.1,0.1-0.1,0.2c0,0.1,0.1,0.1,0.1,0.1c0,0,0,0,0-0.1
					c0.2,0.7,0.4,1.4,0.7,2.1c0,0.1,0.2,0,0.1,0c-0.2-0.7-0.5-1.4-0.8-2.1c2.2-3.2,4.3-6.4,6.3-9.7l0,0
					C66.3,7.1,64.2,10.2,62.1,13.5C62.1,13.5,62.1,13.5,62.1,13.5z"/>
				<path fill="#231F20" d="M63,16c-0.1,0-0.2-0.1-0.3-0.2c-0.3-0.6-0.5-1.2-0.7-1.9c0,0-0.1,0-0.1-0.1c-0.1-0.1-0.2-0.3-0.1-0.4
					l0-0.1l0-0.1l0.1-0.1c2-3.1,4.1-6.2,6.3-9.5l0.1-0.2l0.4,0.3l-0.1,0.2c-2.1,3.2-4.1,6.4-6.3,9.6l0,0c0.3,0.6,0.6,1.3,0.8,1.9
					c0,0.1,0,0.3-0.2,0.4C63.1,16,63,16,63,16z M62.8,15.7C62.8,15.7,62.8,15.7,62.8,15.7C62.8,15.7,62.8,15.7,62.8,15.7z"/>
			</g>
			<g>
				<path d="M66.4,14c-0.3,0.4-0.6,0.8-0.8,1.2c0,0,0,0-0.1,0c-0.8,0.1-1.6,0.4-2.3,0.6l0,0c0.8-0.1,1.6-0.3,2.3-0.5c0,0,0,0,0,0
					c-0.1,0.1,0.1,0.2,0.2,0.1c0.3-0.4,0.6-0.9,0.9-1.3c0.3-0.4,0.6-0.9,0.9-1.3c0.6-0.9,1.1-1.7,1.7-2.6c1.2-1.7,2.3-3.4,3.4-5.2
					c0,0,0,0,0,0c-1.2,1.7-2.4,3.4-3.6,5.2c-0.6,0.9-1.2,1.7-1.8,2.6C67,13.2,66.7,13.6,66.4,14z"/>
				<path fill="#231F20" d="M63,16l-0.1-0.5l0.8-0.2c0.6-0.2,1.2-0.3,1.8-0.4c0.1-0.2,0.3-0.4,0.5-0.7c0.1-0.1,0.2-0.3,0.3-0.4l0,0
					l3.6-5.2c0.9-1.3,1.7-2.5,2.6-3.8l0.1-0.1l0.3,0L72.9,5l-0.1,0.1c-1,1.6-2.1,3.2-3.2,4.7l-0.3,0.4c-0.4,0.6-0.8,1.1-1.1,1.7
					l-0.6,0.9c-0.3,0.4-0.6,0.9-0.9,1.3c-0.1,0.1-0.2,0.3-0.3,0.4c-0.2,0.3-0.4,0.6-0.6,0.9c-0.1,0.1-0.3,0.2-0.5,0.1c0,0,0,0,0,0
					c-0.5,0.1-1,0.2-1.6,0.3c-0.2,0-0.4,0.1-0.6,0.1L63,16z"/>
			</g>
			<g>
				<path d="M55.9,24.3c0.7-0.9,1.2-2,1.8-3c0.6-1,1.2-2,1.8-3c0,0,0,0,0,0c-0.6,1-1.2,2-1.8,3C57.1,22.3,56.4,23.3,55.9,24.3
					C55.9,24.3,55.9,24.4,55.9,24.3z"/>
				<path fill="#231F20" d="M55.9,24.6c-0.1,0-0.2-0.1-0.3-0.2l-0.1-0.1l0.1-0.1c0.3-0.7,0.8-1.4,1.2-2c0.2-0.3,0.4-0.6,0.6-0.9
					l0.7-1.1c0.4-0.6,0.8-1.3,1.2-1.9l0.1-0.1l0.3,0l0.2,0.2l-0.1,0.1c-0.5,0.9-1,1.7-1.6,2.6l-0.2,0.4c-0.2,0.3-0.4,0.7-0.6,1
					c-0.4,0.7-0.8,1.3-1.2,2l-0.1,0.1L55.9,24.6z"/>
			</g>
			<g>
				<path d="M55.6,24.4C55.6,24.4,55.6,24.5,55.6,24.4c0.6-0.9,1.1-1.9,1.6-2.9l0,0C56.7,22.5,56.1,23.5,55.6,24.4z"/>
				<path fill="#231F20" d="M55.8,24.7l-0.4-0.1l0.1-0.3c0.4-0.8,0.9-1.6,1.3-2.3l0.5-0.8l0.4,0.4l-0.4,0.7
					c-0.4,0.8-0.8,1.6-1.3,2.3L55.8,24.7z"/>
			</g>
			<g>
				<path d="M61.2,17.5c-1.3,2.2-2.6,4.4-3.8,6.6c0,0,0,0,0,0C58.7,21.9,60,19.7,61.2,17.5L61.2,17.5z"/>
				<path fill="#231F20" d="M57.2,24.4l-0.2-0.3l0.3-0.6c1.2-2,2.3-4.1,3.6-6.2l0.1-0.2l0.5,0.2l-0.1,0.3c-1.2,2.2-2.5,4.5-3.8,6.6
					l-0.1,0.1L57.2,24.4z"/>
			</g>
			<g>
				<path d="M59.8,18.8c0.8-1.3,1.5-2.7,2.1-4.1l0,0C61.1,16.1,60.4,17.4,59.8,18.8L59.8,18.8z"/>
				<path fill="#231F20" d="M59.8,19.2l-0.4-0.4l0.1-0.2c0.7-1.4,1.4-2.8,2.1-4.1l0.1-0.2l0.5,0.2l-0.1,0.3
					c-0.6,1.3-1.4,2.7-2.1,4.1L59.8,19.2z"/>
			</g>
			<g>
				<path d="M61.6,14.4c-0.4,0.6-0.8,1.2-1.2,1.8l0,0C60.8,15.7,61.2,15,61.6,14.4C61.6,14.4,61.6,14.4,61.6,14.4z"/>
				<path fill="#231F20" d="M60.5,16.6l-0.4-0.3l0.1-0.2c0.4-0.6,0.7-1.2,1.1-1.8v-0.1l0.3-0.1l0.3,0.3l-0.2,0.4
					c-0.3,0.5-0.7,1.1-1,1.6L60.5,16.6z"/>
			</g>
			<g>
				<path d="M59.2,16.1c0.3-0.5,0.6-0.9,0.9-1.4l0,0C59.7,15.1,59.4,15.6,59.2,16.1C59.2,16,59.2,16.1,59.2,16.1z"/>
				<path fill="#231F20" d="M59.3,16.3l-0.3,0L58.9,16l0.1-0.1c0.2-0.3,0.3-0.5,0.5-0.8c0.1-0.2,0.3-0.4,0.4-0.6l0.1-0.2l0.4,0.3
					l-0.1,0.2c-0.1,0.2-0.3,0.4-0.4,0.6c-0.2,0.2-0.3,0.5-0.5,0.7L59.3,16.3z"/>
			</g>
			<g>
				<path d="M59.4,24.8C59.4,24.8,59.4,24.8,59.4,24.8c1.4-1.6,2.9-3.2,4.3-4.7C62.3,21.6,60.9,23.2,59.4,24.8z"/>
				<path fill="#231F20" d="M59.6,25.1l-0.3,0l-0.1-0.3l0.1-0.1c1.1-1.2,2.1-2.4,3.2-3.6l1.1-1.2l0.4,0.3l0,0l-1.2,1.4
					c-1,1.1-2,2.2-3,3.3L59.6,25.1z"/>
			</g>
			<g>
				<path d="M59.2,24.3c0.9-1,1.8-2,2.7-3.1l0,0C61,22.2,60.1,23.2,59.2,24.3C59.2,24.2,59.2,24.3,59.2,24.3z"/>
				<path fill="#231F20" d="M59.3,24.6L59,24.4L59,24.2l0.1-0.1c0.9-1,1.8-2,2.7-3l0.1-0.1l0.5,0.2l-0.2,0.2c-0.9,1-1.8,2-2.7,3.1
					L59.3,24.6z"/>
			</g>
			<g>
				<path d="M58.7,24.1c1.4-2.2,2.8-4.3,4.1-6.5l0,0C61.5,19.8,60.1,21.9,58.7,24.1C58.7,24.1,58.7,24.1,58.7,24.1z"/>
				<path fill="#231F20" d="M58.8,24.4l-0.3-0.2L58.4,24l0.1-0.1c0.9-1.5,1.9-3,2.9-4.4c0.4-0.7,0.9-1.3,1.3-2l0.1-0.2l0.5,0.2
					l-0.1,0.2c-0.5,0.7-0.9,1.4-1.4,2.2c-0.9,1.4-1.8,2.9-2.8,4.3L58.8,24.4z"/>
			</g>
			<g>
				<path d="M60.4,20.1c0.3-0.4,0.6-0.8,0.9-1.2c0,0,0,0,0,0C61,19.3,60.7,19.7,60.4,20.1C60.4,20.1,60.4,20.1,60.4,20.1z"/>
				<path fill="#231F20" d="M60.4,20.5L60,20.2l1.1-1.5h0.4l0,0.3l0,0.1c-0.2,0.3-0.5,0.7-0.7,1l-0.2,0.2L60.4,20.5z"/>
			</g>
			<g>
				<path d="M57.8,26.1c0.2-0.4,0.5-0.7,0.7-1c0,0,0,0,0,0C58.2,25.4,58,25.8,57.8,26.1C57.7,26.1,57.8,26.1,57.8,26.1z"/>
				<path fill="#231F20" d="M57.8,26.4l-0.3-0.2L57.5,26l0.1-0.1c0.2-0.3,0.4-0.6,0.7-1l0.1-0.1l0.4,0.1l0,0.3L57.8,26.4z"/>
			</g>
			<g>
				<path d="M61,24.3C60.9,24.3,61,24.4,61,24.3c0.4-0.4,0.9-0.8,1.3-1.2c0,0,0,0,0,0C61.8,23.5,61.4,23.9,61,24.3z"/>
				<path fill="#231F20" d="M61,24.7l-0.3-0.2l0-0.2l0.1-0.1c0.3-0.3,0.6-0.6,0.9-0.9l0.4-0.4l0.3,0.1l0.1,0.3l-0.4,0.4
					c-0.3,0.3-0.6,0.6-0.9,1L61,24.7z"/>
			</g>
			<g>
				<path d="M65.5,16c-1.1,1.4-2.3,2.8-3.4,4.3c0,0,0,0.1,0,0C63.3,18.9,64.5,17.5,65.5,16C65.6,16,65.6,16,65.5,16z"/>
				<path fill="#231F20" d="M62.3,20.6l-0.3,0l-0.2-0.3l0.1-0.1c1.1-1.5,2.3-2.9,3.4-4.3l0.1-0.1l0.2,0l0.2,0.3l-0.1,0.1
					c-1.1,1.4-2.2,2.9-3.4,4.3L62.3,20.6z"/>
			</g>
			<g>
				<path d="M64.3,16c-0.3,0.4-0.5,0.7-0.8,1.1l0,0C63.8,16.8,64.1,16.4,64.3,16C64.3,16,64.3,16,64.3,16z"/>
				<path fill="#231F20" d="M63.6,17.5l-0.4-0.3l0.1-0.2c0.3-0.4,0.5-0.7,0.8-1.1l0.1-0.1l0.3,0.1l0.1,0.3l-0.1,0.1
					c-0.3,0.4-0.5,0.8-0.8,1.1L63.6,17.5z"/>
			</g>
			<g>
				<path d="M66.3,19.5c0.4-0.4,0.8-0.8,1.2-1.3l0,0C67.1,18.6,66.7,19,66.3,19.5C66.2,19.5,66.3,19.5,66.3,19.5z"/>
				<path fill="#231F20" d="M66.3,19.8c-0.1,0-0.2,0-0.2-0.1c-0.1-0.1-0.1-0.3,0-0.4c0.4-0.4,0.8-0.8,1.3-1.2l0.1-0.1l0.4,0.3
					l-0.2,0.2c-0.4,0.5-0.9,0.9-1.2,1.3l0,0C66.4,19.7,66.3,19.8,66.3,19.8z M66.4,19.6C66.4,19.6,66.4,19.6,66.4,19.6
					C66.4,19.6,66.4,19.6,66.4,19.6z"/>
			</g>
			<g>
				<path d="M78,6.8c-0.9,1.1-1.9,2.3-2.8,3.4C76,9.2,76.9,8.1,77.7,7c0,0,0,0,0,0c-1.7,2-3.3,4.1-5,6.2c-0.8,1-1.6,2.1-2.4,3.1
					c-0.4,0.5-0.9,1.1-1.3,1.6c0,0-0.1,0-0.1,0c0,0,0,0,0,0c0,0,0,0,0,0c-0.8,0-1.7,0-2.5,0.1c0-0.4,0-0.7-0.1-1.1
					c0-0.4-0.1-0.8-0.2-1.2h0c0,0.4,0,0.7,0,1.1c0,0.2,0,0.4,0,0.6c-0.3,0.4-0.7,0.7-1,1.1c0,0,0,0,0,0c0.3-0.4,0.7-0.7,1-1.1
					c0,0.2,0,0.4,0.1,0.6c0,0,0.1,0.1,0.1,0c0.1,0,0.2,0,0.3,0c-0.5,0.6-1.1,1.2-1.6,1.8c0,0,0,0,0,0c0.5-0.6,1.1-1.2,1.6-1.8
					c0.7,0.1,1.4,0.1,2,0.1c-0.4,0.5-0.9,0.9-1.3,1.4c0,0.1,0.1,0.1,0.1,0.1c0.5-0.5,0.9-1,1.3-1.5c0,0,0.1,0,0.1,0
					c-0.3,0.4-0.6,0.8-0.9,1.2c-3,2.7-5.9,5.4-8.9,8.1c0.1-0.2,0.2-0.4,0.3-0.6c0-0.1,0-0.1-0.1-0.1c2.3-2.2,4.5-4.6,6.8-6.9l0,0
					c-2.3,2.3-4.7,4.6-7,7c-0.1,0.1-0.2,0.1-0.2,0.2c0,0-0.1,0-0.1,0c-0.3,0.2-0.5,0.4-0.8,0.7c0.1-0.1,0.1-0.2,0.2-0.3
					c0.2-0.3,0.5-0.6,0.7-1c0,0,0,0,0,0l0-0.1c0,0,0-0.1,0.1-0.1c0,0,0,0,0,0c0,0-0.1,0.1-0.1,0.1c0,0,0,0,0,0
					c0.3-0.3,0.6-0.7,0.9-1c0,0,0,0,0,0c-0.3,0.4-0.6,0.7-1,1.1c-0.5,0.3-1,0.7-1.4,1.1c0.1-0.1,0.1-0.2,0.2-0.3
					c0.1-0.2,0.3-0.4,0.4-0.6c0-0.1,0.1-0.1,0.1-0.2c0,0,0,0,0,0l0,0l0,0c0,0-0.1,0.1-0.1,0.1c0,0,0.1-0.1,0.1-0.1c0,0,0,0,0,0
					c-0.3,0.3-0.6,0.7-0.9,1c0.3-0.5,0.5-1,0.7-1.5c0,0,0,0,0,0c-0.1,0.1-0.2,0.3-0.3,0.5c0,0,0,0,0-0.1c0.1-0.1,0.1-0.2,0.2-0.4
					c0,0,0,0,0,0c0,0,0-0.1,0.1-0.1c0-0.1-0.1-0.1-0.1-0.1c0,0.1-0.1,0.1-0.1,0.2c0.4-0.6,0.7-1.2,1.1-1.8c0,0,0,0,0,0
					c-0.4,0.7-0.9,1.4-1.3,2.1c0,0,0,0,0,0c-0.1,0.1-0.2,0.2-0.3,0.3c-0.1,0.1-0.2,0.2-0.2,0.3c0.1-0.3,0.3-0.6,0.4-0.9
					c0.1-0.1,0.1-0.3,0.2-0.4c0-0.1,0.1-0.2,0.1-0.3c0,0,0,0,0,0c-0.1,0.1-0.2,0.3-0.2,0.4c-0.1,0.1-0.1,0.2-0.2,0.2l0,0
					c0.1-0.2,0.2-0.3,0.3-0.5l0,0c-0.2,0.1-0.4,0.3-0.5,0.5c0,0,0,0-0.1,0c0,0.1-0.1,0.1-0.1,0.2c0.1-0.2,0.2-0.3,0.3-0.5
					c0,0,0,0,0,0c-0.1,0.1-0.2,0.2-0.3,0.4c0,0,0,0,0,0c0,0,0,0,0,0c0-0.1,0.1-0.3,0.1-0.4c0,0,0-0.1,0-0.1c0,0,0,0,0,0
					c-0.1,0.1-0.1,0.2-0.2,0.3c0,0,0,0,0,0c0.1-0.2,0.3-0.3,0.4-0.5c0,0,0,0,0,0c0,0,0,0,0,0c0.1-0.1,0.1-0.2,0.2-0.2l0,0
					c0.3-0.4,0.5-0.9,0.7-1.4c0.3-0.5,0.6-1.1,0.9-1.6l0,0c-0.3,0.6-0.7,1.1-1,1.7c-0.3,0.5-0.7,1-0.9,1.6c-0.3,0.3-0.6,0.6-0.8,0.9
					c0,0,0,0,0,0c-0.1,0.1-0.1,0.1-0.2,0.2c0-0.1,0.1-0.2,0.1-0.3c0,0,0,0,0,0c0,0,0,0,0,0c0-0.1,0-0.2,0.1-0.3h0
					c0,0.1-0.1,0.2-0.1,0.3c0-0.1,0.1-0.2,0.1-0.3c0,0,0,0,0,0c-0.1,0.2-0.2,0.3-0.4,0.5c0,0,0,0,0,0s0,0,0,0l0,0
					c0.1-0.2,0.3-0.4,0.4-0.6l0,0c-0.2,0.3-0.5,0.6-0.7,0.9c0-0.1,0-0.3,0.1-0.4c0.1-0.3,0.3-0.6,0.4-0.9c0.2-0.5,0.5-1,0.7-1.5
					c0.2-0.5,0.4-0.9,0.6-1.4c0.5-0.9,1-1.8,1.6-2.7c0.7-1.2,1.5-2.4,2.2-3.6c0,0,0,0,0,0c-0.8,1.2-1.5,2.4-2.2,3.6
					c-0.4,0.7-0.8,1.4-1.3,2.1c0.2-0.4,0.3-0.8,0.5-1.2c0.5-1.1,0.9-2.1,1.4-3.2c0.2-0.5,0.5-1,0.7-1.5c0.2-0.5,0.5-1,0.6-1.5
					c0.7-0.1,1.3-0.4,1.9-0.6c0,0,0,0,0,0c-0.6,0.1-1.3,0.3-1.9,0.6c1.2-1.7,2.4-3.4,3.6-5.2l1.9-2.8c0.3-0.5,0.6-0.9,1-1.4
					c0.1-0.1,0.2-0.2,0.2-0.3c0,0,0,0,0,0C66.8,4,66.9,3.9,67,3.7c0.2-0.3,0.5-0.7,0.7-1c0.1-0.1-0.1-0.3-0.2-0.2
					c-0.7,0.9-1.4,1.9-2,2.9c-0.7,0.9-1.3,1.9-2,2.8c-0.7,0.9-1.3,1.9-2,2.8c-0.3,0.5-0.7,0.9-1,1.4c-0.2,0.3-0.5,0.7-0.7,1.1
					c0,0,0,0-0.1,0.1c-0.5,1-0.9,2.1-1.4,3.1c-0.5,1.1-0.9,2.1-1.4,3.2c-0.4,0.9-0.8,1.8-1.1,2.7c-1.3,2.7-2.5,5.5-3.8,8.2
					c-0.1,0.2-0.3,0.6-0.4,0.8l-0.3,0.6l0,0.1c0,0-0.1,0.2-0.1,0.3c0,0,0,0,0,0c0,0.1-0.1,0.1-0.1,0.2c0,0,0,0,0,0
					c-0.3,0.6-0.5,1.2-0.8,1.8c0,0.1-0.1,0.3-0.1,0.4c0,0.1,0,0.1-0.1,0.2c0,0,0,0.1,0,0.1c0,0,0,0.1,0,0.1c0,0.1,0,0.1-0.1,0.2
					c0,0,0.1,0,0.1,0c0,0,0.1-0.1,0.1-0.1c0,0,0,0,0,0c0-0.1,0.1-0.1,0.1-0.1l0,0l0.1,0l0,0c0,0,0,0,0,0c0,0,0.1-0.1,0.1-0.1
					c0,0,0,0,0,0c0,0,0,0,0-0.1c0.1-0.1,0.3-0.2,0.4-0.3c0.6-0.5,1.1-0.9,1.6-1.4l0,0c1.5-1.3,3-2.7,4.5-4c1.7-1.5,3.4-3.1,5.1-4.7
					c0.9-0.8,1.7-1.5,2.6-2.3c1-0.9,2.1-1.9,3.1-2.8c0,0,0,0,0.1,0c0,0,0,0,0,0c0.3-0.3,0.6-0.5,0.9-0.8c0.1-0.1,0.1-0.1,0-0.2
					c0.7-0.8,1.4-1.7,2.1-2.5c0.8-1,1.6-2,2.4-3c1.6-2,3.2-4,4.7-6.1C78.2,6.8,78.1,6.7,78,6.8z M60.5,12.9
					c-0.2,0.3-0.4,0.6-0.5,0.9c0,0,0-0.1-0.1-0.1C60.1,13.4,60.3,13.2,60.5,12.9z"/>
				<path fill="#231F20" d="M50.1,36L50.1,36c-0.2,0-0.3,0-0.3-0.1l-0.2-0.1l0.1-0.3l0.2,0c0,0,0,0,0,0l-0.2-0.1l0.1-0.4
					c0.1-0.2,0.1-0.3,0.1-0.4l2.1-4.5l3.4-7.5c0.4-0.9,0.8-1.8,1.1-2.7l1.4-3.2c0.1-0.3,0.3-0.7,0.4-1c0.3-0.7,0.6-1.4,0.9-2.1
					c0,0,0.1-0.1,0.1-0.1c0.2-0.3,0.3-0.6,0.5-0.9l0.1-0.2c0.2-0.3,0.4-0.7,0.7-1l0.4-0.6c0.6-0.9,1.3-1.8,1.9-2.7l0.5-0.8
					c0.5-0.7,1-1.4,1.5-2.1c0.2-0.3,0.5-0.7,0.7-1c0.4-0.6,0.9-1.3,1.4-1.9c0.1-0.2,0.4-0.2,0.6-0.1c0.2,0.1,0.2,0.3,0.1,0.5
					c-0.2,0.3-0.4,0.6-0.6,0.9L67.1,4c-0.1,0.1-0.1,0.2-0.2,0.3l-0.1,0.1c-0.1,0.1-0.1,0.2-0.2,0.2c-0.2,0.4-0.5,0.7-0.7,1.1l-2.7,4
					c-0.8,1.2-1.7,2.5-2.5,3.7c0.4-0.1,0.8-0.2,1.1-0.3l0.2-0.1l0.1,0.4L62,13.6c-0.6,0.3-1.3,0.5-1.9,0.7c-0.1,0.3-0.2,0.6-0.4,0.8
					c-0.1,0.2-0.2,0.3-0.2,0.5l-0.7,1.5c-0.1,0.2-0.2,0.4-0.2,0.5c0.4-0.7,0.9-1.5,1.3-2.2l0.1-0.1l0.3,0l0.1,0.3l-0.1,0.1
					c-0.7,1.2-1.4,2.5-2.2,3.7c-0.3,0.5-0.6,1-0.9,1.6c-0.2,0.4-0.4,0.7-0.6,1.1L55.8,24c-0.1,0.3-0.3,0.6-0.4,0.9l0.3,0.2h0.1l0,0
					c0.2-0.2,0.3-0.4,0.5-0.5c0.2-0.4,0.4-0.7,0.6-1.1c0.1-0.2,0.2-0.3,0.3-0.5l1.1-1.9l0.4,0.2l-0.1,0.2c-0.3,0.5-0.6,1-0.9,1.6
					l-0.2,0.5c-0.1,0.3-0.3,0.6-0.4,0.8l0,0l-0.1,0.2c0,0.1-0.1,0.1-0.1,0.2L56.7,25l0.1,0c0,0,0.1,0,0.1-0.1l0.1-0.1l0.1-0.1
					l0.3,0.2c0.1-0.2,0.2-0.3,0.3-0.4c0.1-0.2,0.3-0.4,0.4-0.7l0.1-0.1l0.3,0l0.1,0.3l-0.4,0.7c-0.2,0.3-0.3,0.6-0.5,0.9
					c0,0,0,0,0,0l0.1,0l0,0.2c0,0.1,0,0.1-0.1,0.2l0.1,0l0,0l0.1,0l0.1,0l0.2,0.2c0.1-0.1,0.2-0.1,0.3-0.2l0.4-0.5
					c0.2-0.2,0.3-0.4,0.5-0.6l0.2-0.2l0.4,0.3l-0.1,0.2c-0.2,0.2-0.4,0.4-0.5,0.6L59,26.2l0,0l-0.2,0.4c0,0,0,0,0,0.1c0,0,0,0,0,0
					c1.8-1.9,3.7-3.8,5.5-5.6l1.6-1.5l0.5,0.2l-0.2,0.2l-1.4,1.4c-0.9,0.9-1.8,1.8-2.7,2.7l4.9-4.5c-0.1-0.1-0.1-0.3,0-0.4
					c0.3-0.3,0.6-0.6,0.9-0.9c-0.5,0-0.9,0-1.3,0L65.9,19c-0.3,0.3-0.6,0.6-0.9,0.9l-0.1,0.2l-0.3-0.2l0-0.3l0.1-0.1
					c0.4-0.4,0.7-0.8,1.1-1.2l0.1-0.1l0,0l0-0.1c0,0,0-0.1-0.1-0.1c0,0,0-0.1,0-0.1c-0.2,0.2-0.4,0.5-0.6,0.7l-0.1,0.1l-0.3-0.1
					l-0.1-0.3l0.1-0.1c0.3-0.3,0.6-0.6,0.9-0.9l0.1-0.1l0-0.2c0-0.1,0-0.2,0-0.3c0-0.4,0-0.8,0-1.1l0-0.2h0.5l0.1,0.2
					c0.1,0.4,0.1,0.8,0.2,1.3c0,0.1,0,0.2,0,0.3c0,0.2,0.1,0.4,0.1,0.6c0.6-0.1,1.3-0.1,1.9,0l0.3,0l0,0l0.2,0l0,0l1.9-2.4
					c0.6-0.7,1.2-1.5,1.7-2.2l0.1-0.1c1.6-2,3.2-4.1,4.9-6.1l0.2-0.2l0.1,0.1c0,0,0,0,0,0c0.1-0.1,0.2-0.1,0.3-0.1
					c0.1,0,0.2,0.1,0.3,0.2c0,0.1,0,0.2-0.1,0.3c-1,1.4-2.1,2.8-3.2,4.2c-0.5,0.6-1,1.3-1.5,1.9c-0.8,1-1.6,2-2.4,3l-0.4,0.5
					c-0.5,0.6-1,1.3-1.6,1.9c0,0.1-0.1,0.2-0.1,0.3l-0.9,0.8c0,0-0.1,0.1-0.1,0.1l-5.7,5.1c-1.7,1.6-3.4,3.1-5.1,4.7
					c-0.6,0.5-1.2,1.1-1.8,1.6c-0.9,0.8-1.8,1.6-2.7,2.4c-0.6,0.5-1.1,1-1.7,1.5l-0.4,0.3c0,0,0,0-0.1,0.1l-0.3,0.2
					c0,0,0,0.1-0.1,0.1l0,0l-0.1,0.1C50.3,35.9,50.2,36,50.1,36L50.1,36z M51.3,32.9L51.3,32.9l-0.8,1.8c0,0.1-0.1,0.2-0.1,0.3
					l0.5-0.4c0.6-0.5,1.1-0.9,1.6-1.4c0.9-0.8,1.8-1.6,2.7-2.4c0.6-0.5,1.2-1.1,1.8-1.6c0.4-0.4,0.8-0.7,1.2-1.1l0.5-0.9l0,0
					c-0.2,0.1-0.3,0.3-0.5,0.4l-1.5,1.2l1-1.5c0.1-0.1,0.1-0.1,0.2-0.2c-0.2,0.2-0.4,0.3-0.7,0.6l-1.4,1.2l0.3-0.5L55.5,29l1-1.9
					c0.1-0.1,0.1-0.3,0.2-0.4c0,0,0,0.1-0.1,0.1l-0.4-0.3c0.1-0.2,0.2-0.4,0.3-0.6l-0.1,0.1l0,0l-0.1,0l-0.6,1l0.3-1.4l0-0.1
					c-0.1,0.1-0.1,0.2-0.2,0.2L55.6,26c-0.1,0.1-0.1,0.1-0.2,0.2l-0.1,0.1L54.5,28l0.3-1.2l-0.1,0l0.2-0.7h0c0,0-0.1,0.1-0.1,0.1
					l-0.7,1.1l0.2-0.9L51.3,32.9z M58.7,27.2L58.7,27.2C58.7,27.2,58.7,27.2,58.7,27.2z M69,18.1L69,18.1c-0.2,0.3-0.4,0.5-0.6,0.8
					l0.3-0.3l0-0.1l0.1-0.1c0.6-0.6,1.1-1.3,1.6-2l0.4-0.5c0.8-1,1.6-2,2.4-3c0.5-0.6,1-1.3,1.5-1.9c0.2-0.2,0.3-0.4,0.5-0.6l0,0
					c-0.8,1-1.6,1.9-2.3,2.9l-0.1,0.1c-0.6,0.7-1.2,1.5-1.7,2.2L69,18.1z M78,6.8L78,6.8C78,6.8,78,6.8,78,6.8L78,6.8z M78,6.8
					L78,6.8C78,6.8,78,6.8,78,6.8C78,6.8,78,6.8,78,6.8z M67.4,2.6C67.4,2.6,67.4,2.6,67.4,2.6C67.4,2.6,67.4,2.6,67.4,2.6z"/>
			</g>
			<g>
				<path d="M55.6,26.4C55.6,26.3,55.6,26.3,55.6,26.4C55.6,26.3,55.6,26.4,55.6,26.4C55.6,26.4,55.6,26.4,55.6,26.4z"/>
				<path fill="#231F20" d="M55.4,27.6l0-1.1l0-0.1l0.1-0.1l0.2-0.5l0.2,0.5c0.1,0.1,0,0.2,0,0.3L55.4,27.6z"/>
			</g>
			<g>
				<path d="M54.5,26.4c0,0,0-0.1,0-0.1C54.5,26.4,54.5,26.4,54.5,26.4C54.5,26.4,54.5,26.4,54.5,26.4z"/>
				<polygon fill="#231F20" points="53.7,27.8 54.2,26.3 54.2,26.3 54.2,26.3 54.3,26.3 54.3,26.3 54.3,26.3 54.7,26.4 54.6,26.4 
					54.7,26.4 54.7,26.5 54.7,26.5 54.7,26.6 				"/>
			</g>
			<g>
				<path d="M56.1,26.5C56.1,26.5,56.1,26.5,56.1,26.5c0.1-0.1,0.2-0.2,0.3-0.3c0,0,0-0.1,0.1-0.1C56.3,26.2,56.2,26.4,56.1,26.5z"
					/>
				<path fill="#231F20" d="M56.1,26.9L56,26.7l-0.3-0.1l0.5-0.7v0l0,0l0.4,0.3l-0.1,0.2c-0.1,0.1-0.1,0.2-0.2,0.3L56.1,26.9z"/>
			</g>
			<g>
				<polygon points="56.3,25.8 56.3,25.8 56.3,25.8 				"/>
				<polygon fill="#231F20" points="56.4,26 56.3,25.9 56.1,25.7 56.1,25.7 56.5,25 56.5,25.9 56.5,25.9 56.3,25.9 				"/>
			</g>
			<g>
				<path d="M55.2,25.7c0,0.1-0.1,0.1-0.1,0.2c0,0,0,0,0,0C55.2,25.9,55.2,25.8,55.2,25.7z"/>
				<path fill="#231F20" d="M55.2,26.4l-0.4-0.4l0-0.2l0,0c0,0,0,0,0,0c0-0.1,0-0.1,0.1-0.2l0.5,0.2l0,0.1c0,0,0,0.1,0,0.1
					c0,0,0,0,0,0L55.2,26.4z"/>
			</g>
		</g>
		<g>
			<g>
				<path d="M77.5,34.6c-1.9,0.2-5.8,0.7-7.7,0.9c-0.9,0.1-1.8,0.2-2.7,0.4c-0.5,0.1-1,0.1-1.4,0.2c-0.4,0.1-0.9,0.1-1.3,0.3l0,0
					c0.4,0.1,0.8,0,1.3,0c0.5,0,1-0.1,1.5-0.2c0.9-0.1,1.9-0.2,2.8-0.3c1.9-0.2,5.8-0.7,7.7-0.9C77.9,35,77.8,34.6,77.5,34.6z"/>
				<path fill="#231F20" d="M64.7,36.7c-0.1,0-0.2,0-0.4,0l-0.2,0L64,36.3l0.2-0.1c0.4-0.2,0.7-0.2,1.1-0.2l0.3,0
					c0.3,0,0.6-0.1,0.9-0.1l0.6-0.1c0.9-0.1,1.8-0.2,2.7-0.4c0.9-0.1,2.4-0.3,3.8-0.5c1.4-0.2,2.9-0.4,3.8-0.5c0.2,0,0.4,0,0.5,0.2
					c0.1,0.1,0.1,0.3,0.1,0.5c-0.1,0.1-0.2,0.2-0.4,0.3c-0.9,0.1-2.4,0.3-3.8,0.4c-1.4,0.2-2.9,0.3-3.8,0.4l-2.8,0.3
					c-0.2,0-0.4,0-0.6,0.1c-0.3,0-0.6,0.1-0.8,0.1c-0.1,0-0.2,0-0.3,0C65.1,36.7,64.9,36.7,64.7,36.7z"/>
			</g>
		</g>
		<g>
			<g>
				<path d="M70.1,24.2c-0.3,0-0.7,0-1,0c-0.3,0-0.7,0-1,0c-0.7,0-1.4,0-2.1,0c-0.7,0-1.4,0-2.1,0c-0.7,0-1.4,0-2,0.1v0
					c0.6,0.1,1.3,0.1,2,0.1c0.7,0,1.4,0,2.1,0c0.7,0,1.4,0,2.1,0c0.4,0,0.7,0,1.1,0c0.3,0,0.7,0,1,0C70.3,24.5,70.3,24.2,70.1,24.2z
					"/>
				<path fill="#231F20" d="M69.8,24.8c-0.1,0-0.2,0-0.4,0c-0.1,0-0.2,0-0.3,0c-0.2,0-0.5,0-0.7,0l-0.5,0c-0.6,0-1.3,0-1.9,0l-0.7,0
					c-0.5,0-0.9,0-1.4,0c-0.2,0-0.3,0-0.5,0c-0.5,0-1,0-1.5-0.1l-0.2,0v-0.4l0.2-0.1c0.5-0.1,1-0.1,1.6-0.1c0.2,0,0.3,0,0.5,0
					c0.5,0,1,0,1.5,0l0.6,0c0.5,0,0.9,0,1.4,0l1,0c0.2,0,0.5,0,0.7,0c0.1,0,0.2,0,0.3,0c0.2,0,0.5,0,0.8,0c0.2,0,0.4,0.2,0.4,0.4
					c0,0.2-0.1,0.3-0.3,0.4C70,24.8,69.9,24.8,69.8,24.8z M70.1,24.4L70.1,24.4L70.1,24.4L70.1,24.4z"/>
			</g>
		</g>
		<g>
			<g>
				<path d="M74.6,30.9c-0.2-0.3-0.4-0.6-0.6-0.8c-0.2-0.3-0.4-0.6-0.6-0.8c-0.4-0.6-0.8-1.1-1.2-1.7c-0.4-0.6-0.8-1.1-1.2-1.7
					c-0.4-0.5-0.8-1.1-1.3-1.6l0,0c0.3,0.6,0.7,1.1,1.1,1.7c0.4,0.6,0.8,1.1,1.2,1.7c0.4,0.6,0.8,1.1,1.2,1.7
					c0.2,0.3,0.4,0.6,0.6,0.9c0.2,0.3,0.4,0.6,0.6,0.8C74.6,31.3,74.7,31.1,74.6,30.9z"/>
				<path fill="#231F20" d="M74.5,31.4c-0.1,0-0.2,0-0.3-0.1c-0.2-0.2-0.3-0.4-0.5-0.6c-0.1-0.1-0.1-0.2-0.2-0.2
					c-0.1-0.2-0.3-0.4-0.4-0.6L73,29.6c-0.4-0.6-0.8-1.1-1.2-1.7l-0.4-0.6c-0.3-0.4-0.5-0.8-0.8-1.1c-0.1-0.1-0.2-0.3-0.3-0.4
					c-0.3-0.4-0.6-0.8-0.8-1.3l-0.1-0.2l0.3-0.2l0.2,0.1c0.4,0.3,0.7,0.8,1,1.2c0.1,0.1,0.2,0.3,0.3,0.4c0.3,0.4,0.6,0.8,0.9,1.2
					l0.3,0.4c0.3,0.4,0.6,0.8,0.8,1.1l0.6,0.8c0.1,0.2,0.3,0.4,0.4,0.5c0.1,0.1,0.1,0.2,0.2,0.2c0.2,0.2,0.3,0.4,0.4,0.6
					c0.1,0.2,0,0.4-0.1,0.6C74.7,31.4,74.6,31.4,74.5,31.4z"/>
			</g>
		</g>
		<g>
			<g>
				<path d="M77.6,34.6c-0.1-0.3-0.4-0.5-0.6-0.8c-0.2-0.3-0.5-0.6-0.7-0.9c-0.4-0.6-0.9-1.1-1.3-1.7c-0.9-1.1-2.6-3.4-3.6-4.5
					c0,0-0.1,0-0.1,0c0.8,1.2,2.5,3.5,3.3,4.6c0.4,0.6,0.8,1.1,1.2,1.7c0.2,0.3,0.4,0.6,0.6,0.9c0.2,0.3,0.4,0.6,0.6,0.8
					C77.4,35,77.7,34.9,77.6,34.6z"/>
				<path fill="#231F20" d="M77.4,35.2c-0.1,0-0.3,0-0.4-0.1c-0.2-0.2-0.4-0.4-0.5-0.6c-0.1-0.1-0.1-0.2-0.2-0.2
					c-0.2-0.2-0.3-0.5-0.5-0.7l-0.4-0.6c-0.3-0.4-0.6-0.9-0.9-1.3c-0.2-0.3-0.5-0.7-0.9-1.2c-0.9-1.2-1.9-2.6-2.5-3.5L71,26.7
					l0.4-0.2l0.2,0.1c0.9,1,2.5,3,3.4,4.2l0.2,0.3c0.3,0.4,0.6,0.8,0.9,1.1l0.4,0.5c0.2,0.3,0.5,0.6,0.7,0.9
					c0.1,0.1,0.1,0.1,0.2,0.2c0.2,0.2,0.3,0.4,0.4,0.6h0c0.1,0.2,0,0.4-0.1,0.6C77.6,35.1,77.5,35.2,77.4,35.2z M77.4,34.7
					C77.4,34.7,77.4,34.7,77.4,34.7l0.2-0.1L77.4,34.7z M76.9,34.1C76.9,34.1,76.9,34.1,76.9,34.1c0.2,0.2,0.3,0.4,0.4,0.5
					c-0.1-0.1-0.2-0.3-0.3-0.4C77,34.2,76.9,34.1,76.9,34.1z"/>
			</g>
		</g>
		<g>
			<g>
				<g>
					<path d="M43.9,40.4c-0.2-0.5-0.6-1-0.9-1.4c-0.3-0.5-0.7-0.9-1-1.4c-0.7-0.9-1.3-1.9-2-2.8c-1.3-1.9-2.6-3.8-4-5.7
						c-0.7-1-1.4-2-2.2-3c0.1,0,0.1,0,0.1,0c0-0.1-0.1-0.1-0.1-0.2c-0.1-0.1-0.1-0.2-0.1-0.3c-1,0-2,0.1-3,0.1
						c-1.2,0-2.4,0.1-3.7,0.1c-2.4,0.1-4.8,0.1-7.2,0.2c-1.3,0-5,0.4-6.4,0.5c-0.1,0,0,0.1,0,0.1c4.8,0.1,12-0.4,16.8-0.5
						c0.7,0,1.4,0,2,0c0.5,0,0.9,0,1.4,0c1.1,2,2.4,3.8,3.7,5.7c1.3,1.9,2.6,3.8,3.9,5.7c0.4,0.5,0.7,1.1,1.1,1.6
						c0.4,0.5,0.7,1.1,1.1,1.6C43.6,40.9,44,40.7,43.9,40.4z"/>
					<path fill="#231F20" d="M43.7,41c-0.1,0-0.3-0.1-0.4-0.2c-0.3-0.3-0.6-0.7-0.8-1.1c-0.1-0.2-0.2-0.3-0.3-0.5l-1.1-1.6
						c-1.3-1.9-2.6-3.8-3.9-5.7l-0.7-1c-1-1.5-2-3-2.9-4.5c-0.2,0-0.4,0-0.7,0c-0.2,0-0.4,0-0.6,0c-0.7,0-1.4,0-2,0
						c-1.8,0-4,0.1-6.3,0.2c-3.7,0.2-7.5,0.3-10.5,0.3c-0.2,0-0.3-0.1-0.3-0.3l0-0.2l0.3-0.1c0.5,0,1.5-0.1,2.5-0.2
						c1.5-0.1,3.1-0.3,3.9-0.3c2.4-0.1,4.8-0.2,7.2-0.2l1.3,0c0.8,0,1.6,0,2.4-0.1c0.3,0,0.7,0,1,0c0.7,0,1.3-0.1,2,0l0.2,0l0.1,0.1
						c0,0.1,0.1,0.2,0.1,0.2c0,0.1,0.1,0.1,0.1,0.2l0.2,0.4l-0.1,0c0.7,0.8,1.3,1.7,1.9,2.6c1.1,1.5,2.2,3.1,3.3,4.6l1.6,2.3
						c0.3,0.5,0.7,1,1,1.5c0.3,0.5,0.7,0.9,1,1.4c0.1,0.1,0.2,0.2,0.3,0.4c0.3,0.3,0.5,0.7,0.7,1.1l0,0c0.1,0.2,0,0.5-0.2,0.6
						C43.9,41,43.8,41,43.7,41z M40.1,35.4c0.4,0.7,0.9,1.3,1.3,2l1.1,1.6c0.1,0.1,0.2,0.3,0.3,0.5c0.2,0.4,0.5,0.8,0.8,1.1l0,0
						c-0.2-0.3-0.4-0.7-0.6-1c-0.1-0.1-0.2-0.3-0.3-0.4c-0.3-0.5-0.7-0.9-1-1.4c-0.3-0.5-0.7-1-1-1.5L40.1,35.4z M13.4,26.5
						C13.4,26.5,13.4,26.5,13.4,26.5C13.4,26.5,13.4,26.5,13.4,26.5z"/>
				</g>
			</g>
			<g>
				<g>
					<path d="M42.5,40.9c-0.7,0-1.5,0.2-2.2,0.3c-0.7,0.1-1.5,0.2-2.2,0.3c-1.5,0.2-3,0.4-4.5,0.6c-3,0.4-6,0.8-8.9,1.3
						c-0.8,0.1-1.6,0.2-2.4,0.3c0.1,0.1,0.2,0.2,0.3,0.3c0.5-0.1,1-0.1,1.5-0.2c1.5-0.2,3-0.4,4.5-0.6c3-0.4,6-0.8,9-1.2
						c0.8-0.1,1.6-0.2,2.5-0.3c0.8-0.1,1.7-0.1,2.5-0.4C42.9,41.3,42.7,40.9,42.5,40.9z"/>
					<path fill="#231F20" d="M22.5,44.3L22.5,44.3c-0.2-0.2-0.3-0.3-0.4-0.4l-0.5-0.4l2.9-0.4c3-0.4,6-0.9,8.9-1.3l4.5-0.6
						c0.7-0.1,1.4-0.2,2.1-0.3l0.1,0c0.2,0,0.4-0.1,0.6-0.1c0.6-0.1,1.1-0.2,1.7-0.2l0,0c0.3,0,0.5,0.2,0.5,0.5
						c0,0.2-0.1,0.4-0.3,0.5c-0.6,0.2-1.2,0.3-1.8,0.3c-0.2,0-0.5,0-0.7,0.1l-2.5,0.3c-3,0.4-6,0.8-9,1.2c-1.5,0.2-3,0.4-4.5,0.6
						c-0.5,0.1-1,0.1-1.5,0.2L22.5,44.3z M42.4,41.1c-0.5,0-1,0.1-1.5,0.2c-0.2,0-0.4,0.1-0.6,0.1l-0.1,0c-0.7,0.1-1.4,0.2-2.1,0.3
						l-4.5,0.6c-1.3,0.2-2.6,0.4-4,0.6c2.6-0.3,5.3-0.7,7.9-1l2.5-0.3c0.2,0,0.5-0.1,0.7-0.1C41.3,41.4,41.9,41.3,42.4,41.1
						C42.4,41.1,42.4,41.1,42.4,41.1z"/>
				</g>
			</g>
			<g>
				<g>
					<path d="M23,43.2c-2.3-4.3-4.5-8.5-6.9-12.7c-0.7-1.2-1.3-2.4-2.1-3.6c0-0.1-0.2,0-0.1,0c0.4,1.1,1,2.1,1.5,3.2
						c0.5,1.1,1.1,2.1,1.6,3.2c1.1,2.2,2.3,4.3,3.4,6.5c0.6,1.2,1.3,2.4,1.9,3.6C22.5,43.8,23.2,43.6,23,43.2z"/>
					<path fill="#231F20" d="M22.7,43.9C22.6,43.9,22.6,43.9,22.7,43.9c-0.2,0-0.4-0.1-0.5-0.3c-0.7-1.2-1.3-2.4-1.9-3.6l-0.4-0.7
						c-1-1.9-2-3.8-3.1-5.8c-0.6-1.1-1.1-2.1-1.6-3.2l-0.3-0.6c-0.4-0.8-0.9-1.7-1.2-2.6c-0.1-0.2,0-0.3,0.1-0.4
						c0.2-0.1,0.4,0,0.4,0.1c0.6,0.9,1.2,1.9,1.7,2.8c0.1,0.3,0.3,0.5,0.4,0.8c2.5,4.5,4.9,8.9,6.9,12.7c0.1,0.2,0.1,0.4,0,0.5
						C23.1,43.8,22.9,43.9,22.7,43.9z M15.9,30.6c0.4,0.9,0.9,1.7,1.3,2.6c1,1.9,2,3.9,3.1,5.8l0.4,0.7c0.6,1.2,1.3,2.4,1.9,3.6
						c0,0,0,0.1,0.1,0.1c0,0,0.1,0,0.1,0l0,0C20.8,39.5,18.4,35.1,15.9,30.6z M13.7,27C13.7,27,13.7,27,13.7,27
						C13.7,27,13.7,27,13.7,27z"/>
				</g>
			</g>
		</g>
	</g>
</g>
</svg>
