<?xml version="1.0" encoding="utf-8"?>
<!-- Generator: Adobe Illustrator 27.2.0, SVG Export Plug-In . SVG Version: 6.00 Build 0)  -->
<svg version="1.2" baseProfile="tiny" id="Шар_1"
	 xmlns="http://www.w3.org/2000/svg" xmlns:xlink="http://www.w3.org/1999/xlink" x="0px" y="0px" viewBox="0 0 95 64"
	 overflow="visible" xml:space="preserve">
<g>
	<g>
		<path stroke="#231F20" stroke-width="0.5" stroke-miterlimit="10" d="M40.7,10.3c3.6,1.8,10.9,5.5,14.5,7.3
			c1.7,0.9,3.4,1.7,5.3,2.6c1,0.4,1.9,1,2.7,1.3c0.8,0.3,1.7,0.9,2.5,1.1l0,0c-0.7-0.5-1.4-0.9-2.3-1.4s-1.9-1-2.8-1.4
			c-1.7-0.9-3.6-1.8-5.2-2.7c-3.6-1.8-10.9-5.5-14.5-7.3C40.2,9.4,40.2,10.2,40.7,10.3z"/>
	</g>
	<g>
		<path stroke="#231F20" stroke-width="0.5" stroke-miterlimit="10" d="M24.1,22.9c0.6-0.5,0.9-0.9,1.5-1.4s1.1-1.1,1.7-1.6
			c1.1-1.1,2-2,3.2-3.1c2-2,6.3-6.1,8.3-8.2l0,0c-2.3,2.1-6.6,6.2-8.6,8.2c-1.1,1.1-2.1,2-3.2,3c-0.6,0.5-1.1,1.1-1.7,1.6
			c-0.6,0.5-1.1,1.1-1.5,1.4C23.2,23.5,23.5,23.4,24.1,22.9z"/>
	</g>
	<g>
		<path stroke="#231F20" stroke-width="0.5" stroke-miterlimit="10" d="M39.5,10.4c-0.6,0.4-1,0.8-1.6,1.3c-0.6,0.5-1.2,1-1.8,1.5
			c-1.2,1-2.2,1.9-3.4,2.8c-2.2,1.9-6.8,5.7-8.9,7.5l0,0c2.4-1.9,7-5.7,9.2-7.6c1.2-1,2.2-1.8,3.4-2.8c0.6-0.5,1.2-1,1.8-1.5
			c0.6-0.5,1.2-1,1.6-1.3C40.5,9.9,40.2,10,39.5,10.4z"/>
	</g>
	<g>
		<path stroke="#231F20" stroke-width="0.5" stroke-miterlimit="10" d="M66,22.9c-0.7,0.6-1.4,1.3-2,1.9c-0.6,0.6-1.4,1.3-2,1.9
			c-1.4,1.3-2.7,2.6-4.1,3.9c-2.7,2.6-5.5,5.2-8.1,7.7c-0.7,0.7-1.5,1.4-2.2,2.1c0.1,0,0.2-0.1,0.4-0.1c0.4-0.4,0.9-0.8,1.4-1.3
			c1.4-1.3,2.7-2.6,4.1-3.9c2.7-2.6,5.5-5.2,8.2-7.7c0.7-0.7,1.5-1.4,2.3-2.1c0.7-0.7,1.6-1.4,2.3-2.2C66.4,22.8,66.2,22.7,66,22.9z
			"/>
	</g>
	<g>
		<path stroke="#231F20" stroke-width="0.5" stroke-miterlimit="10" d="M54.1,52.1c0.8-0.5,1.5-1.2,2.2-1.8c0.7-0.6,1.5-1.2,2.2-1.8
			c1.5-1.2,3-2.4,4.4-3.6c3-2.4,5.9-4.8,8.7-7.3c0.8-0.6,1.6-1.3,2.4-1.9c-0.2,0-0.3-0.1-0.5-0.1c-0.5,0.4-1,0.8-1.5,1.2
			c-1.5,1.2-3,2.4-4.4,3.6c-3,2.4-5.9,4.8-8.9,7.3c-0.8,0.6-1.6,1.3-2.5,2c-0.8,0.6-1.8,1.2-2.4,2.1C53.5,51.8,53.9,52.2,54.1,52.1z
			"/>
	</g>
	<g>
		<path stroke="#231F20" stroke-width="0.5" stroke-miterlimit="10" d="M47.2,39.6c-6.2-4.2-12.1-8.3-18.3-12.3
			c-1.8-1.1-3.5-2.3-5.4-3.4c-0.1-0.1-0.2,0.1-0.1,0.1c1.3,1.2,2.9,2.1,4.3,3.3c1.5,1.1,3,2.1,4.4,3.2c3.1,2.2,6.2,4.2,9.2,6.4
			c1.7,1.2,3.5,2.3,5.1,3.5C47.2,40.7,47.9,39.9,47.2,39.6z"/>
	</g>
	<g>
		<path stroke="#231F20" stroke-width="0.5" stroke-miterlimit="10" d="M53,51.9c-2.2-1.3-4.3-2.6-6.4-3.8c-0.6-0.3-1.2-0.7-1.9-1
			c0,0-0.1,0.1,0,0c0.5,0.4,1,0.7,1.5,1s1,0.6,1.6,1c1.1,0.7,2.2,1.3,3.2,2c0.6,0.4,1.2,0.7,1.8,1.1C53,52.3,53.3,52,53,51.9z"/>
	</g>
	<g>
		<path stroke="#231F20" stroke-width="0.5" stroke-miterlimit="10" d="M30,36.5c2.1,1.5,4,2.9,6.1,4.3c0.6,0.4,1.2,0.8,1.8,1.2
			c0,0,0.1,0,0,0c-0.4-0.4-0.9-0.7-1.4-1.1c-0.5-0.4-1-0.7-1.5-1.1c-1-0.8-2.1-1.5-3.1-2.2c-0.6-0.4-1.2-0.8-1.7-1.2
			C30.1,36.2,29.8,36.4,30,36.5z"/>
	</g>
	<g>
		<path stroke="#231F20" stroke-width="0.5" stroke-miterlimit="10" d="M47.6,41.5c1.6,2.8,3.1,5.5,4.8,8.2c0.5,0.8,0.9,1.6,1.5,2.3
			c0,0.1,0.1,0,0.1,0c-0.3-0.7-0.7-1.4-1.1-2.1c-0.4-0.7-0.8-1.4-1.1-2.1c-0.8-1.4-1.6-2.8-2.4-4.2c-0.4-0.8-0.9-1.6-1.3-2.3
			C47.9,41.1,47.4,41.3,47.6,41.5z"/>
	</g>
	<g>
		<path stroke="#231F20" stroke-width="0.5" stroke-miterlimit="10" d="M67.7,25c1.6,2.8,3.1,5.5,4.8,8.2c0.5,0.8,0.9,1.6,1.5,2.3
			c0,0.1,0.1,0,0.1,0c-0.3-0.7-0.7-1.4-1.1-2.1c-0.4-0.7-0.8-1.4-1.1-2.1c-0.8-1.4-1.6-2.8-2.4-4.2c-0.4-0.8-0.9-1.6-1.3-2.3
			C67.9,24.6,67.5,24.8,67.7,25z"/>
	</g>
	<g>
		<path stroke="#231F20" stroke-width="0.5" stroke-miterlimit="10" d="M23.4,25.5c1.6,2.8,3.1,5.5,4.8,8.2c0.5,0.8,0.9,1.6,1.5,2.3
			c0,0.1,0.1,0,0.1,0c-0.3-0.7-0.7-1.4-1.1-2.1c-0.4-0.7-0.8-1.4-1.1-2.1c-0.8-1.4-1.6-2.8-2.4-4.2c-0.4-0.8-0.9-1.6-1.3-2.3
			C23.7,25.1,23.2,25.2,23.4,25.5z"/>
	</g>
	<path fill="none" stroke="#231F20" stroke-width="0.5" stroke-miterlimit="10" d="M39,42.4c0,0,0.8-1.2,2.9-0.9"/>
	<g>
		<path fill="#EC1C24" d="M38.1,41.1c1.5,1,2.9,2.1,4.4,3.1c0.4,0.3,0.8,0.6,1.3,0.8c0,0,0.1,0,0,0c-0.3-0.3-0.7-0.5-1-0.8
			c-0.3-0.3-0.7-0.5-1.1-0.8c-0.7-0.5-1.5-1-2.2-1.6c-0.4-0.3-0.8-0.6-1.2-0.9C38.2,40.9,37.9,41.1,38.1,41.1z"/>
	</g>
	<g>
		<path fill="#EC1C24" d="M38.5,41.6c1.5,1,2.9,2.1,4.4,3.1c0.4,0.3,0.8,0.6,1.3,0.8c0,0,0.1,0,0,0c-0.3-0.3-0.7-0.5-1-0.8
			c-0.3-0.3-0.7-0.5-1.1-0.8c-0.7-0.5-1.5-1-2.2-1.6c-0.4-0.3-0.8-0.6-1.2-0.9C38.6,41.4,38.4,41.5,38.5,41.6z"/>
	</g>
	<g>
		<path fill="#EC1C24" d="M38.3,40.8c1.5,1,2.9,2.1,4.4,3.1c0.4,0.3,0.8,0.6,1.3,0.8c0,0,0.1,0,0,0c-0.3-0.3-0.7-0.5-1-0.8
			s-0.7-0.5-1.1-0.8c-0.7-0.5-1.5-1-2.2-1.6c-0.4-0.3-0.8-0.6-1.2-0.9C38.4,40.5,38.2,40.7,38.3,40.8z"/>
	</g>
	<g>
		<path fill="#EC1C24" d="M43.4,43.7c-1.5-1-2.9-2.1-4.4-3.1c-0.4-0.3-0.8-0.6-1.3-0.8c0,0-0.1,0,0,0c0.3,0.3,0.7,0.5,1,0.8
			c0.3,0.3,0.7,0.5,1.1,0.8c0.7,0.5,1.5,1,2.2,1.6c0.4,0.3,0.8,0.6,1.2,0.9C43.4,44,43.6,43.8,43.4,43.7z"/>
	</g>
	<g>
		<path fill="#EC1C24" d="M37.2,39.3c1.5,1,2.9,2.1,4.4,3.1c0.4,0.3,0.8,0.6,1.3,0.8c0,0,0.1,0,0,0c-0.3-0.3-0.7-0.5-1-0.8
			c-0.3-0.3-0.7-0.5-1.1-0.8c-0.7-0.5-1.5-1-2.2-1.6c-0.4-0.3-0.8-0.6-1.2-0.9C37.3,39,37.1,39.2,37.2,39.3z"/>
	</g>
	<g>
		<path fill="#EC1C24" d="M36.9,38.3c1.5,1,2.9,2.1,4.4,3.1c0.4,0.3,0.8,0.6,1.3,0.8c0,0,0.1,0,0,0c-0.3-0.3-0.7-0.5-1-0.8
			s-0.7-0.5-1.1-0.8c-0.7-0.5-1.5-1-2.2-1.6c-0.4-0.3-0.8-0.6-1.2-0.9C37,38,36.8,38.2,36.9,38.3z"/>
	</g>
	<g>
		<path fill="#EC1C24" d="M42.8,42.5c-1.5-1-2.9-2.1-4.4-3.1c-0.4-0.3-0.8-0.6-1.3-0.8c0,0-0.1,0,0,0c0.3,0.3,0.7,0.5,1,0.8
			c0.3,0.3,0.7,0.5,1.1,0.8c0.7,0.5,1.5,1,2.2,1.6c0.4,0.3,0.8,0.6,1.2,0.9C42.7,42.8,42.9,42.6,42.8,42.5z"/>
	</g>
	<g>
		<path fill="#EC1C24" d="M39.1,35.8c-1.5-1-2.9-2.1-4.4-3.1c-0.4-0.3-0.8-0.6-1.3-0.8c0,0-0.1,0,0,0c0.3,0.3,0.7,0.5,1,0.8
			s0.7,0.5,1.1,0.8c0.7,0.5,1.5,1,2.2,1.6c0.4,0.3,0.8,0.6,1.2,0.9C39,36.1,39.2,35.9,39.1,35.8z"/>
	</g>
	<g>
		<path fill="#EC1C24" d="M34.4,34c1.5,1,2.9,2.1,4.4,3.1c0.4,0.3,0.8,0.6,1.3,0.8c0,0,0.1,0,0,0c-0.3-0.3-0.7-0.5-1-0.8
			c-0.3-0.3-0.7-0.5-1.1-0.8c-0.7-0.5-1.5-1-2.2-1.6c-0.4-0.3-0.8-0.6-1.2-0.9C34.5,33.7,34.3,33.9,34.4,34z"/>
	</g>
	<g>
		<path fill="#EC1C24" d="M36.6,37.2c1.5,1,2.9,2.1,4.4,3.1c0.4,0.3,0.8,0.6,1.3,0.8c0,0,0.1,0,0,0c-0.3-0.3-0.7-0.5-1-0.8
			s-0.7-0.5-1.1-0.8c-0.7-0.5-1.5-1-2.2-1.6c-0.4-0.3-0.8-0.6-1.2-0.9C36.7,36.9,36.4,37.1,36.6,37.2z"/>
	</g>
	<g>
		<path fill="#EC1C24" d="M36.3,37c1.5,1,2.9,2.1,4.4,3.1c0.4,0.3,0.8,0.6,1.3,0.8c0,0,0.1,0,0,0c-0.3-0.3-0.7-0.5-1-0.8
			s-0.7-0.5-1.1-0.8c-0.7-0.5-1.5-1-2.2-1.6c-0.4-0.3-0.8-0.6-1.2-0.9C36.3,36.7,36.1,36.9,36.3,37z"/>
	</g>
	<g>
		<path fill="#EC1C24" d="M42.2,41.3c-1.5-1-2.9-2.1-4.4-3.1c-0.4-0.3-0.8-0.6-1.3-0.8c0,0-0.1,0,0,0c0.3,0.3,0,0.2,0.3,0.5
			s1.4,0.8,1.7,1.1c0.7,0.5,1.5,1,2.2,1.6c0.4,0.3,0.8,0.6,1.2,0.9C42.2,41.6,42.4,41.4,42.2,41.3z"/>
	</g>
	<g>
		<path fill="#EC1C24" d="M35,35.3c1.5,1,2.9,2.1,4.4,3.1c0.4,0.3,0.8,0.6,1.3,0.8c0,0,0.1,0,0,0c-0.3-0.3-0.7-0.5-1-0.8
			c-0.3-0.3-0.7-0.5-1.1-0.8c-0.7-0.5-1.5-1-2.2-1.6c-0.4-0.3-0.8-0.6-1.2-0.9C35.1,35,34.8,35.2,35,35.3z"/>
	</g>
	<g>
		<path fill="#EC1C24" d="M35.6,36.1c1.5,1,2.9,2.1,4.4,3.1c0.4,0.3,0.8,0.6,1.3,0.8c0,0,0.1,0,0,0c-0.3-0.3-0.7-0.5-1-0.8
			c-0.3-0.3-0.6-0.6-1-0.9c-0.7-0.5-1.6-1-2.3-1.5c-0.4-0.3-0.8-0.6-1.2-0.9C35.7,35.8,35.4,36,35.6,36.1z"/>
	</g>
	<g>
		<path fill="#EC1C24" d="M39.9,37c-1.5-1.1-2.9-2.1-4.4-3.1c-0.4-0.3-0.8-0.6-1.3-0.9c0,0-0.1,0,0,0c0.3,0.3,0.7,0.5,1,0.8
			c0.3,0.3,0.7,0.5,1.1,0.8c0.7,0.6,1.4,1.2,2.2,1.7c0.4,0.3,0.9,0.5,1.3,0.8C39.8,37.2,40,37.1,39.9,37z"/>
	</g>
	<g>
		<path stroke="#231F20" stroke-width="0.5" stroke-miterlimit="10" d="M44.8,46.4c-1.5-2.9-2.9-5.6-4.5-8.4
			c-0.5-0.8-0.8-1.6-1.4-2.4c0-0.1-0.1,0-0.1,0c0.3,0.7,0.6,1.4,1,2.1c0.3,0.7,0.7,1.4,1,2.1c0.7,1.5,1.5,2.9,2.2,4.3
			c0.4,0.8,0.8,1.6,1.2,2.4C44.6,46.8,45,46.7,44.8,46.4z"/>
	</g>
	<g>
		<path stroke="#231F20" stroke-width="0.5" stroke-miterlimit="10" d="M32.7,32c1.6,2.8,3.1,5.5,4.8,8.2c0.5,0.8,0.9,1.6,1.5,2.3
			c0,0.1,0.1,0,0.1,0c-0.3-0.7-0.7-1.4-1.1-2.1c-0.4-0.7-0.8-1.4-1.1-2.1c-0.8-1.4-1.6-2.8-2.4-4.2c-0.4-0.8-0.9-1.6-1.3-2.3
			C32.9,31.6,32.5,31.7,32.7,32z"/>
	</g>
	<g>
		<path fill="#231F20" d="M38.7,21.6l-0.3-0.2l-0.5,0.3l-0.1-0.1l0.5-0.3l-0.6-0.3l-0.5,0.3l-0.1-0.1l0.5-0.3l-0.3-0.2l0.1-0.1
			l0.3,0.2l0.5-0.3l-0.3-0.2l0.1-0.1l0.3,0.2l0.5-0.3l0.1,0.1l-0.5,0.3l0.6,0.3l0.5-0.3l0.1,0.1L39,21.1l0.3,0.2l-0.1,0.1l-0.3-0.2
			l-0.5,0.3L38.7,21.6L38.7,21.6z M37.8,21l0.6,0.3l0.5-0.3l-0.6-0.3L37.8,21z"/>
		<path fill="#231F20" d="M39.6,23.2L39.6,23.2l-0.8-0.3l0-0.1l0.2,0.1c0,0,0,0,0.1,0s0,0,0.1-0.1l0.3-0.4c-0.1,0-0.2,0-0.3,0
			c-0.1,0-0.2,0-0.2-0.1c-0.1-0.1-0.2-0.2-0.2-0.3c0-0.1,0-0.3,0.2-0.4l0,0c0.1-0.2,0.3-0.2,0.4-0.3c0.2,0,0.3,0,0.5,0.1
			c0.1,0.1,0.2,0.2,0.2,0.3c0,0,0.1,0,0.1,0c0,0,0.1,0,0.1,0l0.1,0l-1,1.3c0,0-0.1,0.1-0.1,0.1c0,0,0,0,0,0L39.6,23.2z M39.2,21.9
			c-0.1,0.1-0.2,0.2-0.2,0.3c0,0.1,0,0.1,0.1,0.2c0,0,0.1,0,0.2,0c0.1,0,0.2,0,0.3-0.1l0.5-0.6c0-0.1-0.1-0.2-0.2-0.2
			c-0.1-0.1-0.2-0.1-0.3,0c-0.1,0-0.2,0.1-0.3,0.2L39.2,21.9z"/>
		<path fill="#231F20" d="M41.3,23.6L41.3,23.6l-0.5-0.2l0.1-0.2c-0.1,0-0.2,0.1-0.3,0c-0.1,0-0.2,0-0.3-0.1
			c-0.1-0.1-0.2-0.1-0.2-0.3c0-0.1,0-0.2,0.1-0.3l0.4-0.5c0,0,0.1-0.1,0.1-0.1c0,0,0,0,0,0l-0.1-0.1l0-0.1l0.5,0.3l-0.5,0.7
			c-0.1,0.1-0.1,0.2-0.1,0.2c0,0.1,0,0.1,0.1,0.1c0,0,0.1,0,0.1,0c0,0,0.1,0,0.2,0c0.1,0,0.1,0,0.2-0.1l0.5-0.5c0,0,0.1-0.1,0.1-0.1
			c0,0,0,0,0,0l-0.2-0.1l0-0.1l0.5,0.3l-0.7,0.8c0,0-0.1,0.1-0.1,0.1c0,0,0,0,0,0L41.3,23.6z"/>
		<path fill="#231F20" d="M42,22.7L42,22.7l0.5,0.2l-0.7,0.8c0,0-0.1,0.1-0.1,0.1c0,0,0,0,0,0L42,24l0,0.1l-0.7-0.4l0-0.1l0.2,0.1
			c0,0,0,0,0.1,0c0,0,0,0,0.1-0.1l0.5-0.7c0,0,0.1-0.1,0.1-0.1c0,0,0,0,0,0L42,22.7z M42.5,22.7c-0.1,0-0.1-0.1-0.1-0.1
			c0,0,0-0.1,0-0.1c0,0,0.1-0.1,0.1-0.1c0.1,0,0.1,0,0.2,0c0.1,0,0.1,0.1,0.1,0.1c0,0,0,0.1,0,0.1c0,0-0.1,0.1-0.1,0.1
			C42.6,22.7,42.6,22.7,42.5,22.7z"/>
		<path fill="#231F20" d="M43.3,23.4c-0.1,0-0.2,0-0.3,0c-0.1,0-0.2,0.1-0.3,0.3l-0.1,0.1c-0.1,0.1-0.2,0.3-0.2,0.3
			c0,0.1,0,0.2,0.1,0.2c0.1,0,0.2,0.1,0.2,0.1c0.1,0,0.1,0,0.2-0.1l0.1,0.1c-0.1,0.1-0.2,0.1-0.3,0.1c-0.1,0-0.2,0-0.3-0.1
			c-0.2-0.1-0.3-0.2-0.3-0.4c0-0.1,0-0.3,0.1-0.4l0,0c0.1-0.2,0.3-0.2,0.4-0.3C43,23.2,43.2,23.2,43.3,23.4c0.2,0,0.3,0.1,0.3,0.1
			c0,0.1,0.1,0.2,0,0.2c0,0.1-0.1,0.1-0.1,0.2l-0.3-0.1c0.1-0.1,0.2-0.2,0.2-0.3C43.4,23.5,43.4,23.4,43.3,23.4z"/>
		<path fill="#231F20" d="M44.2,23.2L44.2,23.2l0.5,0.2l-0.8,1l0.7-0.1c0.1,0,0.1,0,0.2,0c0,0,0,0,0,0l-0.1-0.1l0-0.1l0.5,0.3l0,0.1
			L45,24.4c0,0,0,0,0,0c0,0,0,0-0.1,0c0,0-0.1,0-0.1,0l-0.4,0l0,0.7c0,0,0,0.1,0,0.1c0,0,0,0,0,0c0,0,0,0,0,0l0.1,0.1l0,0.1L44,25.2
			l0.1-0.7l-0.2,0l-0.2,0.2c0,0-0.1,0.1-0.1,0.1c0,0,0,0,0,0l0.1,0.1l0,0.1L43,24.6l0-0.1l0.2,0.1c0,0,0,0,0.1,0c0,0,0,0,0.1-0.1
			l0.9-1.1c0,0,0.1-0.1,0.1-0.1c0,0,0,0,0,0L44.2,23.2z"/>
		<path fill="#231F20" d="M45.8,26.1L45.8,26.1l-0.5-0.2l0.1-0.2c-0.1,0-0.2,0.1-0.3,0c-0.1,0-0.2,0-0.2-0.1
			c-0.1-0.1-0.2-0.2-0.2-0.3c0-0.1,0-0.3,0.2-0.4l0,0c0.1-0.2,0.3-0.2,0.4-0.3c0.2,0,0.3,0,0.5,0.1c0.1,0.1,0.2,0.1,0.2,0.2l0.3-0.3
			c0,0,0.1-0.1,0.1-0.1c0,0,0,0,0,0l-0.1-0.1l0-0.1l0.5,0.3l-1.1,1.3c0,0-0.1,0.1-0.1,0.1c0,0,0,0,0,0L45.8,26.1z M45.1,25.2
			C45,25.3,45,25.4,45,25.5c0,0.1,0,0.1,0.1,0.2c0,0,0.1,0,0.2,0c0.1,0,0.2,0,0.3-0.1L46,25c0-0.1-0.1-0.2-0.2-0.2
			c-0.1-0.1-0.2-0.1-0.3,0c-0.1,0-0.2,0.1-0.3,0.2L45.1,25.2z"/>
		<path fill="#231F20" d="M47.1,26.5c-0.1,0.1-0.2,0.1-0.3,0.1c-0.1,0-0.2,0-0.3-0.1c-0.2-0.1-0.3-0.2-0.3-0.4c0-0.1,0-0.3,0.1-0.4
			l0,0c0.1-0.2,0.3-0.2,0.4-0.3c0.2,0,0.3,0,0.5,0.1c0.1,0.1,0.2,0.1,0.2,0.2c0.1,0.1,0.1,0.2,0.1,0.2c0,0.1,0,0.2-0.1,0.2
			c0,0,0,0-0.1,0.1c0,0,0,0-0.1,0.1l-0.8-0.4l0,0.1c-0.1,0.1-0.2,0.3-0.2,0.3c0,0.1,0.1,0.2,0.2,0.2c0.1,0,0.1,0.1,0.2,0.1
			c0.1,0,0.2,0,0.2-0.1L47.1,26.5z M47.2,25.5c-0.1,0-0.2-0.1-0.3,0c-0.1,0-0.2,0.1-0.3,0.3l0.5,0.3c0,0,0.1,0,0.1-0.1
			c0,0,0,0,0.1-0.1c0.1-0.1,0.1-0.2,0.1-0.2C47.3,25.6,47.2,25.6,47.2,25.5z"/>
		<path fill="#231F20" d="M48.4,26.2c-0.1,0-0.2,0-0.3,0c-0.1,0-0.2,0.1-0.3,0.3l-0.1,0.1c-0.1,0.1-0.2,0.3-0.2,0.3
			c0,0.1,0,0.2,0.1,0.2c0.1,0,0.2,0.1,0.2,0.1c0.1,0,0.1,0,0.2-0.1l0.1,0.1c-0.1,0.1-0.2,0.1-0.3,0.1c-0.1,0-0.2,0-0.3-0.1
			c-0.2-0.1-0.3-0.2-0.3-0.4c0-0.1,0-0.3,0.1-0.4l0,0c0.1-0.2,0.3-0.2,0.4-0.3C48.1,26,48.2,26,48.4,26.2c0.2,0,0.3,0.1,0.3,0.1
			c0,0.1,0.1,0.2,0,0.2c0,0.1-0.1,0.1-0.1,0.2l-0.3-0.1c0.1-0.1,0.2-0.2,0.2-0.3C48.5,26.3,48.4,26.2,48.4,26.2z"/>
		<path fill="#231F20" d="M49.8,27.6L49.8,27.6c-0.2,0.2-0.3,0.3-0.5,0.3c-0.2,0-0.4,0-0.5-0.1c-0.2-0.1-0.3-0.2-0.3-0.4
			c0-0.1,0-0.3,0.1-0.4l0,0c0.1-0.2,0.3-0.2,0.4-0.3c0.2,0,0.4,0,0.5,0.1c0.2,0.1,0.3,0.2,0.3,0.4S49.9,27.4,49.8,27.6z M49.5,27.4
			c0.1-0.1,0.2-0.3,0.2-0.3c0-0.1,0-0.2-0.1-0.2c-0.1,0-0.2-0.1-0.3,0c-0.1,0-0.2,0.1-0.3,0.3l-0.1,0.1c-0.1,0.1-0.2,0.3-0.2,0.3
			c0,0.1,0,0.2,0.1,0.2c0.1,0,0.2,0.1,0.3,0c0.1,0,0.2-0.1,0.3-0.3L49.5,27.4z"/>
		<path fill="#231F20" d="M50.2,27.2L50.2,27.2l0.5,0.2l-0.1,0.2c0.2-0.1,0.4-0.1,0.5,0c0.1,0,0.1,0.1,0.1,0.1c0,0.1,0,0.1,0,0.2
			l-0.3,0c0-0.1,0-0.1,0-0.2c0,0,0-0.1-0.1-0.1c0,0-0.1,0-0.1,0c-0.1,0-0.1,0-0.2,0L50,28.2c0,0-0.1,0.1-0.1,0.1c0,0,0,0,0,0
			l0.2,0.1l0,0.1l-0.7-0.4l0-0.1l0.2,0.1c0,0,0,0,0.1,0c0,0,0,0,0.1-0.1l0.5-0.7c0,0,0.1-0.1,0.1-0.1c0,0,0,0,0,0L50.2,27.2z"/>
	</g>
	
		<ellipse transform="matrix(0.2028 -0.9792 0.9792 0.2028 30.3288 84.62)" fill="none" stroke="#231F20" stroke-width="0.5" stroke-miterlimit="10" cx="67.1" cy="23.7" rx="0.6" ry="0.5"/>
	<path fill="#231F20" d="M67.5,21.8c-0.5-0.1-0.9,0-1.3,0.3c-0.4,0.3-0.7,0.7-0.8,1.1c0,0.1,0,0.1,0,0.2c0.6-0.2,0.8-0.9,1.1-0.9
		c0,0,0,0,0,0c0.3-0.1,0.5-0.2,0.8-0.1c0.3,0.1,0.6,0.2,0.8,0.5c0.3,0.5,0.2,1.2-0.3,1.6c0.1,0.2,0.2,0.4,0.2,0.5
		c0.8-0.6,1-1.6,0.5-2.4l0,0C68.4,22.2,68,21.9,67.5,21.8z"/>
	
		<ellipse transform="matrix(0.8678 -0.497 0.497 0.8678 0.5296 21.0445)" fill="none" stroke="#231F20" stroke-width="0.5" stroke-miterlimit="10" cx="39.8" cy="9.5" rx="0.5" ry="0.6"/>
	<path fill="#231F20" d="M40,8c-0.4-0.1-0.8,0-1.2,0.3c-0.4,0.2-0.6,0.6-0.7,1c0,0,0,0.1,0,0.1c0.5-0.2,0.7-0.8,1-0.8c0,0,0,0,0,0
		c0.2-0.1,0.5-0.2,0.7-0.1c0.3,0.1,0.5,0.2,0.7,0.4c0.3,0.5,0.2,1.1-0.2,1.4c0.1,0.2,0.5,0,0.6,0.1c0.7-0.5,0.6-1.1,0.1-1.8l0,0
		C40.8,8.3,40.4,8.1,40,8z"/>
</g>
</svg>
