<svg width="18" height="18" viewBox="0 0 18 18" fill="none" xmlns="http://www.w3.org/2000/svg">
<path d="M6.92895 16.8622C6.00427 17.1758 5.18964 17.1399 4.42957 16.6459C3.74622 16.2017 3.38692 15.5534 3.30663 14.7441C3.29776 14.6519 3.33382 14.6006 3.41107 14.5595C4.6301 13.9113 5.84913 13.2631 7.06415 12.6084C7.15191 12.5614 7.17983 12.6008 7.22561 12.6506C7.52028 12.9704 7.81496 13.2902 8.11155 13.6087C8.34887 13.8637 8.56593 13.891 8.84618 13.6896C11.2331 11.9687 12.5767 9.63988 12.882 6.70773C12.9192 6.34818 12.7803 6.17051 12.4198 6.09231C12.0306 6.00818 11.6433 5.91676 11.2523 5.84596C11.112 5.82075 11.0678 5.76829 11.0642 5.6308C11.0347 4.55514 10.9995 3.48029 10.9663 2.40488C10.9573 2.11521 10.9549 1.82454 10.9385 1.53535C10.9329 1.43848 10.9648 1.39968 11.0479 1.35774C12.3147 0.724705 13.9043 1.32407 14.443 2.63931C14.692 3.24754 14.785 3.89303 14.8615 4.53613C15.0672 6.25539 14.8967 7.94226 14.3265 9.57585C13.307 12.5004 11.4289 14.6955 8.69375 16.1419C8.10496 16.4533 7.48878 16.7047 6.92895 16.8622Z" fill="#ED1C24"/>
</svg>
