<svg width="18" height="15" viewBox="0 0 18 15" fill="none" xmlns="http://www.w3.org/2000/svg">
<path d="M16.7705 0.0612959L0.468694 6.35352C0.458995 6.35725 0.449593 6.3617 0.440568 6.36685C0.308376 6.44154 -0.614156 7.00438 0.68667 7.50901L0.70003 7.51392L4.58177 8.76479C4.61138 8.77438 4.64274 8.77741 4.67365 8.77365C4.70456 8.7699 4.73428 8.75945 4.76072 8.74304L14.3886 2.75135C14.4122 2.73666 14.4385 2.72676 14.4659 2.72224C14.5999 2.70015 14.9856 2.65877 14.7416 2.96772C14.4656 3.3184 7.88938 9.19647 7.15951 9.84838C7.11742 9.88607 7.09139 9.93839 7.08674 9.99462L6.76821 13.7819C6.76817 13.8205 6.77714 13.8586 6.79441 13.8931C6.81168 13.9276 6.83677 13.9576 6.8677 13.9808C6.91159 14.0084 6.9632 14.0211 7.01492 14.0172C7.06664 14.0133 7.11573 13.9929 7.15494 13.959L9.46127 11.903C9.49771 11.8705 9.54418 11.8515 9.59298 11.849C9.64177 11.8465 9.68996 11.8607 9.72952 11.8893L13.7533 14.8035L13.7663 14.8122C13.8637 14.8722 14.9156 15.4827 15.2194 14.1193L17.9968 0.946058C18.0007 0.904327 18.0383 0.44564 17.7096 0.174565C17.3643 -0.108783 16.8756 0.0342936 16.8022 0.0497234C16.7913 0.052733 16.7807 0.0566029 16.7705 0.0612959Z" fill="#858585"/>
</svg>
