<svg width="16" height="17" viewBox="0 0 16 17" fill="none" xmlns="http://www.w3.org/2000/svg">
<path d="M13.0594 4.93455C12.3936 4.79213 11.7907 4.44078 11.3386 3.93172C10.8865 3.42265 10.6088 2.78249 10.5461 2.10455V1.81055H8.24939V10.9252C8.24797 11.3287 8.12015 11.7217 7.88389 12.0488C7.64764 12.3759 7.31483 12.6208 6.93222 12.749C6.54961 12.8772 6.13645 12.8824 5.75078 12.7637C5.36512 12.6449 5.02634 12.4084 4.78206 12.0872C4.53398 11.7607 4.39636 11.3636 4.38917 10.9536C4.38197 10.5435 4.50557 10.1419 4.74203 9.80682C4.9785 9.47177 5.31554 9.22075 5.70429 9.09016C6.09303 8.95957 6.51327 8.9562 6.90406 9.08055V6.74721C6.03262 6.62675 5.14533 6.78167 4.36629 7.19033C3.58724 7.59898 2.95541 8.24091 2.55917 9.02634C2.16293 9.81177 2.0221 10.7014 2.15638 11.5708C2.29065 12.4402 2.69332 13.2459 3.30806 13.8752C3.89429 14.475 4.64598 14.8866 5.46716 15.0573C6.28834 15.228 7.14176 15.1501 7.91849 14.8336C8.69522 14.5171 9.36001 13.9764 9.82802 13.2803C10.296 12.5843 10.546 11.7646 10.5461 10.9259V6.26855C11.4742 6.9321 12.5871 7.28791 13.7281 7.28588V5.00388C13.5034 5.00416 13.2793 4.98092 13.0594 4.93455Z" fill="white"/>
</svg>
